<svg viewBox="0 0 1200 675" xmlns="http://www.w3.org/2000/svg" font-family="'Segoe UI',system-ui,sans-serif">
  <defs>
    <radialGradient id="bg" cx="50%" cy="50%" r="80%"><stop offset="0%" stop-color="#0a0118"/><stop offset="100%" stop-color="#05030d"/></radialGradient>
    <radialGradient id="gL" cx="12%" cy="50%" r="55%"><stop offset="0%" stop-color="#5b21b6" stop-opacity="0.32"/><stop offset="100%" stop-color="#5b21b6" stop-opacity="0"/></radialGradient>
    <radialGradient id="gR" cx="88%" cy="50%" r="50%"><stop offset="0%" stop-color="#2563eb" stop-opacity="0.2"/><stop offset="100%" stop-color="#2563eb" stop-opacity="0"/></radialGradient>
    <linearGradient id="aG" x1="0%" y1="0%" x2="100%" y2="0%"><stop offset="0%" stop-color="#a78bfa"/><stop offset="100%" stop-color="#60a5fa"/></linearGradient>
    <linearGradient id="bG" x1="0%" y1="0%" x2="100%" y2="0%"><stop offset="0%" stop-color="#7c3aed"/><stop offset="100%" stop-color="#4f46e5"/></linearGradient>
    <linearGradient id="pG" x1="0%" y1="0%" x2="100%" y2="100%"><stop offset="0%" stop-color="#130b2e" stop-opacity="0.97"/><stop offset="100%" stop-color="#0c0820" stop-opacity="0.97"/></linearGradient>
    <filter id="sh"><feDropShadow dx="0" dy="6" stdDeviation="16" flood-color="#5b21b6" flood-opacity="0.35"/></filter>
    <filter id="glow"><feGaussianBlur stdDeviation="3" result="b"/><feMerge><feMergeNode in="b"/><feMergeNode in="SourceGraphic"/></feMerge></filter>
    <filter id="neon"><feGaussianBlur stdDeviation="5" result="b"/><feMerge><feMergeNode in="b"/><feMergeNode in="SourceGraphic"/></feMerge></filter>
  </defs>

  <rect width="1200" height="675" fill="url(#bg)"/>
  <ellipse cx="150" cy="337" rx="480" ry="420" fill="url(#gL)"/>
  <ellipse cx="1050" cy="337" rx="460" ry="400" fill="url(#gR)"/>

  <!-- Particles -->
  <circle cx="60" cy="80" r="1.5" fill="rgba(167,139,250,0.5)"/>
  <circle cx="200" cy="180" r="1" fill="rgba(167,139,250,0.4)"/>
  <circle cx="1100" cy="100" r="1.5" fill="rgba(96,165,250,0.5)"/>
  <circle cx="1160" cy="300" r="1" fill="rgba(167,139,250,0.4)"/>

  <!-- Top feature pills -->
  <g text-anchor="middle" font-size="9" fill="rgba(255,255,255,0.38)">
    <rect x="420" y="18" width="100" height="52" rx="10" fill="rgba(167,139,250,0.06)" stroke="rgba(167,139,250,0.18)" stroke-width="1"/>
    <text x="470" y="40" font-size="16">💡</text><text x="470" y="60">Creative Ideas</text>
    <rect x="528" y="18" width="108" height="52" rx="10" fill="rgba(167,139,250,0.06)" stroke="rgba(167,139,250,0.18)" stroke-width="1"/>
    <text x="582" y="40" font-size="16">🛡</text><text x="582" y="60">Unique &amp; Brandable</text>
    <rect x="644" y="18" width="98" height="52" rx="10" fill="rgba(167,139,250,0.06)" stroke="rgba(167,139,250,0.18)" stroke-width="1"/>
    <text x="693" y="40" font-size="16">🌐</text><text x="693" y="60">Domain Check</text>
    <rect x="750" y="18" width="112" height="52" rx="10" fill="rgba(167,139,250,0.06)" stroke="rgba(167,139,250,0.18)" stroke-width="1"/>
    <text x="806" y="40" font-size="16">🚀</text><text x="806" y="60">For Startups</text>
    <rect x="870" y="18" width="88" height="52" rx="10" fill="rgba(167,139,250,0.06)" stroke="rgba(167,139,250,0.18)" stroke-width="1"/>
    <text x="914" y="40" font-size="16">⏱</text><text x="914" y="60">Save Time</text>
    <rect x="966" y="18" width="88" height="52" rx="10" fill="rgba(167,139,250,0.06)" stroke="rgba(167,139,250,0.18)" stroke-width="1"/>
    <text x="1010" y="40" font-size="16">⚡</text><text x="1010" y="60">AI-Powered</text>
  </g>

  <!-- Left panel -->
  <text x="32" y="112" font-size="10" font-weight="700" fill="#a78bfa" letter-spacing="1.2">AI BUSINESS NAME GENERATOR</text>
  <text x="32" y="164" font-size="44" font-weight="900" fill="url(#aG)" filter="url(#glow)" letter-spacing="-1.5">AI Business</text>
  <text x="32" y="216" font-size="44" font-weight="900" fill="url(#aG)" filter="url(#glow)" letter-spacing="-1.5">Name Generator</text>
  <text x="32" y="254" font-size="17" font-weight="700" fill="rgba(255,255,255,0.85)">Find the Perfect Brand Name in Seconds</text>
  <text x="32" y="280" font-size="12" fill="rgba(255,255,255,0.42)">Generate unique, memorable and brandable business names</text>
  <text x="32" y="296" font-size="12" fill="rgba(255,255,255,0.42)">with AI. Perfect for startups, stores, apps and agencies.</text>

  <!-- Feature bullets -->
  <g font-size="11">
    <rect x="32" y="316" width="20" height="20" rx="5" fill="rgba(124,58,237,0.2)" stroke="rgba(167,139,250,0.28)" stroke-width="1"/>
    <text x="42" y="330" text-anchor="middle" font-size="10">✦</text>
    <text x="58" y="329" font-weight="600" fill="rgba(255,255,255,0.8)">AI-Powered Ideas</text>
    <text x="58" y="343" font-size="10" fill="rgba(255,255,255,0.35)">Unlimited creative names in seconds</text>

    <rect x="32" y="354" width="20" height="20" rx="5" fill="rgba(124,58,237,0.2)" stroke="rgba(167,139,250,0.28)" stroke-width="1"/>
    <text x="42" y="368" text-anchor="middle" font-size="10">🎯</text>
    <text x="58" y="367" font-weight="600" fill="rgba(255,255,255,0.8)">Brandable &amp; Unique</text>
    <text x="58" y="381" font-size="10" fill="rgba(255,255,255,0.35)">Catchy names that stand out</text>

    <rect x="32" y="392" width="20" height="20" rx="5" fill="rgba(124,58,237,0.2)" stroke="rgba(167,139,250,0.28)" stroke-width="1"/>
    <text x="42" y="406" text-anchor="middle" font-size="10">🌐</text>
    <text x="58" y="405" font-weight="600" fill="rgba(255,255,255,0.8)">Domain Availability</text>
    <text x="58" y="419" font-size="10" fill="rgba(255,255,255,0.35)">Check .com availability instantly</text>

    <rect x="32" y="430" width="20" height="20" rx="5" fill="rgba(34,197,94,0.1)" stroke="rgba(34,197,94,0.22)" stroke-width="1"/>
    <text x="42" y="444" text-anchor="middle" font-size="10">⚡</text>
    <text x="58" y="443" font-weight="600" fill="rgba(255,255,255,0.8)">Save Time &amp; Effort</text>
    <text x="58" y="457" font-size="10" fill="rgba(255,255,255,0.35)">Skip brainstorming, find names fast</text>
  </g>

  <!-- CTA buttons -->
  <rect x="32" y="476" width="188" height="40" rx="12" fill="url(#bG)" filter="url(#sh)"/>
  <text x="126" y="501" text-anchor="middle" font-size="13" font-weight="700" fill="#fff">Generate Names ✦</text>
  <rect x="230" y="476" width="148" height="40" rx="12" fill="rgba(167,139,250,0.1)" stroke="rgba(167,139,250,0.24)" stroke-width="1"/>
  <text x="304" y="501" text-anchor="middle" font-size="12" fill="#a78bfa">See Examples</text>

  <!-- RIGHT: laptop UI -->
  <rect x="418" y="90" width="752" height="510" rx="18" fill="url(#pG)" stroke="rgba(124,58,237,0.3)" stroke-width="1.5" filter="url(#sh)"/>
  <!-- screen -->
  <rect x="430" y="102" width="728" height="486" rx="12" fill="#080518"/>
  <!-- base -->
  <rect x="378" y="598" width="832" height="16" rx="5" fill="rgba(20,12,50,0.7)" stroke="rgba(124,58,237,0.2)" stroke-width="1"/>
  <rect x="368" y="612" width="852" height="7" rx="3" fill="rgba(12,7,30,0.5)"/>
  <ellipse cx="794" cy="618" rx="360" ry="10" fill="rgba(124,58,237,0.2)" filter="url(#neon)"/>

  <!-- Chrome bar -->
  <rect x="430" y="102" width="728" height="36" rx="12" fill="rgba(124,58,237,0.13)"/>
  <rect x="430" y="128" width="728" height="10" fill="rgba(124,58,237,0.13)"/>
  <circle cx="452" cy="120" r="5" fill="rgba(255,80,80,0.45)"/>
  <circle cx="468" cy="120" r="5" fill="rgba(255,193,7,0.45)"/>
  <circle cx="484" cy="120" r="5" fill="rgba(34,197,94,0.45)"/>
  <text x="580" y="124" font-size="11" font-weight="700" fill="rgba(255,255,255,0.6)">✦ AI Business Name Generator</text>
  <rect x="1078" y="108" width="66" height="18" rx="5" fill="rgba(124,58,237,0.22)" stroke="rgba(167,139,250,0.3)" stroke-width="1"/>
  <text x="1111" y="120" text-anchor="middle" font-size="7.5" fill="#a78bfa">Powered by AI ✦</text>

  <!-- Left form -->
  <text x="448" y="162" font-size="10" font-weight="700" fill="rgba(255,255,255,0.55)">Business Information</text>
  <text x="448" y="180" font-size="9" fill="rgba(255,255,255,0.38)">Business Type</text>
  <rect x="448" y="184" width="214" height="24" rx="6" fill="rgba(255,255,255,0.04)" stroke="rgba(255,255,255,0.09)" stroke-width="1"/>
  <text x="456" y="200" font-size="9" fill="rgba(255,255,255,0.5)">Online Store</text>
  <text x="654" y="200" text-anchor="end" font-size="9" fill="rgba(255,255,255,0.28)">▾</text>

  <text x="448" y="222" font-size="9" fill="rgba(255,255,255,0.38)">Industry / Niche</text>
  <rect x="448" y="226" width="214" height="24" rx="6" fill="rgba(255,255,255,0.04)" stroke="rgba(255,255,255,0.09)" stroke-width="1"/>
  <text x="456" y="242" font-size="9" fill="rgba(255,255,255,0.5)">Eco-friendly products</text>

  <text x="448" y="264" font-size="9" fill="rgba(255,255,255,0.38)">Keywords (comma separated)</text>
  <rect x="448" y="268" width="214" height="36" rx="6" fill="rgba(255,255,255,0.04)" stroke="rgba(255,255,255,0.09)" stroke-width="1"/>
  <text x="456" y="282" font-size="9" fill="rgba(255,255,255,0.5)">green, nature, sustainable,</text>
  <text x="456" y="296" font-size="9" fill="rgba(255,255,255,0.5)">earth</text>

  <text x="448" y="318" font-size="9" fill="rgba(255,255,255,0.38)">Tone (Optional)</text>
  <rect x="448" y="322" width="214" height="24" rx="6" fill="rgba(255,255,255,0.04)" stroke="rgba(255,255,255,0.09)" stroke-width="1"/>
  <text x="456" y="338" font-size="9" fill="rgba(255,255,255,0.5)">Modern</text>
  <text x="654" y="338" text-anchor="end" font-size="9" fill="rgba(255,255,255,0.28)">▾</text>

  <text x="448" y="360" font-size="9" fill="rgba(255,255,255,0.38)">Length</text>
  <rect x="448" y="364" width="214" height="24" rx="6" fill="rgba(255,255,255,0.04)" stroke="rgba(255,255,255,0.09)" stroke-width="1"/>
  <text x="456" y="380" font-size="9" fill="rgba(255,255,255,0.5)">Short &amp; Catchy</text>
  <text x="654" y="380" text-anchor="end" font-size="9" fill="rgba(255,255,255,0.28)">▾</text>

  <rect x="448" y="400" width="214" height="34" rx="10" fill="url(#bG)" filter="url(#sh)"/>
  <text x="555" y="422" text-anchor="middle" font-size="12" font-weight="700" fill="#fff">✦ Generate Names</text>

  <!-- Divider -->
  <line x1="674" y1="148" x2="674" y2="565" stroke="rgba(255,255,255,0.05)" stroke-width="1"/>

  <!-- Middle results -->
  <text x="686" y="162" font-size="10" font-weight="700" fill="rgba(255,255,255,0.55)">Generated Business Names</text>
  <g font-size="10">
    <rect x="680" y="172" width="348" height="26" rx="6" fill="rgba(255,255,255,0.03)" stroke="rgba(255,255,255,0.06)" stroke-width="1"/>
    <text x="694" y="189" font-size="14" font-weight="700" fill="rgba(255,255,255,0.9)">Greenora</text>
    <text x="840" y="189" font-size="9" fill="rgba(255,255,255,0.35)">greenora.com</text>
    <rect x="1002" y="177" width="14" height="14" rx="2" fill="rgba(34,197,94,0.12)"/>
    <text x="1008" y="187" font-size="8" font-weight="700" fill="#4ade80">✓</text>

    <rect x="680" y="204" width="348" height="26" rx="6" fill="rgba(255,255,255,0.03)" stroke="rgba(255,255,255,0.06)" stroke-width="1"/>
    <text x="694" y="221" font-size="14" font-weight="700" fill="rgba(255,255,255,0.9)">EcoVibe</text>
    <text x="840" y="221" font-size="9" fill="rgba(255,255,255,0.35)">ecovibe.com</text>
    <text x="1008" y="219" font-size="8" font-weight="700" fill="#4ade80">✓</text>

    <rect x="680" y="236" width="348" height="26" rx="6" fill="rgba(255,255,255,0.03)" stroke="rgba(255,255,255,0.06)" stroke-width="1"/>
    <text x="694" y="253" font-size="14" font-weight="700" fill="rgba(255,255,255,0.9)">Naturli</text>
    <text x="840" y="253" font-size="9" fill="rgba(255,255,255,0.35)">naturli.com</text>
    <text x="1008" y="251" font-size="8" font-weight="700" fill="#4ade80">✓</text>

    <rect x="680" y="268" width="348" height="26" rx="6" fill="rgba(255,255,255,0.03)" stroke="rgba(255,255,255,0.06)" stroke-width="1"/>
    <text x="694" y="285" font-size="14" font-weight="700" fill="rgba(255,255,255,0.9)">Earthlyy</text>
    <text x="840" y="285" font-size="9" fill="rgba(255,255,255,0.35)">earthlyy.com</text>
    <text x="1008" y="283" font-size="8" font-weight="700" fill="#4ade80">✓</text>

    <rect x="680" y="300" width="348" height="26" rx="6" fill="rgba(255,255,255,0.03)" stroke="rgba(255,255,255,0.06)" stroke-width="1"/>
    <text x="694" y="317" font-size="14" font-weight="700" fill="rgba(255,255,255,0.9)">Sustaina</text>
    <text x="840" y="317" font-size="9" fill="rgba(255,255,255,0.35)">sustaina.com</text>
    <text x="1008" y="315" font-size="8" font-weight="700" fill="#4ade80">✓</text>

    <rect x="680" y="332" width="348" height="26" rx="6" fill="rgba(255,255,255,0.03)" stroke="rgba(255,255,255,0.06)" stroke-width="1"/>
    <text x="694" y="349" font-size="14" font-weight="700" fill="rgba(255,255,255,0.9)">EcoNexa</text>
    <text x="840" y="349" font-size="9" fill="rgba(255,255,255,0.35)">econexa.com</text>
    <text x="1008" y="347" font-size="8" font-weight="700" fill="#4ade80">✓</text>

    <rect x="680" y="364" width="348" height="26" rx="6" fill="rgba(255,255,255,0.03)" stroke="rgba(255,255,255,0.06)" stroke-width="1"/>
    <text x="694" y="381" font-size="14" font-weight="700" fill="rgba(255,255,255,0.9)">Pureterra</text>
    <text x="840" y="381" font-size="9" fill="rgba(255,255,255,0.35)">pureterra.com</text>
    <text x="1008" y="379" font-size="8" font-weight="700" fill="#4ade80">✓</text>

    <rect x="680" y="396" width="348" height="26" rx="6" fill="rgba(255,255,255,0.03)" stroke="rgba(255,255,255,0.06)" stroke-width="1"/>
    <text x="694" y="413" font-size="14" font-weight="700" fill="rgba(255,255,255,0.9)">Verdantly</text>
    <text x="840" y="413" font-size="9" fill="rgba(255,255,255,0.35)">verdantly.com</text>
    <text x="1008" y="411" font-size="8" font-weight="700" fill="#4ade80">✓</text>

    <rect x="700" y="432" width="130" height="22" rx="7" fill="rgba(255,255,255,0.05)" stroke="rgba(255,255,255,0.09)" stroke-width="1"/>
    <text x="765" y="447" text-anchor="middle" font-size="9" fill="rgba(255,255,255,0.45)">↻ Generate More</text>
  </g>

  <!-- Right sidebar -->
  <line x1="1040" y1="148" x2="1040" y2="565" stroke="rgba(255,255,255,0.05)" stroke-width="1"/>
  <text x="1052" y="162" font-size="10" font-weight="700" fill="rgba(255,255,255,0.55)">Your Saved Names</text>
  <g font-size="9" fill="rgba(255,255,255,0.6)">
    <text x="1058" y="180">💜 Greenora</text>
    <text x="1058" y="196">💜 EcoVibe</text>
    <text x="1058" y="212">💜 Naturli</text>
  </g>
  <text x="1052" y="234" font-size="10" font-weight="700" fill="rgba(255,255,255,0.55)">Tips for a Great Name</text>
  <g font-size="8.5" fill="rgba(255,255,255,0.42)">
    <text x="1052" y="250">✓ Keep it short and simple</text>
    <text x="1052" y="265">✓ Easy to pronounce</text>
    <text x="1052" y="280">✓ Use relevant keywords</text>
    <text x="1052" y="295">✓ Check domain availability</text>
    <text x="1052" y="310">✓ Ensure it's unique</text>
  </g>
  <text x="1052" y="330" font-size="10" font-weight="700" fill="rgba(255,255,255,0.55)">Domain Extensions</text>
  <g font-size="8" font-weight="700">
    <rect x="1052" y="336" width="28" height="14" rx="3" fill="rgba(124,58,237,0.3)" stroke="rgba(167,139,250,0.3)" stroke-width="1"/>
    <text x="1066" y="347" text-anchor="middle" fill="#a78bfa">.com</text>
    <rect x="1084" y="336" width="24" height="14" rx="3" fill="rgba(124,58,237,0.15)" stroke="rgba(167,139,250,0.18)" stroke-width="1"/>
    <text x="1096" y="347" text-anchor="middle" fill="#c4b5fd">.net</text>
    <rect x="1112" y="336" width="20" height="14" rx="3" fill="rgba(124,58,237,0.15)" stroke="rgba(167,139,250,0.18)" stroke-width="1"/>
    <text x="1122" y="347" text-anchor="middle" fill="#c4b5fd">.io</text>
    <rect x="1052" y="354" width="20" height="14" rx="3" fill="rgba(124,58,237,0.15)" stroke="rgba(167,139,250,0.18)" stroke-width="1"/>
    <text x="1062" y="365" text-anchor="middle" fill="#c4b5fd">.co</text>
    <rect x="1076" y="354" width="30" height="14" rx="3" fill="rgba(124,58,237,0.15)" stroke="rgba(167,139,250,0.18)" stroke-width="1"/>
    <text x="1091" y="365" text-anchor="middle" fill="#c4b5fd">.store</text>
    <rect x="1110" y="354" width="22" height="14" rx="3" fill="rgba(124,58,237,0.15)" stroke="rgba(167,139,250,0.18)" stroke-width="1"/>
    <text x="1121" y="365" text-anchor="middle" fill="#c4b5fd">.ai</text>
  </g>

  <!-- Bottom stats -->
  <rect x="0" y="638" width="1200" height="37" fill="rgba(124,58,237,0.05)"/>
  <line x1="0" y1="638" x2="1200" y2="638" stroke="rgba(167,139,250,0.09)" stroke-width="1"/>
  <g text-anchor="middle" font-size="9" fill="rgba(255,255,255,0.35)">
    <text x="100" y="657">🚀 Perfect for Startups</text>
    <line x1="200" y1="641" x2="200" y2="671" stroke="rgba(255,255,255,0.05)" stroke-width="1"/>
    <text x="300" y="657">🛒 E-commerce Ready</text>
    <line x1="400" y1="641" x2="400" y2="671" stroke="rgba(255,255,255,0.05)" stroke-width="1"/>
    <text x="500" y="657">✅ 100% Unique</text>
    <line x1="600" y1="641" x2="600" y2="671" stroke="rgba(255,255,255,0.05)" stroke-width="1"/>
    <text x="700" y="657">⚡ Save Hours</text>
    <line x1="800" y1="641" x2="800" y2="671" stroke="rgba(255,255,255,0.05)" stroke-width="1"/>
    <text x="900" y="657">⭐ Build Your Brand</text>
    <line x1="1000" y1="641" x2="1000" y2="671" stroke="rgba(255,255,255,0.05)" stroke-width="1"/>
    <text x="1100" y="657">🆓 100% Free</text>
  </g>
</svg>
