<svg viewBox="0 0 1200 630" xmlns="http://www.w3.org/2000/svg" font-family="'Segoe UI',system-ui,sans-serif">
  <defs>
    <radialGradient id="bg" cx="50%" cy="50%" r="80%"><stop offset="0%" stop-color="#0a0118"/><stop offset="100%" stop-color="#05030d"/></radialGradient>
    <radialGradient id="gL" cx="14%" cy="50%" r="55%"><stop offset="0%" stop-color="#5b21b6" stop-opacity="0.38"/><stop offset="100%" stop-color="#5b21b6" stop-opacity="0"/></radialGradient>
    <radialGradient id="gR" cx="86%" cy="50%" r="50%"><stop offset="0%" stop-color="#2563eb" stop-opacity="0.22"/><stop offset="100%" stop-color="#2563eb" stop-opacity="0"/></radialGradient>
    <radialGradient id="gRob" cx="82%" cy="80%" r="28%"><stop offset="0%" stop-color="#7c3aed" stop-opacity="0.45"/><stop offset="100%" stop-color="#7c3aed" stop-opacity="0"/></radialGradient>
    <linearGradient id="aG" x1="0%" y1="0%" x2="100%" y2="0%"><stop offset="0%" stop-color="#a78bfa"/><stop offset="100%" stop-color="#60a5fa"/></linearGradient>
    <linearGradient id="bG" x1="0%" y1="0%" x2="100%" y2="0%"><stop offset="0%" stop-color="#7c3aed"/><stop offset="100%" stop-color="#4f46e5"/></linearGradient>
    <linearGradient id="pG" x1="0%" y1="0%" x2="100%" y2="100%"><stop offset="0%" stop-color="#130b2e" stop-opacity="0.98"/><stop offset="100%" stop-color="#0c0820" stop-opacity="0.98"/></linearGradient>
    <linearGradient id="robG" x1="0%" y1="0%" x2="100%" y2="100%"><stop offset="0%" stop-color="#7c3aed"/><stop offset="100%" stop-color="#4338ca"/></linearGradient>
    <linearGradient id="robFG" x1="0%" y1="0%" x2="100%" y2="100%"><stop offset="0%" stop-color="#1e1060"/><stop offset="100%" stop-color="#110a3a"/></linearGradient>
    <filter id="sh"><feDropShadow dx="0" dy="8" stdDeviation="20" flood-color="#5b21b6" flood-opacity="0.4"/></filter>
    <filter id="glow"><feGaussianBlur stdDeviation="3" result="b"/><feMerge><feMergeNode in="b"/><feMergeNode in="SourceGraphic"/></feMerge></filter>
    <filter id="neon"><feGaussianBlur stdDeviation="5" result="b"/><feMerge><feMergeNode in="b"/><feMergeNode in="SourceGraphic"/></feMerge></filter>
    <filter id="robGlow"><feGaussianBlur stdDeviation="7" result="b"/><feMerge><feMergeNode in="b"/><feMergeNode in="SourceGraphic"/></feMerge></filter>
  </defs>

  <rect width="1200" height="630" fill="url(#bg)"/>
  <ellipse cx="160" cy="315" rx="520" ry="450" fill="url(#gL)"/>
  <ellipse cx="1040" cy="315" rx="480" ry="420" fill="url(#gR)"/>
  <ellipse cx="1060" cy="520" rx="260" ry="200" fill="url(#gRob)"/>

  <!-- Stars -->
  <circle cx="70" cy="70" r="1.5" fill="rgba(167,139,250,0.6)"/>
  <circle cx="180" cy="200" r="1" fill="rgba(167,139,250,0.4)"/>
  <circle cx="1100" cy="80" r="1.5" fill="rgba(96,165,250,0.5)"/>
  <circle cx="1160" cy="220" r="1" fill="rgba(167,139,250,0.4)"/>
  <circle cx="380" cy="580" r="1.2" fill="rgba(96,165,250,0.4)"/>

  <!-- Left: text content -->
  <rect x="48" y="48" width="88" height="26" rx="6" fill="rgba(167,139,250,0.1)" stroke="rgba(167,139,250,0.24)" stroke-width="1"/>
  <text x="92" y="65" text-anchor="middle" font-size="10" font-weight="700" fill="#a78bfa">TOOLNEST AI</text>

  <text x="48" y="124" font-size="13" font-weight="700" fill="#a78bfa" letter-spacing="1.5">AI BUSINESS NAME GENERATOR</text>
  <text x="48" y="190" font-size="58" font-weight="900" fill="url(#aG)" filter="url(#glow)" letter-spacing="-2">Find the</text>
  <text x="48" y="256" font-size="58" font-weight="900" fill="url(#aG)" filter="url(#glow)" letter-spacing="-2">Perfect</text>
  <text x="48" y="322" font-size="58" font-weight="900" fill="url(#aG)" filter="url(#glow)" letter-spacing="-2">Brand Name</text>

  <text x="48" y="368" font-size="17" fill="rgba(255,255,255,0.6)">Generate unique, memorable business names</text>
  <text x="48" y="390" font-size="17" fill="rgba(255,255,255,0.6)">with domain availability — free, in seconds.</text>

  <!-- Feature pills -->
  <g font-size="12" font-weight="600">
    <rect x="48" y="414" width="116" height="28" rx="8" fill="rgba(167,139,250,0.1)" stroke="rgba(167,139,250,0.24)" stroke-width="1"/>
    <text x="106" y="432" text-anchor="middle" fill="#a78bfa">✦ AI-Powered</text>
    <rect x="172" y="414" width="118" height="28" rx="8" fill="rgba(167,139,250,0.1)" stroke="rgba(167,139,250,0.24)" stroke-width="1"/>
    <text x="231" y="432" text-anchor="middle" fill="#a78bfa">🌐 Domain Check</text>
    <rect x="298" y="414" width="118" height="28" rx="8" fill="rgba(167,139,250,0.1)" stroke="rgba(167,139,250,0.24)" stroke-width="1"/>
    <text x="357" y="432" text-anchor="middle" fill="#a78bfa">🚀 For Startups</text>
    <rect x="424" y="414" width="110" height="28" rx="8" fill="rgba(34,197,94,0.1)" stroke="rgba(34,197,94,0.22)" stroke-width="1"/>
    <text x="479" y="432" text-anchor="middle" fill="#4ade80">⚡ 100% Free</text>
  </g>

  <!-- CTA -->
  <rect x="48" y="462" width="220" height="48" rx="14" fill="url(#bG)" filter="url(#sh)"/>
  <text x="158" y="491" text-anchor="middle" font-size="16" font-weight="700" fill="#fff">Generate Names ✦</text>

  <!-- Right: name results card -->
  <rect x="618" y="44" width="538" height="542" rx="18" fill="url(#pG)" stroke="rgba(124,58,237,0.3)" stroke-width="1.5" filter="url(#sh)"/>
  <!-- Chrome -->
  <rect x="618" y="44" width="538" height="38" rx="18" fill="rgba(124,58,237,0.16)"/>
  <rect x="618" y="70" width="538" height="12" fill="rgba(124,58,237,0.16)"/>
  <circle cx="642" cy="63" r="5" fill="rgba(255,80,80,0.45)"/>
  <circle cx="659" cy="63" r="5" fill="rgba(255,193,7,0.45)"/>
  <circle cx="676" cy="63" r="5" fill="rgba(34,197,94,0.45)"/>
  <text x="887" y="67" text-anchor="middle" font-size="10" fill="rgba(255,255,255,0.45)">✦ AI Business Name Generator</text>

  <!-- Form area -->
  <text x="638" y="106" font-size="10" font-weight="700" fill="rgba(255,255,255,0.5)">Business Information</text>
  <rect x="638" y="112" width="200" height="22" rx="6" fill="rgba(255,255,255,0.04)" stroke="rgba(255,255,255,0.09)" stroke-width="1"/>
  <text x="646" y="127" font-size="9" fill="rgba(255,255,255,0.45)">Online Store · Eco Products</text>
  <rect x="638" y="140" width="200" height="22" rx="6" fill="rgba(255,255,255,0.04)" stroke="rgba(255,255,255,0.09)" stroke-width="1"/>
  <text x="646" y="155" font-size="9" fill="rgba(255,255,255,0.45)">green, nature, sustainable</text>
  <rect x="638" y="168" width="200" height="28" rx="10" fill="url(#bG)" filter="url(#sh)"/>
  <text x="738" y="186" text-anchor="middle" font-size="11" font-weight="700" fill="#fff">✦ Generate Names</text>

  <!-- Divider -->
  <line x1="852" y1="88" x2="852" y2="548" stroke="rgba(255,255,255,0.05)" stroke-width="1"/>

  <!-- Results -->
  <text x="864" y="106" font-size="10" font-weight="700" fill="rgba(255,255,255,0.5)">Generated Business Names</text>
  <g font-size="10">
    <rect x="856" y="112" width="282" height="24" rx="6" fill="rgba(255,255,255,0.03)" stroke="rgba(255,255,255,0.06)" stroke-width="1"/>
    <text x="870" y="128" font-size="13" font-weight="800" fill="rgba(255,255,255,0.92)">Greenora</text>
    <text x="990" y="128" font-size="9" fill="rgba(255,255,255,0.35)">greenora.com</text>
    <rect x="1108" y="116" width="22" height="14" rx="4" fill="rgba(34,197,94,0.12)"/>
    <text x="1119" y="126" text-anchor="middle" font-size="7" font-weight="700" fill="#4ade80">✓</text>

    <rect x="856" y="142" width="282" height="24" rx="6" fill="rgba(255,255,255,0.03)" stroke="rgba(255,255,255,0.06)" stroke-width="1"/>
    <text x="870" y="158" font-size="13" font-weight="800" fill="rgba(255,255,255,0.92)">EcoVibe</text>
    <text x="990" y="158" font-size="9" fill="rgba(255,255,255,0.35)">ecovibe.com</text>
    <text x="1119" y="156" text-anchor="middle" font-size="7" font-weight="700" fill="#4ade80">✓</text>

    <rect x="856" y="172" width="282" height="24" rx="6" fill="rgba(255,255,255,0.03)" stroke="rgba(255,255,255,0.06)" stroke-width="1"/>
    <text x="870" y="188" font-size="13" font-weight="800" fill="rgba(255,255,255,0.92)">Naturli</text>
    <text x="990" y="188" font-size="9" fill="rgba(255,255,255,0.35)">naturli.com</text>
    <text x="1119" y="186" text-anchor="middle" font-size="7" font-weight="700" fill="#4ade80">✓</text>

    <rect x="856" y="202" width="282" height="24" rx="6" fill="rgba(255,255,255,0.03)" stroke="rgba(255,255,255,0.06)" stroke-width="1"/>
    <text x="870" y="218" font-size="13" font-weight="800" fill="rgba(255,255,255,0.92)">Earthlyy</text>
    <text x="990" y="218" font-size="9" fill="rgba(255,255,255,0.35)">earthlyy.com</text>
    <text x="1119" y="216" text-anchor="middle" font-size="7" font-weight="700" fill="#4ade80">✓</text>

    <rect x="856" y="232" width="282" height="24" rx="6" fill="rgba(255,255,255,0.03)" stroke="rgba(255,255,255,0.06)" stroke-width="1"/>
    <text x="870" y="248" font-size="13" font-weight="800" fill="rgba(255,255,255,0.92)">Sustaina</text>
    <text x="990" y="248" font-size="9" fill="rgba(255,255,255,0.35)">sustaina.com</text>
    <text x="1119" y="246" text-anchor="middle" font-size="7" font-weight="700" fill="#4ade80">✓</text>

    <rect x="856" y="262" width="282" height="24" rx="6" fill="rgba(255,255,255,0.03)" stroke="rgba(255,255,255,0.06)" stroke-width="1"/>
    <text x="870" y="278" font-size="13" font-weight="800" fill="rgba(255,255,255,0.92)">EcoNexa</text>
    <text x="990" y="278" font-size="9" fill="rgba(255,255,255,0.35)">econexa.com</text>
    <text x="1119" y="276" text-anchor="middle" font-size="7" font-weight="700" fill="#4ade80">✓</text>

    <rect x="856" y="292" width="282" height="24" rx="6" fill="rgba(255,255,255,0.03)" stroke="rgba(255,255,255,0.06)" stroke-width="1"/>
    <text x="870" y="308" font-size="13" font-weight="800" fill="rgba(255,255,255,0.92)">Pureterra</text>
    <text x="990" y="308" font-size="9" fill="rgba(255,255,255,0.35)">pureterra.com</text>
    <text x="1119" y="306" text-anchor="middle" font-size="7" font-weight="700" fill="#4ade80">✓</text>

    <rect x="856" y="322" width="282" height="24" rx="6" fill="rgba(255,255,255,0.03)" stroke="rgba(255,255,255,0.06)" stroke-width="1"/>
    <text x="870" y="338" font-size="13" font-weight="800" fill="rgba(255,255,255,0.92)">Verdantly</text>
    <text x="990" y="338" font-size="9" fill="rgba(255,255,255,0.35)">verdantly.com</text>
    <text x="1119" y="336" text-anchor="middle" font-size="7" font-weight="700" fill="#4ade80">✓</text>
  </g>

  <!-- Saved + tips in right panel -->
  <line x1="638" y1="210" x2="842" y2="210" stroke="rgba(255,255,255,0.05)" stroke-width="1"/>
  <text x="638" y="228" font-size="10" font-weight="700" fill="rgba(255,255,255,0.5)">Your Saved Names</text>
  <g font-size="9" fill="rgba(255,255,255,0.6)">
    <text x="644" y="244">💜 Greenora</text>
    <text x="644" y="260">💜 EcoVibe</text>
    <text x="644" y="276">💜 Naturli</text>
  </g>
  <line x1="638" y1="288" x2="842" y2="288" stroke="rgba(255,255,255,0.05)" stroke-width="1"/>
  <text x="638" y="306" font-size="10" font-weight="700" fill="rgba(255,255,255,0.5)">Domain Extensions</text>
  <g font-size="8" font-weight="700">
    <rect x="638" y="312" width="28" height="14" rx="3" fill="rgba(124,58,237,0.3)" stroke="rgba(167,139,250,0.3)" stroke-width="1"/>
    <text x="652" y="323" text-anchor="middle" fill="#a78bfa">.com</text>
    <rect x="670" y="312" width="24" height="14" rx="3" fill="rgba(124,58,237,0.14)" stroke="rgba(167,139,250,0.18)" stroke-width="1"/>
    <text x="682" y="323" text-anchor="middle" fill="#c4b5fd">.io</text>
    <rect x="698" y="312" width="20" height="14" rx="3" fill="rgba(124,58,237,0.14)" stroke="rgba(167,139,250,0.18)" stroke-width="1"/>
    <text x="708" y="323" text-anchor="middle" fill="#c4b5fd">.co</text>
    <rect x="722" y="312" width="22" height="14" rx="3" fill="rgba(124,58,237,0.14)" stroke="rgba(167,139,250,0.18)" stroke-width="1"/>
    <text x="733" y="323" text-anchor="middle" fill="#c4b5fd">.ai</text>
  </g>

  <!-- Robot -->
  <ellipse cx="738" cy="542" rx="56" ry="9" fill="rgba(124,58,237,0.3)" filter="url(#neon)"/>
  <!-- Body -->
  <rect x="706" y="464" width="64" height="72" rx="16" fill="url(#robG)" filter="url(#robGlow)"/>
  <rect x="713" y="474" width="50" height="30" rx="7" fill="url(#robFG)" stroke="rgba(167,139,250,0.3)" stroke-width="1"/>
  <text x="738" y="484" text-anchor="middle" font-size="7" fill="rgba(167,139,250,0.5)">A I</text>
  <text x="738" y="498" text-anchor="middle" font-size="16" font-weight="900" fill="url(#aG)" filter="url(#glow)">AI</text>
  <!-- Shoulders -->
  <rect x="694" y="472" width="14" height="42" rx="7" fill="url(#robG)"/>
  <rect x="768" y="472" width="14" height="42" rx="7" fill="url(#robG)"/>
  <circle cx="690" cy="516" r="7" fill="rgba(96,165,250,0.5)" filter="url(#neon)"/>
  <circle cx="786" cy="516" r="7" fill="rgba(167,139,250,0.5)" filter="url(#neon)"/>
  <!-- Neck -->
  <rect x="728" y="450" width="20" height="16" rx="5" fill="url(#robG)"/>
  <!-- Head -->
  <rect x="702" y="396" width="72" height="58" rx="16" fill="url(#robG)" filter="url(#robGlow)"/>
  <rect x="709" y="403" width="58" height="42" rx="11" fill="url(#robFG)" stroke="rgba(167,139,250,0.38)" stroke-width="1.5"/>
  <!-- Eyes -->
  <circle cx="725" cy="422" r="7" fill="rgba(124,58,237,0.4)" stroke="rgba(167,139,250,0.5)" stroke-width="1"/>
  <circle cx="751" cy="422" r="7" fill="rgba(124,58,237,0.4)" stroke="rgba(167,139,250,0.5)" stroke-width="1"/>
  <circle cx="725" cy="421" r="3.5" fill="url(#aG)" filter="url(#glow)"/>
  <circle cx="751" cy="421" r="3.5" fill="url(#aG)" filter="url(#glow)"/>
  <circle cx="726" cy="420" r="1.2" fill="#fff"/>
  <circle cx="752" cy="420" r="1.2" fill="#fff"/>
  <!-- Smile -->
  <path d="M 720 434 Q 738 443 756 434" stroke="url(#aG)" stroke-width="2" fill="none" stroke-linecap="round"/>
  <!-- Antenna -->
  <line x1="738" y1="396" x2="738" y2="382" stroke="rgba(167,139,250,0.5)" stroke-width="2"/>
  <circle cx="738" cy="378" r="4.5" fill="url(#bG)" filter="url(#neon)"/>
  <!-- Ears -->
  <circle cx="702" cy="421" r="6" fill="url(#robG)" stroke="rgba(167,139,250,0.3)" stroke-width="1"/>
  <circle cx="774" cy="421" r="6" fill="url(#robG)" stroke="rgba(167,139,250,0.3)" stroke-width="1"/>
  <!-- Chest LED -->
  <circle cx="738" cy="521" r="5" fill="rgba(96,165,250,0.7)" filter="url(#neon)"/>
  <circle cx="738" cy="521" r="2.5" fill="#60a5fa"/>

  <!-- Bottom domain -->
  <text x="600" y="610" text-anchor="middle" font-size="11" fill="rgba(255,255,255,0.2)">toolnestai.net · AI Business Name Generator · 100% Free · No Account Required</text>
</svg>
