<svg viewBox="0 0 1200 630" xmlns="http://www.w3.org/2000/svg" font-family="'Segoe UI',system-ui,sans-serif">
  <defs>
    <radialGradient id="bg" cx="50%" cy="50%" r="80%"><stop offset="0%" stop-color="#0a0118"/><stop offset="100%" stop-color="#05030d"/></radialGradient>
    <radialGradient id="gL" cx="15%" cy="50%" r="55%"><stop offset="0%" stop-color="#5b21b6" stop-opacity="0.38"/><stop offset="100%" stop-color="#5b21b6" stop-opacity="0"/></radialGradient>
    <radialGradient id="gR" cx="85%" cy="50%" r="50%"><stop offset="0%" stop-color="#2563eb" stop-opacity="0.22"/><stop offset="100%" stop-color="#2563eb" stop-opacity="0"/></radialGradient>
    <radialGradient id="gRob" cx="90%" cy="75%" r="30%"><stop offset="0%" stop-color="#7c3aed" stop-opacity="0.45"/><stop offset="100%" stop-color="#7c3aed" stop-opacity="0"/></radialGradient>
    <linearGradient id="aG" x1="0%" y1="0%" x2="100%" y2="0%"><stop offset="0%" stop-color="#a78bfa"/><stop offset="100%" stop-color="#60a5fa"/></linearGradient>
    <linearGradient id="bG" x1="0%" y1="0%" x2="100%" y2="0%"><stop offset="0%" stop-color="#7c3aed"/><stop offset="100%" stop-color="#4f46e5"/></linearGradient>
    <linearGradient id="robG" x1="0%" y1="0%" x2="100%" y2="100%"><stop offset="0%" stop-color="#7c3aed"/><stop offset="100%" stop-color="#4338ca"/></linearGradient>
    <linearGradient id="robFG" x1="0%" y1="0%" x2="100%" y2="100%"><stop offset="0%" stop-color="#1e1060"/><stop offset="100%" stop-color="#110a3a"/></linearGradient>
    <filter id="sh"><feDropShadow dx="0" dy="6" stdDeviation="18" flood-color="#5b21b6" flood-opacity="0.4"/></filter>
    <filter id="glow"><feGaussianBlur stdDeviation="3" result="b"/><feMerge><feMergeNode in="b"/><feMergeNode in="SourceGraphic"/></feMerge></filter>
    <filter id="neon"><feGaussianBlur stdDeviation="5" result="b"/><feMerge><feMergeNode in="b"/><feMergeNode in="SourceGraphic"/></feMerge></filter>
    <filter id="robGlow"><feGaussianBlur stdDeviation="7" result="b"/><feMerge><feMergeNode in="b"/><feMergeNode in="SourceGraphic"/></feMerge></filter>
  </defs>

  <rect width="1200" height="630" fill="url(#bg)"/>
  <ellipse cx="180" cy="315" rx="500" ry="420" fill="url(#gL)"/>
  <ellipse cx="1020" cy="315" rx="480" ry="400" fill="url(#gR)"/>
  <ellipse cx="1080" cy="500" rx="280" ry="200" fill="url(#gRob)"/>

  <!-- Stars -->
  <circle cx="90" cy="60" r="1.5" fill="rgba(167,139,250,0.6)"/>
  <circle cx="350" cy="30" r="1" fill="rgba(167,139,250,0.4)"/>
  <circle cx="1120" cy="80" r="1.2" fill="rgba(96,165,250,0.5)"/>
  <circle cx="50" cy="300" r="1" fill="rgba(167,139,250,0.3)"/>

  <!-- Logo -->
  <polygon points="44,58 54,42 68,42 78,58 68,74 54,74" fill="none" stroke="url(#aG)" stroke-width="2.5"/>
  <polygon points="48,58 56,46 66,46 74,58 66,70 56,70" fill="rgba(124,58,237,0.22)"/>
  <text x="88" y="54" font-size="14" font-weight="700" fill="rgba(255,255,255,0.9)">ToolNest AI</text>
  <text x="88" y="71" font-size="10" fill="rgba(255,255,255,0.38)">All-in-One AI &amp; Online Tools</text>

  <!-- Main headline -->
  <text x="44" y="162" font-size="62" font-weight="900" fill="url(#aG)" filter="url(#glow)" letter-spacing="-2">AI Cover Letter</text>
  <text x="44" y="234" font-size="62" font-weight="900" fill="url(#aG)" filter="url(#glow)" letter-spacing="-2">Generator</text>
  <text x="44" y="284" font-size="20" font-weight="700" fill="rgba(255,255,255,0.82)">Write a Professional Cover Letter in Minutes</text>
  <text x="44" y="316" font-size="13" fill="rgba(255,255,255,0.42)">Free · ATS-Optimised · Tailored to Every Job · 2026 Guide</text>

  <!-- Feature badges -->
  <g font-size="11" font-weight="600">
    <rect x="44" y="338" width="148" height="30" rx="8" fill="rgba(124,58,237,0.2)" stroke="rgba(167,139,250,0.3)" stroke-width="1"/>
    <text x="118" y="358" text-anchor="middle" fill="#a78bfa">✦ AI-Powered Writing</text>
    <rect x="202" y="338" width="148" height="30" rx="8" fill="rgba(124,58,237,0.2)" stroke="rgba(167,139,250,0.3)" stroke-width="1"/>
    <text x="276" y="358" text-anchor="middle" fill="#a78bfa">✅ ATS-Friendly</text>
    <rect x="360" y="338" width="148" height="30" rx="8" fill="rgba(124,58,237,0.2)" stroke="rgba(167,139,250,0.3)" stroke-width="1"/>
    <text x="434" y="358" text-anchor="middle" fill="#a78bfa">🎯 Personalized</text>
    <rect x="44" y="378" width="148" height="30" rx="8" fill="rgba(37,99,235,0.15)" stroke="rgba(96,165,250,0.25)" stroke-width="1"/>
    <text x="118" y="398" text-anchor="middle" fill="#93c5fd">🏢 Any Industry</text>
    <rect x="202" y="378" width="148" height="30" rx="8" fill="rgba(37,99,235,0.15)" stroke="rgba(96,165,250,0.25)" stroke-width="1"/>
    <text x="276" y="398" text-anchor="middle" fill="#93c5fd">⚡ Under 60 Seconds</text>
    <rect x="360" y="378" width="148" height="30" rx="8" fill="rgba(37,99,235,0.15)" stroke="rgba(96,165,250,0.25)" stroke-width="1"/>
    <text x="434" y="398" text-anchor="middle" fill="#93c5fd">📈 Land More Interviews</text>
  </g>

  <!-- CTA -->
  <rect x="44" y="424" width="248" height="48" rx="14" fill="url(#bG)" filter="url(#sh)"/>
  <text x="168" y="454" text-anchor="middle" font-size="16" font-weight="700" fill="#fff">Generate Free ✦</text>
  <text x="44" y="502" font-size="12" fill="rgba(255,255,255,0.3)">toolnestai.net · Free, no account required</text>

  <!-- ROBOT -->
  <ellipse cx="1080" cy="570" rx="80" ry="14" fill="rgba(124,58,237,0.3)" filter="url(#neon)"/>
  <ellipse cx="1080" cy="565" rx="60" ry="9" fill="rgba(167,139,250,0.16)"/>
  <!-- Body -->
  <rect x="1038" y="452" width="84" height="104" rx="22" fill="url(#robG)" filter="url(#robGlow)"/>
  <rect x="1048" y="464" width="64" height="42" rx="10" fill="url(#robFG)" stroke="rgba(167,139,250,0.3)" stroke-width="1.5"/>
  <text x="1080" y="476" text-anchor="middle" font-size="9" fill="rgba(167,139,250,0.55)">A I</text>
  <text x="1080" y="499" text-anchor="middle" font-size="22" font-weight="900" fill="url(#aG)" filter="url(#glow)">AI</text>
  <!-- Arms -->
  <rect x="1020" y="460" width="18" height="58" rx="9" fill="url(#robG)"/>
  <rect x="1102" y="460" width="18" height="58" rx="9" fill="url(#robG)"/>
  <circle cx="1017" cy="528" r="10" fill="rgba(96,165,250,0.4)" filter="url(#neon)"/>
  <circle cx="1123" cy="528" r="10" fill="rgba(167,139,250,0.4)" filter="url(#neon)"/>
  <!-- Chest LED -->
  <circle cx="1080" cy="528" r="7" fill="rgba(96,165,250,0.65)" filter="url(#neon)"/>
  <circle cx="1080" cy="528" r="3.5" fill="#60a5fa"/>
  <!-- Antenna -->
  <rect x="1070" y="432" width="20" height="22" rx="7" fill="url(#robG)"/>
  <!-- Head -->
  <rect x="1032" y="362" width="96" height="74" rx="22" fill="url(#robG)" filter="url(#robGlow)"/>
  <rect x="1042" y="372" width="76" height="54" rx="14" fill="url(#robFG)" stroke="rgba(167,139,250,0.4)" stroke-width="1.5"/>
  <!-- Eyes -->
  <circle cx="1064" cy="398" r="10" fill="rgba(124,58,237,0.4)" stroke="rgba(167,139,250,0.5)" stroke-width="1"/>
  <circle cx="1096" cy="398" r="10" fill="rgba(124,58,237,0.4)" stroke="rgba(167,139,250,0.5)" stroke-width="1"/>
  <circle cx="1064" cy="397" r="5" fill="url(#aG)" filter="url(#glow)"/>
  <circle cx="1096" cy="397" r="5" fill="url(#aG)" filter="url(#glow)"/>
  <circle cx="1065" cy="396" r="2" fill="#fff"/>
  <circle cx="1097" cy="396" r="2" fill="#fff"/>
  <!-- Smile -->
  <path d="M 1056 415 Q 1080 426 1104 415" stroke="url(#aG)" stroke-width="2.5" fill="none" stroke-linecap="round"/>
  <!-- Antenna tip -->
  <line x1="1080" y1="362" x2="1080" y2="342" stroke="rgba(167,139,250,0.5)" stroke-width="2"/>
  <circle cx="1080" cy="336" r="6" fill="url(#bG)" filter="url(#neon)"/>
  <!-- Ear bumps -->
  <circle cx="1030" cy="397" r="8" fill="url(#robG)" stroke="rgba(167,139,250,0.3)" stroke-width="1"/>
  <circle cx="1130" cy="397" r="8" fill="url(#robG)" stroke="rgba(167,139,250,0.3)" stroke-width="1"/>

  <!-- Decorative letter preview card -->
  <rect x="540" y="120" width="440" height="390" rx="16" fill="rgba(13,8,36,0.85)" stroke="rgba(124,58,237,0.28)" stroke-width="1.5" filter="url(#sh)"/>
  <rect x="540" y="120" width="440" height="38" rx="16" fill="rgba(124,58,237,0.14)"/>
  <rect x="540" y="146" width="440" height="12" fill="rgba(124,58,237,0.14)"/>
  <circle cx="562" cy="139" r="5" fill="rgba(255,80,80,0.4)"/>
  <circle cx="578" cy="139" r="5" fill="rgba(255,193,7,0.4)"/>
  <circle cx="594" cy="139" r="5" fill="rgba(34,197,94,0.4)"/>
  <text x="760" y="143" text-anchor="middle" font-size="11" font-weight="700" fill="rgba(255,255,255,0.55)">✦ Generated Cover Letter</text>
  <text x="562" y="184" font-size="11" font-weight="600" fill="rgba(255,255,255,0.75)">Dear Hiring Manager,</text>
  <text x="562" y="204" font-size="10" fill="rgba(255,255,255,0.5)">I am writing to express my interest in the Software</text>
  <text x="562" y="219" font-size="10" fill="rgba(255,255,255,0.5)">Developer position at TechNova Solutions. With a strong</text>
  <text x="562" y="234" font-size="10" fill="rgba(255,255,255,0.5)">background in full-stack development and a passion for</text>
  <text x="562" y="249" font-size="10" fill="rgba(255,255,255,0.5)">building scalable, user-friendly applications, I am</text>
  <text x="562" y="264" font-size="10" fill="rgba(255,255,255,0.5)">excited about the opportunity to contribute.</text>
  <text x="562" y="289" font-size="10" fill="rgba(255,255,255,0.5)">In my current role, I have developed and maintained</text>
  <text x="562" y="304" font-size="10" fill="rgba(255,255,255,0.5)">dynamic web applications using JavaScript, React and</text>
  <text x="562" y="319" font-size="10" fill="rgba(255,255,255,0.5)">Node.js, delivering measurable results for every team.</text>
  <text x="562" y="344" font-size="10" fill="rgba(255,255,255,0.5)">Thank you for your time. I look forward to discussing.</text>
  <text x="562" y="369" font-size="10" fill="rgba(255,255,255,0.55)">Sincerely,</text>
  <text x="562" y="385" font-size="10" font-weight="600" fill="rgba(255,255,255,0.7)">Emir Locic</text>
  <line x1="562" y1="398" x2="958" y2="398" stroke="rgba(255,255,255,0.06)" stroke-width="1"/>
  <g font-size="9" fill="rgba(255,255,255,0.35)">
    <text x="562" y="414">Words: 196</text>
    <text x="648" y="414">Reading Time: 45 sec</text>
    <text x="762" y="414">Tone:</text>
    <text x="790" y="414" font-weight="600" fill="#a78bfa">Professional</text>
    <text x="862" y="414">ATS: ✅ Pass</text>
  </g>
  <!-- ATS keyword pills -->
  <g font-size="8" font-weight="600">
    <rect x="562" y="422" width="74" height="13" rx="3" fill="rgba(124,58,237,0.2)" stroke="rgba(167,139,250,0.25)" stroke-width="1"/>
    <text x="599" y="432" text-anchor="middle" fill="#a78bfa">JavaScript</text>
    <rect x="640" y="422" width="46" height="13" rx="3" fill="rgba(124,58,237,0.2)" stroke="rgba(167,139,250,0.25)" stroke-width="1"/>
    <text x="663" y="432" text-anchor="middle" fill="#a78bfa">React</text>
    <rect x="690" y="422" width="50" height="13" rx="3" fill="rgba(124,58,237,0.2)" stroke="rgba(167,139,250,0.25)" stroke-width="1"/>
    <text x="715" y="432" text-anchor="middle" fill="#a78bfa">Node.js</text>
    <rect x="744" y="422" width="46" height="13" rx="3" fill="rgba(124,58,237,0.18)" stroke="rgba(167,139,250,0.2)" stroke-width="1"/>
    <text x="767" y="432" text-anchor="middle" fill="#c4b5fd">Python</text>
    <rect x="794" y="422" width="36" height="13" rx="3" fill="rgba(124,58,237,0.18)" stroke="rgba(167,139,250,0.2)" stroke-width="1"/>
    <text x="812" y="432" text-anchor="middle" fill="#c4b5fd">SQL</text>
  </g>

  <!-- Bottom bar -->
  <rect x="0" y="590" width="1200" height="40" fill="rgba(124,58,237,0.06)"/>
  <line x1="0" y1="590" x2="1200" y2="590" stroke="rgba(167,139,250,0.1)" stroke-width="1"/>
  <text x="600" y="614" text-anchor="middle" font-size="11" font-weight="600" fill="rgba(255,255,255,0.4)">toolnestai.net — Free AI Cover Letter Generator · ATS-Optimised · Professional · No Account Required</text>
</svg>
