<svg viewBox="0 0 1200 500" xmlns="http://www.w3.org/2000/svg" font-family="'Segoe UI',system-ui,sans-serif">
  <defs>
    <radialGradient id="bg" cx="50%" cy="50%" r="75%"><stop offset="0%" stop-color="#0a0618"/><stop offset="100%" stop-color="#07070f"/></radialGradient>
    <radialGradient id="gL" cx="20%" cy="50%" r="55%"><stop offset="0%" stop-color="#5b21b6" stop-opacity="0.3"/><stop offset="100%" stop-color="#5b21b6" stop-opacity="0"/></radialGradient>
    <radialGradient id="gR" cx="80%" cy="50%" r="55%"><stop offset="0%" stop-color="#2563eb" stop-opacity="0.2"/><stop offset="100%" stop-color="#2563eb" stop-opacity="0"/></radialGradient>
    <linearGradient id="aG" x1="0%" y1="0%" x2="100%" y2="0%"><stop offset="0%" stop-color="#a78bfa"/><stop offset="100%" stop-color="#60a5fa"/></linearGradient>
    <linearGradient id="bG" x1="0%" y1="0%" x2="100%" y2="0%"><stop offset="0%" stop-color="#7c3aed"/><stop offset="100%" stop-color="#4f46e5"/></linearGradient>
    <linearGradient id="pG" x1="0%" y1="0%" x2="100%" y2="100%"><stop offset="0%" stop-color="#130b2e" stop-opacity="0.97"/><stop offset="100%" stop-color="#0c0820" stop-opacity="0.97"/></linearGradient>
    <filter id="sh"><feDropShadow dx="0" dy="8" stdDeviation="16" flood-color="#5b21b6" flood-opacity="0.32"/></filter>
  </defs>
  <rect width="1200" height="500" fill="url(#bg)"/>
  <ellipse cx="300" cy="250" rx="500" ry="380" fill="url(#gL)"/>
  <ellipse cx="900" cy="250" rx="500" ry="380" fill="url(#gR)"/>

  <text x="600" y="44" text-anchor="middle" font-size="13" font-weight="600" fill="#a78bfa" letter-spacing="2">MODEL COMPARISON</text>
  <text x="600" y="80" text-anchor="middle" font-size="29" font-weight="800" fill="url(#aG)">Top AI Chatbot Models in 2026</text>
  <text x="600" y="108" text-anchor="middle" font-size="13" fill="rgba(255,255,255,0.4)">ChatGPT, Claude, Gemini — all in one place with ToolNest AI Chat</text>

  <!-- ChatGPT card -->
  <rect x="38" y="128" width="268" height="342" rx="16" fill="url(#pG)" stroke="rgba(16,185,129,0.25)" stroke-width="1.5" filter="url(#sh)"/>
  <rect x="38" y="128" width="268" height="5" rx="2.5" fill="rgba(16,185,129,0.6)"/>
  <rect x="58" y="148" width="48" height="48" rx="12" fill="rgba(16,185,129,0.12)" stroke="rgba(16,185,129,0.25)" stroke-width="1"/>
  <text x="82" y="178" text-anchor="middle" font-size="24">⊕</text>
  <text x="118" y="165" font-size="16" font-weight="800" fill="#fff">ChatGPT</text>
  <text x="118" y="183" font-size="11" fill="rgba(16,185,129,0.7)">by OpenAI</text>
  <line x1="58" y1="206" x2="286" y2="206" stroke="rgba(255,255,255,0.06)" stroke-width="1"/>
  <g font-size="11" fill="rgba(255,255,255,0.55)">
    <text x="58" y="228" font-weight="600" fill="rgba(255,255,255,0.75)">Best Models</text>
    <text x="58" y="246">GPT-4o, GPT-4o mini</text>
    <text x="58" y="270" font-weight="600" fill="rgba(255,255,255,0.75)">Strengths</text>
    <text x="58" y="288">Coding, reasoning, image gen</text>
    <text x="58" y="306">Plugins &amp; web browsing</text>
    <text x="58" y="330" font-weight="600" fill="rgba(255,255,255,0.75)">Limitations</text>
    <text x="58" y="348">Knowledge cutoff per model</text>
    <text x="58" y="366">Paid plan for best access</text>
    <text x="58" y="390" font-weight="600" fill="rgba(255,255,255,0.75)">Free tier</text>
    <text x="58" y="408">Yes — limited GPT-4o</text>
  </g>
  <rect x="58" y="432" width="228" height="28" rx="8" fill="rgba(16,185,129,0.1)" stroke="rgba(16,185,129,0.2)" stroke-width="1"/>
  <text x="172" y="449" text-anchor="middle" font-size="10" fill="rgba(16,185,129,0.8)">Available in ToolNest AI Chat ✓</text>

  <!-- Claude card -->
  <rect x="324" y="128" width="268" height="342" rx="16" fill="url(#pG)" stroke="rgba(251,146,60,0.22)" stroke-width="1.5" filter="url(#sh)"/>
  <rect x="324" y="128" width="268" height="5" rx="2.5" fill="rgba(251,146,60,0.6)"/>
  <rect x="344" y="148" width="48" height="48" rx="12" fill="rgba(251,146,60,0.1)" stroke="rgba(251,146,60,0.22)" stroke-width="1"/>
  <text x="368" y="178" text-anchor="middle" font-size="24">◈</text>
  <text x="404" y="165" font-size="16" font-weight="800" fill="#fff">Claude</text>
  <text x="404" y="183" font-size="11" fill="rgba(251,146,60,0.7)">by Anthropic</text>
  <line x1="344" y1="206" x2="572" y2="206" stroke="rgba(255,255,255,0.06)" stroke-width="1"/>
  <g font-size="11" fill="rgba(255,255,255,0.55)">
    <text x="344" y="228" font-weight="600" fill="rgba(255,255,255,0.75)">Best Models</text>
    <text x="344" y="246">Claude Sonnet 4.6, Opus 4.8</text>
    <text x="344" y="270" font-weight="600" fill="rgba(255,255,255,0.75)">Strengths</text>
    <text x="344" y="288">Long context, safety, writing</text>
    <text x="344" y="306">200k token context window</text>
    <text x="344" y="330" font-weight="600" fill="rgba(255,255,255,0.75)">Limitations</text>
    <text x="344" y="348">No image generation</text>
    <text x="344" y="366">Limited free messages/day</text>
    <text x="344" y="390" font-weight="600" fill="rgba(255,255,255,0.75)">Free tier</text>
    <text x="344" y="408">Yes — Claude Sonnet 4.6</text>
  </g>
  <rect x="344" y="432" width="228" height="28" rx="8" fill="rgba(251,146,60,0.08)" stroke="rgba(251,146,60,0.18)" stroke-width="1"/>
  <text x="458" y="449" text-anchor="middle" font-size="10" fill="rgba(251,146,60,0.8)">Available in ToolNest AI Chat ✓</text>

  <!-- Gemini card -->
  <rect x="610" y="128" width="268" height="342" rx="16" fill="url(#pG)" stroke="rgba(96,165,250,0.2)" stroke-width="1.5" filter="url(#sh)"/>
  <rect x="610" y="128" width="268" height="5" rx="2.5" fill="rgba(96,165,250,0.55)"/>
  <rect x="630" y="148" width="48" height="48" rx="12" fill="rgba(96,165,250,0.1)" stroke="rgba(96,165,250,0.2)" stroke-width="1"/>
  <text x="654" y="178" text-anchor="middle" font-size="24">✦</text>
  <text x="690" y="165" font-size="16" font-weight="800" fill="#fff">Gemini</text>
  <text x="690" y="183" font-size="11" fill="rgba(96,165,250,0.7)">by Google</text>
  <line x1="630" y1="206" x2="858" y2="206" stroke="rgba(255,255,255,0.06)" stroke-width="1"/>
  <g font-size="11" fill="rgba(255,255,255,0.55)">
    <text x="630" y="228" font-weight="600" fill="rgba(255,255,255,0.75)">Best Models</text>
    <text x="630" y="246">Gemini 2.0 Flash, Ultra</text>
    <text x="630" y="270" font-weight="600" fill="rgba(255,255,255,0.75)">Strengths</text>
    <text x="630" y="288">Multimodal, Google Search</text>
    <text x="630" y="306">Integration with Google apps</text>
    <text x="630" y="330" font-weight="600" fill="rgba(255,255,255,0.75)">Limitations</text>
    <text x="630" y="348">Less coding than GPT-4o</text>
    <text x="630" y="366">Ultra model requires paid plan</text>
    <text x="630" y="390" font-weight="600" fill="rgba(255,255,255,0.75)">Free tier</text>
    <text x="630" y="408">Yes — Gemini 2.0 Flash</text>
  </g>
  <rect x="630" y="432" width="228" height="28" rx="8" fill="rgba(96,165,250,0.08)" stroke="rgba(96,165,250,0.16)" stroke-width="1"/>
  <text x="744" y="449" text-anchor="middle" font-size="10" fill="rgba(96,165,250,0.8)">Available in ToolNest AI Chat ✓</text>

  <!-- ToolNest AI Chat card (highlighted) -->
  <rect x="896" y="128" width="268" height="342" rx="16" fill="url(#pG)" stroke="rgba(167,139,250,0.45)" stroke-width="2" filter="url(#sh)"/>
  <rect x="896" y="128" width="268" height="5" rx="2.5" fill="url(#aG)"/>
  <rect x="916" y="148" width="48" height="48" rx="12" fill="url(#bG)"/>
  <text x="940" y="178" text-anchor="middle" font-size="22" fill="#fff">💬</text>
  <text x="976" y="162" font-size="15" font-weight="800" fill="#fff">ToolNest AI</text>
  <text x="976" y="179" font-size="11" fill="#a78bfa">Chat — All Models</text>
  <rect x="916" y="188" width="72" height="18" rx="9" fill="rgba(167,139,250,0.25)" stroke="rgba(167,139,250,0.45)" stroke-width="1"/>
  <text x="952" y="200" text-anchor="middle" font-size="9" font-weight="700" fill="#c4b5fd">★ BEST CHOICE</text>
  <line x1="916" y1="216" x2="1144" y2="216" stroke="rgba(255,255,255,0.06)" stroke-width="1"/>
  <g font-size="11" fill="rgba(255,255,255,0.55)">
    <text x="916" y="238" font-weight="600" fill="rgba(255,255,255,0.75)">Models Included</text>
    <text x="916" y="256">GPT-4o + Claude + Gemini</text>
    <text x="916" y="280" font-weight="600" fill="rgba(255,255,255,0.75)">Strengths</text>
    <text x="916" y="298" fill="#a78bfa">All top models in one place</text>
    <text x="916" y="316" fill="#a78bfa">No switching accounts needed</text>
    <text x="916" y="340" font-weight="600" fill="rgba(255,255,255,0.75)">Extra Features</text>
    <text x="916" y="358">Upload &amp; ask (PDFs, images)</text>
    <text x="916" y="376">Secure &amp; private chats</text>
    <text x="916" y="400" font-weight="600" fill="rgba(255,255,255,0.75)">Free tier</text>
    <text x="916" y="418" fill="#4ade80">Yes — 100% free to start</text>
  </g>
  <rect x="916" y="438" width="228" height="28" rx="8" fill="url(#bG)"/>
  <text x="1030" y="455" text-anchor="middle" font-size="10" font-weight="700" fill="#fff">Try Free Now ✦</text>
</svg>
