<svg viewBox="0 0 1200 675" xmlns="http://www.w3.org/2000/svg" font-family="'Segoe UI',system-ui,sans-serif">
  <defs>
    <radialGradient id="bg" cx="50%" cy="50%" r="80%"><stop offset="0%" stop-color="#0a0118"/><stop offset="100%" stop-color="#05030d"/></radialGradient>
    <radialGradient id="gL" cx="12%" cy="50%" r="55%"><stop offset="0%" stop-color="#5b21b6" stop-opacity="0.32"/><stop offset="100%" stop-color="#5b21b6" stop-opacity="0"/></radialGradient>
    <radialGradient id="gR" cx="88%" cy="50%" r="50%"><stop offset="0%" stop-color="#2563eb" stop-opacity="0.2"/><stop offset="100%" stop-color="#2563eb" stop-opacity="0"/></radialGradient>
    <linearGradient id="aG" x1="0%" y1="0%" x2="100%" y2="0%"><stop offset="0%" stop-color="#a78bfa"/><stop offset="100%" stop-color="#60a5fa"/></linearGradient>
    <linearGradient id="bG" x1="0%" y1="0%" x2="100%" y2="0%"><stop offset="0%" stop-color="#7c3aed"/><stop offset="100%" stop-color="#4f46e5"/></linearGradient>
    <linearGradient id="pG" x1="0%" y1="0%" x2="100%" y2="100%"><stop offset="0%" stop-color="#130b2e" stop-opacity="0.97"/><stop offset="100%" stop-color="#0c0820" stop-opacity="0.97"/></linearGradient>
    <linearGradient id="lapG" x1="0%" y1="0%" x2="100%" y2="100%"><stop offset="0%" stop-color="#1a1040"/><stop offset="100%" stop-color="#0d0824"/></linearGradient>
    <filter id="sh"><feDropShadow dx="0" dy="6" stdDeviation="16" flood-color="#5b21b6" flood-opacity="0.35"/></filter>
    <filter id="shSm"><feDropShadow dx="0" dy="3" stdDeviation="8" flood-color="#5b21b6" flood-opacity="0.3"/></filter>
    <filter id="glow"><feGaussianBlur stdDeviation="3" result="b"/><feMerge><feMergeNode in="b"/><feMergeNode in="SourceGraphic"/></feMerge></filter>
    <filter id="neon"><feGaussianBlur stdDeviation="5" result="b"/><feMerge><feMergeNode in="b"/><feMergeNode in="SourceGraphic"/></feMerge></filter>
  </defs>

  <rect width="1200" height="675" fill="url(#bg)"/>
  <ellipse cx="150" cy="337" rx="480" ry="420" fill="url(#gL)"/>
  <ellipse cx="1050" cy="337" rx="460" ry="400" fill="url(#gR)"/>
  <circle cx="80" cy="75" r="1.5" fill="rgba(167,139,250,0.5)"/>
  <circle cx="1100" cy="100" r="1.5" fill="rgba(96,165,250,0.5)"/>

  <!-- Top pills -->
  <g text-anchor="middle" font-size="9" fill="rgba(255,255,255,0.38)">
    <rect x="420" y="16" width="94" height="52" rx="10" fill="rgba(167,139,250,0.06)" stroke="rgba(167,139,250,0.18)" stroke-width="1"/>
    <text x="467" y="38" font-size="16">✏️</text><text x="467" y="58">AI Writing</text>
    <rect x="522" y="16" width="94" height="52" rx="10" fill="rgba(167,139,250,0.06)" stroke="rgba(167,139,250,0.18)" stroke-width="1"/>
    <text x="569" y="38" font-size="16">✅</text><text x="569" y="58">ATS Friendly</text>
    <rect x="624" y="16" width="96" height="52" rx="10" fill="rgba(167,139,250,0.06)" stroke="rgba(167,139,250,0.18)" stroke-width="1"/>
    <text x="672" y="38" font-size="16">👤</text><text x="672" y="58">Personalized</text>
    <rect x="728" y="16" width="96" height="52" rx="10" fill="rgba(167,139,250,0.06)" stroke="rgba(167,139,250,0.18)" stroke-width="1"/>
    <text x="776" y="38" font-size="16">🏢</text><text x="776" y="58">Any Industry</text>
    <rect x="832" y="16" width="90" height="52" rx="10" fill="rgba(167,139,250,0.06)" stroke="rgba(167,139,250,0.18)" stroke-width="1"/>
    <text x="877" y="38" font-size="16">⏱</text><text x="877" y="58">Save Time</text>
    <rect x="930" y="16" width="108" height="52" rx="10" fill="rgba(167,139,250,0.06)" stroke="rgba(167,139,250,0.18)" stroke-width="1"/>
    <text x="984" y="38" font-size="16">📈</text><text x="984" y="58">Boost Interviews</text>
  </g>

  <!-- Left panel -->
  <text x="32" y="112" font-size="10" font-weight="700" fill="#a78bfa" letter-spacing="1.2">AI COVER LETTER GENERATOR</text>
  <text x="32" y="164" font-size="44" font-weight="900" fill="url(#aG)" filter="url(#glow)" letter-spacing="-1.5">AI Cover Letter</text>
  <text x="32" y="216" font-size="44" font-weight="900" fill="url(#aG)" filter="url(#glow)" letter-spacing="-1.5">Generator</text>
  <text x="32" y="254" font-size="17" font-weight="700" fill="rgba(255,255,255,0.85)">Write a Professional Cover Letter in Minutes</text>
  <text x="32" y="280" font-size="12" fill="rgba(255,255,255,0.42)">Create personalized, job-winning cover letters with AI.</text>
  <text x="32" y="296" font-size="12" fill="rgba(255,255,255,0.42)">Stand out, pass ATS and land more interviews.</text>

  <g font-size="11">
    <rect x="32" y="314" width="20" height="20" rx="5" fill="rgba(124,58,237,0.2)" stroke="rgba(167,139,250,0.28)" stroke-width="1"/>
    <text x="42" y="328" text-anchor="middle" font-size="10">✦</text>
    <text x="58" y="327" font-weight="600" fill="rgba(255,255,255,0.8)">AI-Powered Writing</text>
    <text x="58" y="341" font-size="10" fill="rgba(255,255,255,0.35)">Personalized cover letters in seconds</text>
    <rect x="32" y="352" width="20" height="20" rx="5" fill="rgba(124,58,237,0.2)" stroke="rgba(167,139,250,0.28)" stroke-width="1"/>
    <text x="42" y="366" text-anchor="middle" font-size="10">🎯</text>
    <text x="58" y="365" font-weight="600" fill="rgba(255,255,255,0.8)">Tailored to Every Job</text>
    <text x="58" y="379" font-size="10" fill="rgba(255,255,255,0.35)">Any role, industry and experience level</text>
    <rect x="32" y="390" width="20" height="20" rx="5" fill="rgba(124,58,237,0.2)" stroke="rgba(167,139,250,0.28)" stroke-width="1"/>
    <text x="42" y="404" text-anchor="middle" font-size="10">📄</text>
    <text x="58" y="403" font-weight="600" fill="rgba(255,255,255,0.8)">Professional &amp; ATS-Friendly</text>
    <text x="58" y="417" font-size="10" fill="rgba(255,255,255,0.35)">Keyword-rich, passes scanners</text>
    <rect x="32" y="428" width="20" height="20" rx="5" fill="rgba(34,197,94,0.1)" stroke="rgba(34,197,94,0.22)" stroke-width="1"/>
    <text x="42" y="442" text-anchor="middle" font-size="10">⚡</text>
    <text x="58" y="441" font-weight="600" fill="rgba(255,255,255,0.8)">Get Hired Faster</text>
    <text x="58" y="455" font-size="10" fill="rgba(255,255,255,0.35)">Focus on prep, not on writing</text>
  </g>

  <!-- CTA -->
  <rect x="32" y="474" width="200" height="40" rx="12" fill="url(#bG)" filter="url(#sh)"/>
  <text x="132" y="499" text-anchor="middle" font-size="13" font-weight="700" fill="#fff">Generate Letter ✦</text>
  <rect x="242" y="474" width="148" height="40" rx="12" fill="rgba(167,139,250,0.1)" stroke="rgba(167,139,250,0.24)" stroke-width="1"/>
  <text x="316" y="499" text-anchor="middle" font-size="12" fill="#a78bfa">See Examples</text>

  <!-- RIGHT: Laptop -->
  <rect x="418" y="88" width="752" height="510" rx="18" fill="url(#lapG)" stroke="rgba(124,58,237,0.3)" stroke-width="1.5" filter="url(#sh)"/>
  <rect x="430" y="100" width="728" height="486" rx="12" fill="#080518"/>
  <rect x="378" y="596" width="834" height="16" rx="5" fill="rgba(20,12,50,0.7)" stroke="rgba(124,58,237,0.2)" stroke-width="1"/>
  <rect x="368" y="610" width="854" height="7" rx="3" fill="rgba(12,7,30,0.5)"/>
  <ellipse cx="795" cy="618" rx="362" ry="10" fill="rgba(124,58,237,0.2)" filter="url(#neon)"/>

  <!-- Chrome -->
  <rect x="430" y="100" width="728" height="36" rx="12" fill="rgba(124,58,237,0.13)"/>
  <rect x="430" y="126" width="728" height="10" fill="rgba(124,58,237,0.13)"/>
  <circle cx="452" cy="118" r="5" fill="rgba(255,80,80,0.45)"/>
  <circle cx="468" cy="118" r="5" fill="rgba(255,193,7,0.45)"/>
  <circle cx="484" cy="118" r="5" fill="rgba(34,197,94,0.45)"/>
  <text x="600" y="122" font-size="11" font-weight="700" fill="rgba(255,255,255,0.6)">✦ AI Cover Letter Generator</text>
  <rect x="1082" y="107" width="64" height="18" rx="5" fill="rgba(124,58,237,0.22)" stroke="rgba(167,139,250,0.3)" stroke-width="1"/>
  <text x="1114" y="119" text-anchor="middle" font-size="7.5" fill="#a78bfa">Powered by AI ✦</text>

  <!-- Left form -->
  <text x="448" y="158" font-size="10" font-weight="700" fill="rgba(255,255,255,0.55)">Your Information</text>
  <text x="448" y="174" font-size="9" fill="rgba(255,255,255,0.38)">Full Name</text>
  <rect x="448" y="178" width="210" height="22" rx="6" fill="rgba(255,255,255,0.04)" stroke="rgba(255,255,255,0.09)" stroke-width="1"/>
  <text x="456" y="193" font-size="9" fill="rgba(255,255,255,0.5)">Emir Locic</text>
  <text x="448" y="212" font-size="9" fill="rgba(255,255,255,0.38)">Email</text>
  <rect x="448" y="216" width="210" height="22" rx="6" fill="rgba(255,255,255,0.04)" stroke="rgba(255,255,255,0.09)" stroke-width="1"/>
  <text x="456" y="231" font-size="9" fill="rgba(255,255,255,0.5)">emir.locic@email.com</text>
  <text x="448" y="250" font-size="9" fill="rgba(255,255,255,0.38)">Phone</text>
  <rect x="448" y="254" width="210" height="22" rx="6" fill="rgba(255,255,255,0.04)" stroke="rgba(255,255,255,0.09)" stroke-width="1"/>
  <text x="456" y="269" font-size="9" fill="rgba(255,255,255,0.5)">+387 61 123 456</text>
  <text x="448" y="288" font-size="9" fill="rgba(255,255,255,0.38)">LinkedIn (Optional)</text>
  <rect x="448" y="292" width="210" height="22" rx="6" fill="rgba(255,255,255,0.04)" stroke="rgba(255,255,255,0.09)" stroke-width="1"/>
  <text x="456" y="307" font-size="9" fill="rgba(255,255,255,0.5)">linkedin.com/in/emirlocic</text>
  <line x1="448" y1="322" x2="650" y2="322" stroke="rgba(255,255,255,0.06)" stroke-width="1"/>
  <text x="448" y="338" font-size="10" font-weight="700" fill="rgba(255,255,255,0.55)">Job Information</text>
  <text x="448" y="354" font-size="9" fill="rgba(255,255,255,0.38)">Job Title</text>
  <rect x="448" y="358" width="210" height="22" rx="6" fill="rgba(255,255,255,0.04)" stroke="rgba(255,255,255,0.09)" stroke-width="1"/>
  <text x="456" y="373" font-size="9" fill="rgba(255,255,255,0.5)">Software Developer</text>
  <text x="448" y="392" font-size="9" fill="rgba(255,255,255,0.38)">Company Name</text>
  <rect x="448" y="396" width="210" height="22" rx="6" fill="rgba(255,255,255,0.04)" stroke="rgba(255,255,255,0.09)" stroke-width="1"/>
  <text x="456" y="411" font-size="9" fill="rgba(255,255,255,0.5)">TechNova Solutions</text>
  <text x="448" y="430" font-size="9" fill="rgba(255,255,255,0.38)">Industry</text>
  <rect x="448" y="434" width="210" height="22" rx="6" fill="rgba(255,255,255,0.04)" stroke="rgba(255,255,255,0.09)" stroke-width="1"/>
  <text x="456" y="449" font-size="9" fill="rgba(255,255,255,0.5)">Technology</text>
  <text x="448" y="468" font-size="9" fill="rgba(255,255,255,0.38)">Key Skills</text>
  <rect x="448" y="472" width="210" height="22" rx="6" fill="rgba(255,255,255,0.04)" stroke="rgba(255,255,255,0.09)" stroke-width="1"/>
  <text x="456" y="487" font-size="9" fill="rgba(255,255,255,0.5)">JavaScript, React, Node.js, Python, SQL</text>
  <rect x="448" y="506" width="210" height="30" rx="10" fill="url(#bG)" filter="url(#sh)"/>
  <text x="553" y="525" text-anchor="middle" font-size="12" font-weight="700" fill="#fff">✦ Generate Cover Letter</text>

  <!-- Divider -->
  <line x1="670" y1="148" x2="670" y2="565" stroke="rgba(255,255,255,0.05)" stroke-width="1"/>

  <!-- Right output -->
  <text x="682" y="158" font-size="10" font-weight="700" fill="rgba(255,255,255,0.55)">Generated Cover Letter</text>
  <rect x="1090" y="147" width="56" height="20" rx="5" fill="rgba(255,255,255,0.06)" stroke="rgba(255,255,255,0.09)" stroke-width="1"/>
  <text x="1118" y="160" text-anchor="middle" font-size="9" fill="rgba(255,255,255,0.4)">📋 Copy</text>
  <text x="682" y="180" font-size="10" font-weight="600" fill="rgba(255,255,255,0.75)">Dear Hiring Manager,</text>
  <text x="682" y="198" font-size="9" fill="rgba(255,255,255,0.5)">I am writing to express my interest in the Software Developer position at TechNova</text>
  <text x="682" y="211" font-size="9" fill="rgba(255,255,255,0.5)">Solutions. With a strong background in full-stack development and a passion for building</text>
  <text x="682" y="224" font-size="9" fill="rgba(255,255,255,0.5)">scalable, user-friendly applications, I am excited about the opportunity to contribute.</text>
  <text x="682" y="244" font-size="9" fill="rgba(255,255,255,0.5)">In my current role, I have developed and maintained dynamic web applications using</text>
  <text x="682" y="257" font-size="9" fill="rgba(255,255,255,0.5)">JavaScript, React, Node.js, and SQL. I enjoy solving complex problems, collaborating</text>
  <text x="682" y="270" font-size="9" fill="rgba(255,255,255,0.5)">with cross-functional teams, and delivering high-quality solutions.</text>
  <text x="682" y="290" font-size="9" fill="rgba(255,255,255,0.5)">I am particularly drawn to TechNova Solutions because of your commitment to</text>
  <text x="682" y="303" font-size="9" fill="rgba(255,255,255,0.5)">innovation. I am confident my skills align well with your needs.</text>
  <text x="682" y="323" font-size="9" fill="rgba(255,255,255,0.5)">Thank you for considering my application. I look forward to discussing how I can</text>
  <text x="682" y="336" font-size="9" fill="rgba(255,255,255,0.5)">contribute to your continued success.</text>
  <text x="682" y="356" font-size="9" fill="rgba(255,255,255,0.55)">Sincerely,</text>
  <text x="682" y="370" font-size="9" font-weight="600" fill="rgba(255,255,255,0.7)">Emir Locic</text>
  <line x1="682" y1="384" x2="1148" y2="384" stroke="rgba(255,255,255,0.06)" stroke-width="1"/>
  <text x="682" y="400" font-size="9" fill="rgba(255,255,255,0.35)">Words: 196</text>
  <line x1="748" y1="392" x2="748" y2="406" stroke="rgba(255,255,255,0.08)" stroke-width="1"/>
  <text x="762" y="400" font-size="9" fill="rgba(255,255,255,0.35)">Reading Time: 45 sec</text>
  <line x1="870" y1="392" x2="870" y2="406" stroke="rgba(255,255,255,0.08)" stroke-width="1"/>
  <text x="884" y="400" font-size="9" fill="rgba(255,255,255,0.35)">Tone:</text>
  <text x="912" y="400" font-size="9" font-weight="600" fill="#a78bfa">Professional</text>

  <!-- ATS tags -->
  <text x="682" y="424" font-size="9" fill="rgba(255,255,255,0.35)">ATS Keywords detected:</text>
  <g font-size="8" font-weight="600">
    <rect x="682" y="430" width="80" height="14" rx="3" fill="rgba(124,58,237,0.2)" stroke="rgba(167,139,250,0.28)" stroke-width="1"/>
    <text x="722" y="440" text-anchor="middle" fill="#a78bfa">JavaScript</text>
    <rect x="766" y="430" width="48" height="14" rx="3" fill="rgba(124,58,237,0.2)" stroke="rgba(167,139,250,0.28)" stroke-width="1"/>
    <text x="790" y="440" text-anchor="middle" fill="#a78bfa">React</text>
    <rect x="818" y="430" width="52" height="14" rx="3" fill="rgba(124,58,237,0.2)" stroke="rgba(167,139,250,0.28)" stroke-width="1"/>
    <text x="844" y="440" text-anchor="middle" fill="#a78bfa">Node.js</text>
    <rect x="874" y="430" width="48" height="14" rx="3" fill="rgba(124,58,237,0.18)" stroke="rgba(167,139,250,0.22)" stroke-width="1"/>
    <text x="898" y="440" text-anchor="middle" fill="#c4b5fd">Python</text>
    <rect x="926" y="430" width="36" height="14" rx="3" fill="rgba(124,58,237,0.18)" stroke="rgba(167,139,250,0.22)" stroke-width="1"/>
    <text x="944" y="440" text-anchor="middle" fill="#c4b5fd">SQL</text>
  </g>

  <!-- Bottom stats -->
  <rect x="0" y="638" width="1200" height="37" fill="rgba(124,58,237,0.05)"/>
  <line x1="0" y1="638" x2="1200" y2="638" stroke="rgba(167,139,250,0.09)" stroke-width="1"/>
  <g text-anchor="middle" font-size="9" fill="rgba(255,255,255,0.35)">
    <text x="100" y="657">📄 Professional Templates</text>
    <line x1="200" y1="641" x2="200" y2="671" stroke="rgba(255,255,255,0.05)" stroke-width="1"/>
    <text x="300" y="657">✅ ATS Optimization</text>
    <line x1="400" y1="641" x2="400" y2="671" stroke="rgba(255,255,255,0.05)" stroke-width="1"/>
    <text x="500" y="657">👤 Personalized for You</text>
    <line x1="600" y1="641" x2="600" y2="671" stroke="rgba(255,255,255,0.05)" stroke-width="1"/>
    <text x="700" y="657">🏢 Any Industry</text>
    <line x1="800" y1="641" x2="800" y2="671" stroke="rgba(255,255,255,0.05)" stroke-width="1"/>
    <text x="900" y="657">⏱ Save Hours</text>
    <line x1="1000" y1="641" x2="1000" y2="671" stroke="rgba(255,255,255,0.05)" stroke-width="1"/>
    <text x="1100" y="657">📈 Land More Interviews</text>
  </g>
</svg>
