<svg viewBox="0 0 1200 500" xmlns="http://www.w3.org/2000/svg" font-family="'Segoe UI',system-ui,sans-serif">
  <defs>
    <radialGradient id="bg" cx="50%" cy="50%" r="75%"><stop offset="0%" stop-color="#0a0618"/><stop offset="100%" stop-color="#07070f"/></radialGradient>
    <radialGradient id="gL" cx="25%" cy="50%" r="55%"><stop offset="0%" stop-color="#5b21b6" stop-opacity="0.28"/><stop offset="100%" stop-color="#5b21b6" stop-opacity="0"/></radialGradient>
    <radialGradient id="gR" cx="75%" cy="50%" r="55%"><stop offset="0%" stop-color="#2563eb" stop-opacity="0.18"/><stop offset="100%" stop-color="#2563eb" stop-opacity="0"/></radialGradient>
    <linearGradient id="aG" x1="0%" y1="0%" x2="100%" y2="0%"><stop offset="0%" stop-color="#a78bfa"/><stop offset="100%" stop-color="#60a5fa"/></linearGradient>
    <linearGradient id="bG" x1="0%" y1="0%" x2="100%" y2="0%"><stop offset="0%" stop-color="#7c3aed"/><stop offset="100%" stop-color="#4f46e5"/></linearGradient>
    <linearGradient id="pG" x1="0%" y1="0%" x2="100%" y2="100%"><stop offset="0%" stop-color="#130b2e" stop-opacity="0.97"/><stop offset="100%" stop-color="#0c0820" stop-opacity="0.97"/></linearGradient>
    <filter id="sh"><feDropShadow dx="0" dy="8" stdDeviation="16" flood-color="#5b21b6" flood-opacity="0.35"/></filter>
  </defs>
  <rect width="1200" height="500" fill="url(#bg)"/>
  <ellipse cx="280" cy="250" rx="480" ry="360" fill="url(#gL)"/>
  <ellipse cx="920" cy="250" rx="480" ry="360" fill="url(#gR)"/>

  <text x="600" y="44" text-anchor="middle" font-size="13" font-weight="600" fill="#a78bfa" letter-spacing="2">HEAD-TO-HEAD</text>
  <text x="600" y="80" text-anchor="middle" font-size="29" font-weight="800" fill="url(#aG)">AI Chatbots vs. ToolNest AI Chat</text>

  <circle cx="600" cy="292" r="36" fill="url(#pG)" stroke="rgba(167,139,250,0.3)" stroke-width="2"/>
  <text x="600" y="300" text-anchor="middle" font-size="18" font-weight="800" fill="url(#aG)">VS</text>

  <!-- LEFT: standalone chatbots -->
  <rect x="40" y="108" width="520" height="374" rx="16" fill="url(#pG)" stroke="rgba(239,68,68,0.2)" stroke-width="1.5" filter="url(#sh)"/>
  <rect x="40" y="108" width="520" height="4" rx="2" fill="rgba(239,68,68,0.55)"/>
  <text x="300" y="138" text-anchor="middle" font-size="16" font-weight="700" fill="#fca5a5">⚠ Standalone AI Chatbots</text>
  <g font-size="13">
    <rect x="60" y="152" width="480" height="36" rx="8" fill="rgba(239,68,68,0.04)" stroke="rgba(239,68,68,0.1)" stroke-width="1"/>
    <text x="80" y="175" fill="rgba(255,255,255,0.55)">🔑  Account access</text><text x="520" y="175" text-anchor="end" fill="#f87171">Separate login per chatbot</text>
    <rect x="60" y="194" width="480" height="36" rx="8" fill="rgba(239,68,68,0.03)" stroke="rgba(239,68,68,0.08)" stroke-width="1"/>
    <text x="80" y="217" fill="rgba(255,255,255,0.55)">🤖  Models available</text><text x="520" y="217" text-anchor="end" fill="#f87171">One model per platform</text>
    <rect x="60" y="236" width="480" height="36" rx="8" fill="rgba(239,68,68,0.04)" stroke="rgba(239,68,68,0.1)" stroke-width="1"/>
    <text x="80" y="259" fill="rgba(255,255,255,0.55)">💰  Cost</text><text x="520" y="259" text-anchor="end" fill="#f87171">Multiple paid subscriptions</text>
    <rect x="60" y="278" width="480" height="36" rx="8" fill="rgba(239,68,68,0.03)" stroke="rgba(239,68,68,0.08)" stroke-width="1"/>
    <text x="80" y="301" fill="rgba(255,255,255,0.55)">📄  File upload</text><text x="520" y="301" text-anchor="end" fill="#fbbf24">Varies — often paywalled</text>
    <rect x="60" y="320" width="480" height="36" rx="8" fill="rgba(239,68,68,0.04)" stroke="rgba(239,68,68,0.1)" stroke-width="1"/>
    <text x="80" y="343" fill="rgba(255,255,255,0.55)">🔒  Privacy</text><text x="520" y="343" text-anchor="end" fill="#fbbf24">Varies by provider</text>
    <rect x="60" y="362" width="480" height="36" rx="8" fill="rgba(239,68,68,0.03)" stroke="rgba(239,68,68,0.08)" stroke-width="1"/>
    <text x="80" y="385" fill="rgba(255,255,255,0.55)">🔀  Switch models</text><text x="520" y="385" text-anchor="end" fill="#f87171">Open a new tab/app</text>
    <rect x="60" y="404" width="480" height="36" rx="8" fill="rgba(239,68,68,0.04)" stroke="rgba(239,68,68,0.1)" stroke-width="1"/>
    <text x="80" y="427" fill="rgba(255,255,255,0.55)">🧰  Extra tools</text><text x="520" y="427" text-anchor="end" fill="#f87171">None — chat only</text>
  </g>

  <!-- RIGHT: ToolNest AI Chat -->
  <rect x="640" y="108" width="520" height="374" rx="16" fill="url(#pG)" stroke="rgba(167,139,250,0.3)" stroke-width="1.5" filter="url(#sh)"/>
  <rect x="640" y="108" width="520" height="4" rx="2" fill="url(#aG)"/>
  <text x="900" y="138" text-anchor="middle" font-size="16" font-weight="700" fill="#a78bfa">✦ ToolNest AI Chat</text>
  <g font-size="13">
    <rect x="660" y="152" width="480" height="36" rx="8" fill="rgba(167,139,250,0.06)" stroke="rgba(167,139,250,0.12)" stroke-width="1"/>
    <text x="680" y="175" fill="rgba(255,255,255,0.55)">🔑  Account access</text><text x="1120" y="175" text-anchor="end" fill="#4ade80">One login, all models</text>
    <rect x="660" y="194" width="480" height="36" rx="8" fill="rgba(167,139,250,0.05)" stroke="rgba(167,139,250,0.1)" stroke-width="1"/>
    <text x="680" y="217" fill="rgba(255,255,255,0.55)">🤖  Models available</text><text x="1120" y="217" text-anchor="end" fill="#4ade80">GPT-4o, Claude, Gemini +</text>
    <rect x="660" y="236" width="480" height="36" rx="8" fill="rgba(167,139,250,0.06)" stroke="rgba(167,139,250,0.12)" stroke-width="1"/>
    <text x="680" y="259" fill="rgba(255,255,255,0.55)">💰  Cost</text><text x="1120" y="259" text-anchor="end" fill="#4ade80">Free to start, no subs needed</text>
    <rect x="660" y="278" width="480" height="36" rx="8" fill="rgba(167,139,250,0.05)" stroke="rgba(167,139,250,0.1)" stroke-width="1"/>
    <text x="680" y="301" fill="rgba(255,255,255,0.55)">📄  File upload</text><text x="1120" y="301" text-anchor="end" fill="#4ade80">PDFs, docs, images — free</text>
    <rect x="660" y="320" width="480" height="36" rx="8" fill="rgba(167,139,250,0.06)" stroke="rgba(167,139,250,0.12)" stroke-width="1"/>
    <text x="680" y="343" fill="rgba(255,255,255,0.55)">🔒  Privacy</text><text x="1120" y="343" text-anchor="end" fill="#4ade80">Encrypted &amp; private</text>
    <rect x="660" y="362" width="480" height="36" rx="8" fill="rgba(167,139,250,0.05)" stroke="rgba(167,139,250,0.1)" stroke-width="1"/>
    <text x="680" y="385" fill="rgba(255,255,255,0.55)">🔀  Switch models</text><text x="1120" y="385" text-anchor="end" fill="#4ade80">One click in same interface</text>
    <rect x="660" y="404" width="480" height="36" rx="8" fill="rgba(167,139,250,0.06)" stroke="rgba(167,139,250,0.12)" stroke-width="1"/>
    <text x="680" y="427" fill="rgba(255,255,255,0.55)">🧰  Extra tools</text><text x="1120" y="427" text-anchor="end" fill="#4ade80">200+ tools on ToolNest AI</text>
  </g>
</svg>
