<svg viewBox="0 0 1200 630" xmlns="http://www.w3.org/2000/svg" font-family="'Segoe UI',system-ui,sans-serif">
  <defs>
    <radialGradient id="bg" cx="50%" cy="50%" r="75%"><stop offset="0%" stop-color="#0d0520"/><stop offset="100%" stop-color="#07070f"/></radialGradient>
    <radialGradient id="gL" cx="20%" cy="50%" r="55%"><stop offset="0%" stop-color="#5b21b6" stop-opacity="0.35"/><stop offset="100%" stop-color="#5b21b6" stop-opacity="0"/></radialGradient>
    <radialGradient id="gR" cx="80%" cy="50%" r="45%"><stop offset="0%" stop-color="#2563eb" stop-opacity="0.22"/><stop offset="100%" stop-color="#2563eb" stop-opacity="0"/></radialGradient>
    <radialGradient id="orbG" cx="50%" cy="40%" r="60%"><stop offset="0%" stop-color="#a78bfa"/><stop offset="100%" stop-color="#6d28d9"/></radialGradient>
    <linearGradient id="aG" x1="0%" y1="0%" x2="100%" y2="0%"><stop offset="0%" stop-color="#a78bfa"/><stop offset="100%" stop-color="#60a5fa"/></linearGradient>
    <linearGradient id="bG" x1="0%" y1="0%" x2="100%" y2="0%"><stop offset="0%" stop-color="#7c3aed"/><stop offset="100%" stop-color="#4f46e5"/></linearGradient>
    <linearGradient id="lapG" x1="0%" y1="0%" x2="0%" y2="100%"><stop offset="0%" stop-color="#1a1135"/><stop offset="100%" stop-color="#0d0a1e"/></linearGradient>
    <linearGradient id="pG" x1="0%" y1="0%" x2="100%" y2="100%"><stop offset="0%" stop-color="#130b2e" stop-opacity="0.97"/><stop offset="100%" stop-color="#0c0820" stop-opacity="0.97"/></linearGradient>
    <linearGradient id="hL1" x1="0%" y1="0%" x2="100%" y2="0%"><stop offset="0%" stop-color="#6d28d9" stop-opacity="0.6"/><stop offset="100%" stop-color="#4c1d95" stop-opacity="0.4"/></linearGradient>
    <linearGradient id="hL2" x1="0%" y1="0%" x2="100%" y2="0%"><stop offset="0%" stop-color="#7c3aed" stop-opacity="0.8"/><stop offset="100%" stop-color="#60a5fa" stop-opacity="0.7"/></linearGradient>
    <linearGradient id="hL3" x1="0%" y1="0%" x2="100%" y2="0%"><stop offset="0%" stop-color="#818cf8" stop-opacity="0.9"/><stop offset="100%" stop-color="#60a5fa" stop-opacity="0.8"/></linearGradient>
    <filter id="sh"><feDropShadow dx="0" dy="8" stdDeviation="18" flood-color="#5b21b6" flood-opacity="0.5"/></filter>
    <filter id="glow"><feDropShadow dx="0" dy="0" stdDeviation="10" flood-color="#a78bfa" flood-opacity="0.7"/></filter>
    <filter id="gF"><feGaussianBlur stdDeviation="2.5" result="b"/><feMerge><feMergeNode in="b"/><feMergeNode in="SourceGraphic"/></feMerge></filter>
  </defs>

  <rect width="1200" height="630" fill="url(#bg)"/>
  <ellipse cx="240" cy="315" rx="560" ry="400" fill="url(#gL)"/>
  <ellipse cx="960" cy="315" rx="480" ry="360" fill="url(#gR)"/>

  <!-- Grid lines -->
  <g stroke="rgba(167,139,250,0.04)" stroke-width="1">
    <line x1="0" y1="105" x2="1200" y2="105"/><line x1="0" y1="210" x2="1200" y2="210"/>
    <line x1="0" y1="315" x2="1200" y2="315"/><line x1="0" y1="420" x2="1200" y2="420"/>
    <line x1="0" y1="525" x2="1200" y2="525"/>
    <line x1="200" y1="0" x2="200" y2="630"/><line x1="400" y1="0" x2="400" y2="630"/>
    <line x1="600" y1="0" x2="600" y2="630"/><line x1="800" y1="0" x2="800" y2="630"/>
    <line x1="1000" y1="0" x2="1000" y2="630"/>
  </g>

  <!-- LEFT: Text -->
  <text x="54" y="72" font-size="13" font-weight="600" fill="#a78bfa" letter-spacing="2">TOOLNEST AI</text>
  <text x="54" y="118" font-size="46" font-weight="800" fill="url(#aG)" filter="url(#gF)">AI Humanizer</text>
  <text x="54" y="158" font-size="20" font-weight="600" fill="rgba(255,255,255,0.82)">Convert AI Text into</text>
  <text x="54" y="184" font-size="20" font-weight="600" fill="rgba(255,255,255,0.82)">Natural Human Writing</text>

  <!-- Features list -->
  <g font-size="13" fill="rgba(255,255,255,0.62)">
    <rect x="54" y="206" width="22" height="22" rx="6" fill="rgba(167,139,250,0.15)" stroke="rgba(167,139,250,0.3)" stroke-width="1"/>
    <text x="65" y="222" text-anchor="middle" font-size="11" fill="#a78bfa">👤</text>
    <text x="84" y="222">100% Human-like Output</text>

    <rect x="54" y="234" width="22" height="22" rx="6" fill="rgba(167,139,250,0.12)" stroke="rgba(167,139,250,0.25)" stroke-width="1"/>
    <text x="65" y="250" text-anchor="middle" font-size="11" fill="#a78bfa">🧠</text>
    <text x="84" y="250">Bypass AI Detectors</text>

    <rect x="54" y="262" width="22" height="22" rx="6" fill="rgba(167,139,250,0.12)" stroke="rgba(167,139,250,0.25)" stroke-width="1"/>
    <text x="65" y="278" text-anchor="middle" font-size="11" fill="#60a5fa">✦</text>
    <text x="84" y="278">Better Readability</text>

    <rect x="54" y="290" width="22" height="22" rx="6" fill="rgba(167,139,250,0.12)" stroke="rgba(167,139,250,0.25)" stroke-width="1"/>
    <text x="65" y="306" text-anchor="middle" font-size="11" fill="#a78bfa">⚡</text>
    <text x="84" y="306">Multiple Modes</text>

    <rect x="54" y="318" width="22" height="22" rx="6" fill="rgba(167,139,250,0.12)" stroke="rgba(167,139,250,0.25)" stroke-width="1"/>
    <text x="65" y="334" text-anchor="middle" font-size="11" fill="#60a5fa">🛡</text>
    <text x="84" y="334">Secure &amp; Private</text>
  </g>

  <!-- Laptop -->
  <rect x="340" y="52" width="680" height="440" rx="20" fill="url(#lapG)" stroke="rgba(167,139,250,0.22)" stroke-width="1.5" filter="url(#sh)"/>
  <rect x="340" y="52" width="680" height="32" rx="20" fill="rgba(167,139,250,0.08)"/>
  <circle cx="362" cy="68" r="5" fill="rgba(239,68,68,0.5)"/>
  <circle cx="380" cy="68" r="5" fill="rgba(251,191,36,0.5)"/>
  <circle cx="398" cy="68" r="5" fill="rgba(34,197,94,0.5)"/>
  <text x="680" y="72" text-anchor="middle" font-size="11" fill="rgba(255,255,255,0.3)">AI Humanizer — ToolNest AI</text>

  <!-- Secure badge -->
  <rect x="910" y="58" width="96" height="22" rx="11" fill="rgba(34,197,94,0.12)" stroke="rgba(34,197,94,0.3)" stroke-width="1"/>
  <text x="958" y="73" text-anchor="middle" font-size="10" fill="#4ade80">🛡 100% Secure</text>

  <!-- Left panel: AI Generated Text -->
  <rect x="360" y="100" width="288" height="330" rx="12" fill="rgba(10,6,24,0.8)" stroke="rgba(167,139,250,0.18)" stroke-width="1"/>
  <rect x="372" y="112" width="120" height="22" rx="11" fill="rgba(167,139,250,0.25)" stroke="rgba(167,139,250,0.4)" stroke-width="1"/>
  <text x="432" y="127" text-anchor="middle" font-size="11" font-weight="600" fill="#c4b5fd">AI Generated Text</text>

  <!-- Gray/dull lines in left panel -->
  <g fill="none" stroke-linecap="round">
    <rect x="372" y="148" width="264" height="9" rx="4.5" fill="rgba(100,100,120,0.35)"/>
    <rect x="372" y="165" width="240" height="9" rx="4.5" fill="rgba(100,100,120,0.3)"/>
    <rect x="372" y="182" width="255" height="9" rx="4.5" fill="rgba(100,100,120,0.28)"/>
    <rect x="372" y="199" width="220" height="9" rx="4.5" fill="rgba(100,100,120,0.32)"/>
    <rect x="372" y="228" width="264" height="9" rx="4.5" fill="rgba(100,100,120,0.3)"/>
    <rect x="372" y="245" width="190" height="9" rx="4.5" fill="rgba(100,100,120,0.25)"/>
    <rect x="372" y="262" width="250" height="9" rx="4.5" fill="rgba(100,100,120,0.28)"/>
    <rect x="372" y="279" width="230" height="9" rx="4.5" fill="rgba(100,100,120,0.3)"/>
    <rect x="372" y="308" width="264" height="9" rx="4.5" fill="rgba(100,100,120,0.25)"/>
    <rect x="372" y="325" width="210" height="9" rx="4.5" fill="rgba(100,100,120,0.22)"/>
    <rect x="372" y="342" width="245" height="9" rx="4.5" fill="rgba(100,100,120,0.25)"/>
    <rect x="372" y="359" width="200" height="9" rx="4.5" fill="rgba(100,100,120,0.22)"/>
  </g>
  <text x="372" y="422" font-size="11" fill="rgba(255,255,255,0.28)">126 Words</text>

  <!-- Center orb -->
  <circle cx="648" cy="265" r="44" fill="rgba(109,40,217,0.15)" stroke="rgba(167,139,250,0.2)" stroke-width="1" stroke-dasharray="4,4"/>
  <circle cx="648" cy="265" r="34" fill="url(#orbG)" filter="url(#glow)"/>
  <!-- Person icon -->
  <circle cx="648" cy="255" r="8" fill="rgba(255,255,255,0.9)"/>
  <path d="M632 278 Q648 268 664 278" stroke="rgba(255,255,255,0.9)" stroke-width="2.5" fill="none" stroke-linecap="round"/>
  <!-- Arrows -->
  <text x="696" y="270" font-size="16" fill="rgba(167,139,250,0.7)">&gt;&gt;</text>

  <!-- Right panel: Humanized Text -->
  <rect x="712" y="100" width="288" height="330" rx="12" fill="rgba(10,6,24,0.8)" stroke="rgba(96,165,250,0.2)" stroke-width="1"/>
  <rect x="724" y="112" width="118" height="22" rx="11" fill="rgba(124,58,237,0.35)" stroke="rgba(124,58,237,0.5)" stroke-width="1"/>
  <text x="783" y="127" text-anchor="middle" font-size="11" font-weight="600" fill="#c4b5fd">Humanized Text</text>

  <!-- Colored gradient lines in right panel -->
  <rect x="724" y="148" width="264" height="9" rx="4.5" fill="url(#hL2)"/>
  <rect x="724" y="165" width="240" height="9" rx="4.5" fill="url(#hL3)"/>
  <rect x="724" y="182" width="255" height="9" rx="4.5" fill="url(#hL2)"/>
  <rect x="724" y="199" width="220" height="9" rx="4.5" fill="url(#hL3)"/>
  <rect x="724" y="228" width="264" height="9" rx="4.5" fill="url(#hL2)"/>
  <rect x="724" y="245" width="190" height="9" rx="4.5" fill="url(#hL3)"/>
  <rect x="724" y="262" width="255" height="9" rx="4.5" fill="url(#hL2)"/>
  <rect x="724" y="279" width="230" height="9" rx="4.5" fill="url(#hL3)"/>
  <rect x="724" y="308" width="264" height="9" rx="4.5" fill="url(#hL2)"/>
  <rect x="724" y="325" width="210" height="9" rx="4.5" fill="url(#hL3)"/>
  <rect x="724" y="342" width="245" height="9" rx="4.5" fill="url(#hL2)"/>
  <rect x="724" y="359" width="200" height="9" rx="4.5" fill="url(#hL3)"/>
  <text x="724" y="422" font-size="11" fill="rgba(255,255,255,0.28)">126 Words</text>
  <!-- Copy icon -->
  <rect x="944" y="412" width="22" height="22" rx="5" fill="rgba(167,139,250,0.12)" stroke="rgba(167,139,250,0.2)" stroke-width="1"/>
  <text x="955" y="427" text-anchor="middle" font-size="11" fill="#a78bfa">⎘</text>

  <!-- Mode buttons -->
  <text x="360" y="458" font-size="12" fill="rgba(255,255,255,0.45)">Choose Mode</text>
  <rect x="360" y="466" width="86" height="28" rx="8" fill="url(#bG)"/>
  <text x="403" y="484" text-anchor="middle" font-size="12" font-weight="600" fill="#fff">Standard</text>
  <rect x="454" y="466" width="86" height="28" rx="8" fill="rgba(167,139,250,0.12)" stroke="rgba(167,139,250,0.3)" stroke-width="1"/>
  <text x="497" y="484" text-anchor="middle" font-size="12" fill="rgba(255,255,255,0.6)">Balanced</text>
  <rect x="548" y="466" width="86" height="28" rx="8" fill="rgba(167,139,250,0.08)" stroke="rgba(167,139,250,0.2)" stroke-width="1"/>
  <text x="591" y="484" text-anchor="middle" font-size="12" fill="rgba(255,255,255,0.5)">Advanced</text>
  <rect x="642" y="466" width="86" height="28" rx="8" fill="rgba(167,139,250,0.08)" stroke="rgba(167,139,250,0.2)" stroke-width="1"/>
  <text x="685" y="484" text-anchor="middle" font-size="12" fill="rgba(255,255,255,0.5)">Enhanced</text>
  <rect x="782" y="462" width="210" height="36" rx="18" fill="url(#bG)" filter="url(#sh)"/>
  <text x="887" y="484" text-anchor="middle" font-size="14" font-weight="700" fill="#fff">Humanize Now ✦</text>

  <!-- Robot -->
  <ellipse cx="1128" cy="418" rx="52" ry="10" fill="rgba(124,58,237,0.3)"/>
  <rect x="1088" y="330" width="80" height="80" rx="24" fill="url(#bG)" filter="url(#glow)"/>
  <rect x="1098" y="342" width="24" height="18" rx="6" fill="rgba(255,255,255,0.15)"/>
  <rect x="1138" y="342" width="24" height="18" rx="6" fill="rgba(255,255,255,0.15)"/>
  <circle cx="1110" cy="351" r="6" fill="white"/>
  <circle cx="1150" cy="351" r="6" fill="white"/>
  <circle cx="1112" cy="351" r="3" fill="#6d28d9"/>
  <circle cx="1152" cy="351" r="3" fill="#6d28d9"/>
  <path d="M1108 378 Q1128 388 1148 378" stroke="rgba(255,255,255,0.7)" stroke-width="3" fill="none" stroke-linecap="round"/>
  <rect x="1108" y="410" width="40" height="50" rx="12" fill="url(#bG)"/>
  <circle cx="1128" cy="320" r="8" fill="url(#bG)" stroke="rgba(167,139,250,0.4)" stroke-width="1"/>
  <line x1="1128" y1="328" x2="1128" y2="332" stroke="rgba(167,139,250,0.5)" stroke-width="2"/>
  <rect x="1115" y="462" width="26" height="30" rx="8" fill="url(#bG)"/>
  <rect x="1141" y="462" width="26" height="30" rx="8" fill="url(#bG)"/>
  <rect x="1118" y="393" width="18" height="16" rx="4" fill="rgba(255,255,255,0.1)"/>
  <text x="1127" y="404" text-anchor="middle" font-size="8" font-weight="800" fill="white">AI</text>

  <!-- Bottom stats -->
  <line x1="54" y1="530" x2="1146" y2="530" stroke="rgba(167,139,250,0.1)" stroke-width="1"/>
  <g font-size="12" text-anchor="middle">
    <text x="140" y="556" fill="rgba(255,255,255,0.7)" font-size="18">∞</text>
    <text x="140" y="572" fill="rgba(255,255,255,0.5)">No Limits</text>
    <text x="310" y="553" fill="rgba(167,139,250,0.8)" font-size="16">⏱</text>
    <text x="310" y="572" fill="rgba(255,255,255,0.5)">Save Time</text>
    <text x="480" y="553" fill="rgba(167,139,250,0.8)" font-size="16">📈</text>
    <text x="480" y="572" fill="rgba(255,255,255,0.5)">Better Engagement</text>
    <text x="680" y="553" fill="rgba(96,165,250,0.8)" font-size="16">🌐</text>
    <text x="680" y="572" fill="rgba(255,255,255,0.5)">Works Everywhere</text>
    <text x="880" y="553" fill="rgba(96,165,250,0.8)" font-size="16">👥</text>
    <text x="880" y="572" fill="rgba(255,255,255,0.5)">Trusted by Thousands</text>
    <text x="1080" y="553" fill="rgba(34,197,94,0.8)" font-size="16">🛡</text>
    <text x="1080" y="572" fill="rgba(255,255,255,0.5)">100% Private</text>
  </g>
</svg>
