<svg viewBox="0 0 1200 630" xmlns="http://www.w3.org/2000/svg" font-family="'Segoe UI',system-ui,sans-serif">
  <defs>
    <radialGradient id="bg" cx="50%" cy="50%" r="75%"><stop offset="0%" stop-color="#0d0520"/><stop offset="100%" stop-color="#07070f"/></radialGradient>
    <radialGradient id="gL" cx="20%" cy="50%" r="55%"><stop offset="0%" stop-color="#5b21b6" stop-opacity="0.38"/><stop offset="100%" stop-color="#5b21b6" stop-opacity="0"/></radialGradient>
    <radialGradient id="gR" cx="80%" cy="50%" r="48%"><stop offset="0%" stop-color="#2563eb" stop-opacity="0.22"/><stop offset="100%" stop-color="#2563eb" stop-opacity="0"/></radialGradient>
    <radialGradient id="orbG" cx="50%" cy="40%" r="60%"><stop offset="0%" stop-color="#a78bfa"/><stop offset="100%" stop-color="#6d28d9"/></radialGradient>
    <linearGradient id="aG" x1="0%" y1="0%" x2="100%" y2="0%"><stop offset="0%" stop-color="#a78bfa"/><stop offset="100%" stop-color="#60a5fa"/></linearGradient>
    <linearGradient id="bG" x1="0%" y1="0%" x2="100%" y2="0%"><stop offset="0%" stop-color="#7c3aed"/><stop offset="100%" stop-color="#4f46e5"/></linearGradient>
    <linearGradient id="lapG" x1="0%" y1="0%" x2="0%" y2="100%"><stop offset="0%" stop-color="#1a1135"/><stop offset="100%" stop-color="#0d0a1e"/></linearGradient>
    <linearGradient id="hL" x1="0%" y1="0%" x2="100%" y2="0%"><stop offset="0%" stop-color="#7c3aed" stop-opacity="0.9"/><stop offset="100%" stop-color="#60a5fa" stop-opacity="0.8"/></linearGradient>
    <filter id="sh"><feDropShadow dx="0" dy="10" stdDeviation="20" flood-color="#5b21b6" flood-opacity="0.5"/></filter>
    <filter id="glow"><feDropShadow dx="0" dy="0" stdDeviation="12" flood-color="#a78bfa" flood-opacity="0.7"/></filter>
    <filter id="gF"><feGaussianBlur stdDeviation="3" result="b"/><feMerge><feMergeNode in="b"/><feMergeNode in="SourceGraphic"/></feMerge></filter>
  </defs>

  <rect width="1200" height="630" fill="url(#bg)"/>
  <ellipse cx="200" cy="315" rx="520" ry="380" fill="url(#gL)"/>
  <ellipse cx="1000" cy="315" rx="460" ry="340" fill="url(#gR)"/>

  <!-- Left: branding + headline -->
  <rect x="54" y="54" width="160" height="34" rx="17" fill="rgba(167,139,250,0.12)" stroke="rgba(167,139,250,0.28)" stroke-width="1"/>
  <text x="134" y="76" text-anchor="middle" font-size="13" font-weight="700" fill="#a78bfa">✦ ToolNest AI</text>

  <text x="54" y="152" font-size="52" font-weight="800" fill="url(#aG)" filter="url(#gF)">AI Humanizer</text>
  <text x="54" y="196" font-size="22" font-weight="600" fill="rgba(255,255,255,0.78)">Convert AI Text into</text>
  <text x="54" y="224" font-size="22" font-weight="600" fill="rgba(255,255,255,0.78)">Natural Human Writing</text>

  <text x="54" y="272" font-size="14" fill="rgba(255,255,255,0.45)">✓  Bypass AI detectors instantly</text>
  <text x="54" y="296" font-size="14" fill="rgba(255,255,255,0.45)">✓  4 humanization modes</text>
  <text x="54" y="320" font-size="14" fill="rgba(255,255,255,0.45)">✓  Free · No sign-up required</text>

  <rect x="54" y="362" width="220" height="46" rx="23" fill="url(#bG)" filter="url(#sh)"/>
  <text x="164" y="390" text-anchor="middle" font-size="15" font-weight="700" fill="#fff">Humanize Now ✦</text>

  <!-- Right: UI mockup -->
  <rect x="460" y="60" width="690" height="510" rx="18" fill="url(#lapG)" stroke="rgba(167,139,250,0.2)" stroke-width="1.5" filter="url(#sh)"/>
  <rect x="460" y="60" width="690" height="30" rx="18" fill="rgba(167,139,250,0.06)"/>
  <circle cx="482" cy="75" r="5" fill="rgba(239,68,68,0.5)"/>
  <circle cx="500" cy="75" r="5" fill="rgba(251,191,36,0.5)"/>
  <circle cx="518" cy="75" r="5" fill="rgba(34,197,94,0.5)"/>
  <text x="805" y="80" text-anchor="middle" font-size="11" fill="rgba(255,255,255,0.25)">AI Humanizer — ToolNest AI</text>

  <!-- Left panel -->
  <rect x="476" y="104" width="292" height="330" rx="12" fill="rgba(8,4,20,0.85)" stroke="rgba(167,139,250,0.16)" stroke-width="1"/>
  <rect x="492" y="118" width="130" height="22" rx="11" fill="rgba(167,139,250,0.2)" stroke="rgba(167,139,250,0.35)" stroke-width="1"/>
  <text x="557" y="133" text-anchor="middle" font-size="11" font-weight="600" fill="#c4b5fd">AI Generated Text</text>
  <rect x="492" y="154" width="260" height="9" rx="4.5" fill="rgba(90,90,110,0.4)"/>
  <rect x="492" y="170" width="234" height="9" rx="4.5" fill="rgba(90,90,110,0.34)"/>
  <rect x="492" y="186" width="248" height="9" rx="4.5" fill="rgba(90,90,110,0.32)"/>
  <rect x="492" y="202" width="210" height="9" rx="4.5" fill="rgba(90,90,110,0.36)"/>
  <rect x="492" y="228" width="260" height="9" rx="4.5" fill="rgba(90,90,110,0.32)"/>
  <rect x="492" y="244" width="190" height="9" rx="4.5" fill="rgba(90,90,110,0.28)"/>
  <rect x="492" y="260" width="244" height="9" rx="4.5" fill="rgba(90,90,110,0.3)"/>
  <rect x="492" y="290" width="260" height="9" rx="4.5" fill="rgba(90,90,110,0.28)"/>
  <rect x="492" y="306" width="222" height="9" rx="4.5" fill="rgba(90,90,110,0.25)"/>
  <rect x="492" y="322" width="238" height="9" rx="4.5" fill="rgba(90,90,110,0.28)"/>
  <text x="492" y="424" font-size="11" fill="rgba(255,255,255,0.25)">AI Score: 94%</text>

  <!-- Orb -->
  <circle cx="805" cy="270" r="46" fill="rgba(109,40,217,0.12)" stroke="rgba(167,139,250,0.18)" stroke-width="1" stroke-dasharray="5,5"/>
  <circle cx="805" cy="270" r="34" fill="url(#orbG)" filter="url(#glow)"/>
  <circle cx="805" cy="258" r="10" fill="rgba(255,255,255,0.92)"/>
  <path d="M787 286 Q805 274 823 286" stroke="rgba(255,255,255,0.92)" stroke-width="3" fill="none" stroke-linecap="round"/>
  <text x="843" y="275" font-size="16" fill="rgba(167,139,250,0.7)">&gt;&gt;</text>

  <!-- Right panel -->
  <rect x="866" y="104" width="268" height="330" rx="12" fill="rgba(8,4,20,0.85)" stroke="rgba(96,165,250,0.2)" stroke-width="1"/>
  <rect x="882" y="118" width="110" height="22" rx="11" fill="rgba(124,58,237,0.35)" stroke="rgba(124,58,237,0.5)" stroke-width="1"/>
  <text x="937" y="133" text-anchor="middle" font-size="11" font-weight="600" fill="#c4b5fd">Humanized Text</text>
  <rect x="882" y="154" width="236" height="9" rx="4.5" fill="url(#hL)"/>
  <rect x="882" y="170" width="212" height="9" rx="4.5" fill="url(#hL)"/>
  <rect x="882" y="186" width="224" height="9" rx="4.5" fill="url(#hL)"/>
  <rect x="882" y="202" width="196" height="9" rx="4.5" fill="url(#hL)"/>
  <rect x="882" y="228" width="236" height="9" rx="4.5" fill="url(#hL)"/>
  <rect x="882" y="244" width="180" height="9" rx="4.5" fill="url(#hL)"/>
  <rect x="882" y="260" width="220" height="9" rx="4.5" fill="url(#hL)"/>
  <rect x="882" y="290" width="236" height="9" rx="4.5" fill="url(#hL)"/>
  <rect x="882" y="306" width="200" height="9" rx="4.5" fill="url(#hL)"/>
  <rect x="882" y="322" width="216" height="9" rx="4.5" fill="url(#hL)"/>
  <text x="882" y="424" font-size="11" fill="rgba(255,255,255,0.25)">Human Score: 97%</text>

  <!-- Modes row -->
  <text x="476" y="460" font-size="11" fill="rgba(255,255,255,0.35)">Mode</text>
  <rect x="476" y="468" width="74" height="24" rx="7" fill="url(#bG)"/>
  <text x="513" y="484" text-anchor="middle" font-size="11" font-weight="600" fill="#fff">Standard</text>
  <rect x="558" y="468" width="74" height="24" rx="7" fill="rgba(167,139,250,0.1)" stroke="rgba(167,139,250,0.25)" stroke-width="1"/>
  <text x="595" y="484" text-anchor="middle" font-size="11" fill="rgba(255,255,255,0.5)">Balanced</text>
  <rect x="640" y="468" width="74" height="24" rx="7" fill="rgba(167,139,250,0.08)" stroke="rgba(167,139,250,0.2)" stroke-width="1"/>
  <text x="677" y="484" text-anchor="middle" font-size="11" fill="rgba(255,255,255,0.45)">Advanced</text>
  <rect x="722" y="468" width="74" height="24" rx="7" fill="rgba(167,139,250,0.08)" stroke="rgba(167,139,250,0.2)" stroke-width="1"/>
  <text x="759" y="484" text-anchor="middle" font-size="11" fill="rgba(255,255,255,0.45)">Enhanced</text>
  <rect x="860" y="464" width="264" height="32" rx="16" fill="url(#bG)" filter="url(#sh)"/>
  <text x="992" y="484" text-anchor="middle" font-size="13" font-weight="700" fill="#fff">Humanize Now ✦</text>

  <!-- Bottom strip -->
  <line x1="460" y1="530" x2="1150" y2="530" stroke="rgba(167,139,250,0.1)" stroke-width="1"/>
  <text x="530" y="556" text-anchor="middle" font-size="11" fill="rgba(255,255,255,0.35)">∞ No Limits</text>
  <text x="660" y="556" text-anchor="middle" font-size="11" fill="rgba(255,255,255,0.35)">⚡ Instant Results</text>
  <text x="805" y="556" text-anchor="middle" font-size="11" fill="rgba(255,255,255,0.35)">🛡 100% Private</text>
  <text x="950" y="556" text-anchor="middle" font-size="11" fill="rgba(255,255,255,0.35)">🌐 Works Everywhere</text>
  <text x="1090" y="556" text-anchor="middle" font-size="11" fill="rgba(255,255,255,0.35)">👥 Trusted by Thousands</text>
</svg>
