<svg viewBox="0 0 1200 500" xmlns="http://www.w3.org/2000/svg" font-family="'Segoe UI',system-ui,sans-serif">
  <defs>
    <radialGradient id="bg" cx="50%" cy="50%" r="75%"><stop offset="0%" stop-color="#0a0618"/><stop offset="100%" stop-color="#07070f"/></radialGradient>
    <radialGradient id="gL" cx="20%" cy="50%" r="55%"><stop offset="0%" stop-color="#5b21b6" stop-opacity="0.3"/><stop offset="100%" stop-color="#5b21b6" stop-opacity="0"/></radialGradient>
    <radialGradient id="gR" cx="80%" cy="50%" r="55%"><stop offset="0%" stop-color="#2563eb" stop-opacity="0.2"/><stop offset="100%" stop-color="#2563eb" stop-opacity="0"/></radialGradient>
    <linearGradient id="aG" x1="0%" y1="0%" x2="100%" y2="0%"><stop offset="0%" stop-color="#a78bfa"/><stop offset="100%" stop-color="#60a5fa"/></linearGradient>
    <linearGradient id="bG" x1="0%" y1="0%" x2="100%" y2="0%"><stop offset="0%" stop-color="#7c3aed"/><stop offset="100%" stop-color="#4f46e5"/></linearGradient>
    <linearGradient id="pG" x1="0%" y1="0%" x2="100%" y2="100%"><stop offset="0%" stop-color="#130b2e" stop-opacity="0.97"/><stop offset="100%" stop-color="#0c0820" stop-opacity="0.97"/></linearGradient>
    <!-- Style preview gradients -->
    <linearGradient id="realG" x1="0%" y1="0%" x2="100%" y2="100%"><stop offset="0%" stop-color="#1e3a5f"/><stop offset="100%" stop-color="#0a1628"/></linearGradient>
    <linearGradient id="animeG" x1="0%" y1="0%" x2="100%" y2="100%"><stop offset="0%" stop-color="#4c1d95"/><stop offset="100%" stop-color="#1e1b4b"/></linearGradient>
    <linearGradient id="cyberG" x1="0%" y1="0%" x2="100%" y2="100%"><stop offset="0%" stop-color="#0f172a"/><stop offset="100%" stop-color="#020617"/></linearGradient>
    <linearGradient id="tdG" x1="0%" y1="0%" x2="100%" y2="100%"><stop offset="0%" stop-color="#1a0a2e"/><stop offset="100%" stop-color="#0d0520"/></linearGradient>
    <linearGradient id="paintG" x1="0%" y1="0%" x2="100%" y2="100%"><stop offset="0%" stop-color="#1c1003"/><stop offset="100%" stop-color="#0a0605"/></linearGradient>
    <linearGradient id="minG" x1="0%" y1="0%" x2="100%" y2="100%"><stop offset="0%" stop-color="#0f0f0f"/><stop offset="100%" stop-color="#060606"/></linearGradient>
    <filter id="sh"><feDropShadow dx="0" dy="8" stdDeviation="14" flood-color="#5b21b6" flood-opacity="0.3"/></filter>
  </defs>
  <rect width="1200" height="500" fill="url(#bg)"/>
  <ellipse cx="300" cy="250" rx="500" ry="380" fill="url(#gL)"/>
  <ellipse cx="900" cy="250" rx="500" ry="380" fill="url(#gR)"/>

  <text x="600" y="44" text-anchor="middle" font-size="13" font-weight="600" fill="#a78bfa" letter-spacing="2">ART STYLES</text>
  <text x="600" y="80" text-anchor="middle" font-size="29" font-weight="800" fill="url(#aG)">8 Art Styles — One Generator</text>
  <text x="600" y="108" text-anchor="middle" font-size="13" fill="rgba(255,255,255,0.4)">Switch styles with one click — no extra tools needed</text>

  <!-- Realistic -->
  <rect x="38" y="126" width="170" height="200" rx="14" fill="url(#realG)" stroke="rgba(96,165,250,0.28)" stroke-width="1.5" filter="url(#sh)"/>
  <rect x="38" y="126" width="170" height="4" rx="2" fill="rgba(96,165,250,0.6)"/>
  <!-- Realistic preview: landscape lines -->
  <ellipse cx="123" cy="185" rx="50" ry="50" fill="rgba(96,165,250,0.08)"/>
  <rect x="58" y="220" width="130" height="3" rx="1.5" fill="rgba(96,165,250,0.25)"/>
  <rect x="68" y="228" width="110" height="2" rx="1" fill="rgba(96,165,250,0.18)"/>
  <rect x="58" y="236" width="130" height="2" rx="1" fill="rgba(96,165,250,0.14)"/>
  <circle cx="123" cy="180" r="22" fill="rgba(251,191,36,0.15)" stroke="rgba(251,191,36,0.2)" stroke-width="1"/>
  <rect x="78" y="248" width="90" height="30" rx="6" fill="rgba(96,165,250,0.06)" stroke="rgba(96,165,250,0.14)" stroke-width="1"/>
  <text x="123" y="267" text-anchor="middle" font-size="10" fill="rgba(255,255,255,0.45)">📸 Photo-realistic</text>
  <text x="123" y="298" text-anchor="middle" font-size="14" font-weight="700" fill="#60a5fa">Realistic</text>
  <text x="123" y="314" text-anchor="middle" font-size="10" fill="rgba(255,255,255,0.42)">Photographic quality</text>

  <!-- Anime -->
  <rect x="220" y="126" width="170" height="200" rx="14" fill="url(#animeG)" stroke="rgba(244,114,182,0.28)" stroke-width="1.5" filter="url(#sh)"/>
  <rect x="220" y="126" width="170" height="4" rx="2" fill="rgba(244,114,182,0.6)"/>
  <circle cx="305" cy="185" r="28" fill="rgba(244,114,182,0.1)" stroke="rgba(244,114,182,0.2)" stroke-width="1"/>
  <ellipse cx="298" cy="179" rx="5" ry="7" fill="rgba(244,114,182,0.4)"/>
  <ellipse cx="312" cy="179" rx="5" ry="7" fill="rgba(244,114,182,0.4)"/>
  <path d="M298 192 Q305 198 312 192" stroke="rgba(244,114,182,0.5)" stroke-width="1.5" fill="none"/>
  <rect x="260" y="248" width="90" height="30" rx="6" fill="rgba(244,114,182,0.06)" stroke="rgba(244,114,182,0.14)" stroke-width="1"/>
  <text x="305" y="267" text-anchor="middle" font-size="10" fill="rgba(255,255,255,0.45)">🌸 Japanese style</text>
  <text x="305" y="298" text-anchor="middle" font-size="14" font-weight="700" fill="#f472b6">Anime</text>
  <text x="305" y="314" text-anchor="middle" font-size="10" fill="rgba(255,255,255,0.42)">Manga art style</text>

  <!-- Cyberpunk -->
  <rect x="402" y="126" width="170" height="200" rx="14" fill="url(#cyberG)" stroke="rgba(34,211,238,0.28)" stroke-width="1.5" filter="url(#sh)"/>
  <rect x="402" y="126" width="170" height="4" rx="2" fill="rgba(34,211,238,0.6)"/>
  <rect x="432" y="150" width="8" height="60" fill="rgba(34,211,238,0.15)"/>
  <rect x="448" y="155" width="8" height="55" fill="rgba(167,139,250,0.15)"/>
  <rect x="464" y="148" width="8" height="62" fill="rgba(34,211,238,0.12)"/>
  <rect x="480" y="152" width="8" height="58" fill="rgba(244,114,182,0.15)"/>
  <rect x="496" y="146" width="8" height="64" fill="rgba(34,211,238,0.18)"/>
  <rect x="512" y="154" width="8" height="56" fill="rgba(167,139,250,0.12)"/>
  <rect x="432" y="215" width="108" height="3" rx="1.5" fill="rgba(34,211,238,0.35)"/>
  <rect x="442" y="222" width="88" height="2" rx="1" fill="rgba(244,114,182,0.25)"/>
  <rect x="442" y="248" width="88" height="30" rx="6" fill="rgba(34,211,238,0.06)" stroke="rgba(34,211,238,0.14)" stroke-width="1"/>
  <text x="487" y="267" text-anchor="middle" font-size="10" fill="rgba(255,255,255,0.45)">⚡ Neon future</text>
  <text x="487" y="298" text-anchor="middle" font-size="14" font-weight="700" fill="#22d3ee">Cyberpunk</text>
  <text x="487" y="314" text-anchor="middle" font-size="10" fill="rgba(255,255,255,0.42)">Neon &amp; futuristic</text>

  <!-- 3D Render -->
  <rect x="584" y="126" width="170" height="200" rx="14" fill="url(#tdG)" stroke="rgba(167,139,250,0.28)" stroke-width="1.5" filter="url(#sh)"/>
  <rect x="584" y="126" width="170" height="4" rx="2" fill="rgba(167,139,250,0.6)"/>
  <!-- 3D cube wireframe -->
  <rect x="634" y="158" width="36" height="36" fill="none" stroke="rgba(167,139,250,0.4)" stroke-width="1.5"/>
  <rect x="648" y="148" width="36" height="36" fill="none" stroke="rgba(167,139,250,0.3)" stroke-width="1"/>
  <line x1="634" y1="158" x2="648" y2="148" stroke="rgba(167,139,250,0.3)" stroke-width="1"/>
  <line x1="670" y1="158" x2="684" y2="148" stroke="rgba(167,139,250,0.25)" stroke-width="1"/>
  <line x1="670" y1="194" x2="684" y2="184" stroke="rgba(167,139,250,0.25)" stroke-width="1"/>
  <circle cx="700" cy="180" r="18" fill="none" stroke="rgba(96,165,250,0.3)" stroke-width="1.5" stroke-dasharray="4,3"/>
  <rect x="624" y="248" width="90" height="30" rx="6" fill="rgba(167,139,250,0.06)" stroke="rgba(167,139,250,0.14)" stroke-width="1"/>
  <text x="669" y="267" text-anchor="middle" font-size="10" fill="rgba(255,255,255,0.45)">🎯 CGI quality</text>
  <text x="669" y="298" text-anchor="middle" font-size="14" font-weight="700" fill="#a78bfa">3D Render</text>
  <text x="669" y="314" text-anchor="middle" font-size="10" fill="rgba(255,255,255,0.42)">Studio CGI look</text>

  <!-- Digital Art -->
  <rect x="766" y="126" width="170" height="200" rx="14" fill="url(#tdG)" stroke="rgba(251,191,36,0.22)" stroke-width="1.5" filter="url(#sh)"/>
  <rect x="766" y="126" width="170" height="4" rx="2" fill="rgba(251,191,36,0.55)"/>
  <circle cx="851" cy="180" r="32" fill="rgba(251,191,36,0.06)" stroke="rgba(251,191,36,0.18)" stroke-width="1"/>
  <path d="M820 195 Q851 150 882 195 Q851 215 820 195Z" fill="rgba(251,191,36,0.12)" stroke="rgba(251,191,36,0.2)" stroke-width="1"/>
  <rect x="806" y="248" width="90" height="30" rx="6" fill="rgba(251,191,36,0.06)" stroke="rgba(251,191,36,0.14)" stroke-width="1"/>
  <text x="851" y="267" text-anchor="middle" font-size="10" fill="rgba(255,255,255,0.45)">🖌 Creative art</text>
  <text x="851" y="298" text-anchor="middle" font-size="14" font-weight="700" fill="#fbbf24">Digital Art</text>
  <text x="851" y="314" text-anchor="middle" font-size="10" fill="rgba(255,255,255,0.42)">Concept &amp; illustration</text>

  <!-- Fantasy -->
  <rect x="948" y="126" width="214" height="200" rx="14" fill="url(#paintG)" stroke="rgba(34,197,94,0.22)" stroke-width="1.5" filter="url(#sh)"/>
  <rect x="948" y="126" width="214" height="4" rx="2" fill="rgba(34,197,94,0.55)"/>
  <ellipse cx="1055" cy="178" rx="35" ry="30" fill="rgba(34,197,94,0.06)" stroke="rgba(34,197,94,0.15)" stroke-width="1"/>
  <path d="M1020 165 Q1055 140 1090 165" stroke="rgba(34,197,94,0.25)" stroke-width="1.5" fill="none"/>
  <path d="M1030 180 Q1055 198 1080 180" stroke="rgba(34,197,94,0.2)" stroke-width="1" fill="none"/>
  <circle cx="1040" cy="170" r="5" fill="rgba(251,191,36,0.3)"/>
  <circle cx="1070" cy="174" r="4" fill="rgba(167,139,250,0.3)"/>
  <rect x="1010" y="248" width="90" height="30" rx="6" fill="rgba(34,197,94,0.06)" stroke="rgba(34,197,94,0.14)" stroke-width="1"/>
  <text x="1055" y="267" text-anchor="middle" font-size="10" fill="rgba(255,255,255,0.45)">🏰 Epic worlds</text>
  <text x="1055" y="298" text-anchor="middle" font-size="14" font-weight="700" fill="#22c55e">Fantasy</text>
  <text x="1055" y="314" text-anchor="middle" font-size="10" fill="rgba(255,255,255,0.42)">Mythical &amp; epic</text>

  <!-- Bottom CTA row -->
  <text x="600" y="368" text-anchor="middle" font-size="14" fill="rgba(255,255,255,0.4)">+ Minimalist · Painting · Sketch · Watercolor and more</text>
  <rect x="370" y="390" width="460" height="70" rx="14" fill="rgba(124,58,237,0.1)" stroke="rgba(167,139,250,0.2)" stroke-width="1"/>
  <text x="600" y="418" text-anchor="middle" font-size="15" font-weight="700" fill="rgba(255,255,255,0.85)">All styles. One generator. Completely free.</text>
  <text x="600" y="444" text-anchor="middle" font-size="12" fill="rgba(255,255,255,0.4)">Switch styles instantly — no extra subscriptions or accounts needed</text>
</svg>
