<svg viewBox="0 0 1200 630" xmlns="http://www.w3.org/2000/svg" font-family="'Segoe UI',system-ui,sans-serif">
  <defs>
    <radialGradient id="bg" cx="50%" cy="50%" r="75%"><stop offset="0%" stop-color="#0d0520"/><stop offset="100%" stop-color="#07070f"/></radialGradient>
    <radialGradient id="gL" cx="18%" cy="50%" r="55%"><stop offset="0%" stop-color="#5b21b6" stop-opacity="0.42"/><stop offset="100%" stop-color="#5b21b6" stop-opacity="0"/></radialGradient>
    <radialGradient id="gR" cx="82%" cy="50%" r="48%"><stop offset="0%" stop-color="#1d4ed8" stop-opacity="0.24"/><stop offset="100%" stop-color="#1d4ed8" stop-opacity="0"/></radialGradient>
    <linearGradient id="aG" x1="0%" y1="0%" x2="100%" y2="0%"><stop offset="0%" stop-color="#a78bfa"/><stop offset="100%" stop-color="#60a5fa"/></linearGradient>
    <linearGradient id="bG" x1="0%" y1="0%" x2="100%" y2="0%"><stop offset="0%" stop-color="#7c3aed"/><stop offset="100%" stop-color="#4f46e5"/></linearGradient>
    <linearGradient id="lapG" x1="0%" y1="0%" x2="0%" y2="100%"><stop offset="0%" stop-color="#1a1135"/><stop offset="100%" stop-color="#0d0a1e"/></linearGradient>
    <linearGradient id="sunG" x1="0%" y1="0%" x2="0%" y2="100%"><stop offset="0%" stop-color="#f97316" stop-opacity="0.88"/><stop offset="50%" stop-color="#9333ea" stop-opacity="0.65"/><stop offset="100%" stop-color="#1e0a3c" stop-opacity="0.95"/></linearGradient>
    <filter id="sh"><feDropShadow dx="0" dy="10" stdDeviation="20" flood-color="#5b21b6" flood-opacity="0.5"/></filter>
    <filter id="gF"><feGaussianBlur stdDeviation="3" result="b"/><feMerge><feMergeNode in="b"/><feMergeNode in="SourceGraphic"/></feMerge></filter>
  </defs>

  <rect width="1200" height="630" fill="url(#bg)"/>
  <ellipse cx="200" cy="315" rx="520" ry="380" fill="url(#gL)"/>
  <ellipse cx="1010" cy="315" rx="460" ry="340" fill="url(#gR)"/>

  <!-- Left branding + headline -->
  <rect x="54" y="54" width="160" height="34" rx="17" fill="rgba(167,139,250,0.12)" stroke="rgba(167,139,250,0.28)" stroke-width="1"/>
  <text x="134" y="76" text-anchor="middle" font-size="13" font-weight="700" fill="#a78bfa">✦ ToolNest AI</text>

  <text x="54" y="150" font-size="50" font-weight="900" fill="url(#aG)" filter="url(#gF)">AI Image</text>
  <text x="54" y="204" font-size="50" font-weight="900" fill="rgba(255,255,255,0.94)">Generator</text>
  <text x="54" y="246" font-size="17" font-weight="600" fill="rgba(255,255,255,0.75)">Create Stunning AI Images in Seconds</text>

  <text x="54" y="292" font-size="13" fill="rgba(255,255,255,0.44)">✓  8 styles — Realistic, Anime, Cyberpunk &amp; more</text>
  <text x="54" y="316" font-size="13" fill="rgba(255,255,255,0.44)">✓  Custom aspect ratios · High-res download</text>
  <text x="54" y="340" font-size="13" fill="rgba(255,255,255,0.44)">✓  Free · Commercial use · No sign-up</text>

  <rect x="54" y="376" width="248" height="46" rx="23" fill="url(#bG)" filter="url(#sh)"/>
  <text x="178" y="404" text-anchor="middle" font-size="15" font-weight="700" fill="#fff">Generate Free ✨</text>

  <!-- Right: UI mockup -->
  <rect x="430" y="38" width="726" height="554" rx="18" fill="url(#lapG)" stroke="rgba(167,139,250,0.2)" stroke-width="1.5" filter="url(#sh)"/>
  <rect x="430" y="38" width="726" height="30" rx="18" fill="rgba(167,139,250,0.06)"/>
  <circle cx="452" cy="53" r="5" fill="rgba(239,68,68,0.5)"/>
  <circle cx="470" cy="53" r="5" fill="rgba(251,191,36,0.5)"/>
  <circle cx="488" cy="53" r="5" fill="rgba(34,197,94,0.5)"/>
  <text x="793" y="58" text-anchor="middle" font-size="11" fill="rgba(255,255,255,0.22)">🖼 AI Image Generator — ToolNest AI</text>
  <rect x="1064" y="42" width="82" height="20" rx="10" fill="rgba(34,197,94,0.12)" stroke="rgba(34,197,94,0.28)" stroke-width="1"/>
  <text x="1105" y="56" text-anchor="middle" font-size="9" fill="rgba(34,197,94,0.85)">🛡 100% Secure</text>

  <!-- App header bar -->
  <rect x="430" y="68" width="726" height="34" fill="rgba(14,7,36,0.95)"/>
  <text x="458" y="89" font-size="12" font-weight="700" fill="rgba(255,255,255,0.68)">🖼 AI Image Generator</text>

  <!-- Left panel -->
  <rect x="430" y="102" width="295" height="490" fill="rgba(9,4,24,0.97)"/>
  <!-- Prompt tab -->
  <rect x="448" y="114" width="52" height="20" rx="5" fill="url(#bG)"/>
  <text x="474" y="127" text-anchor="middle" font-size="9" font-weight="600" fill="#fff">Prompt</text>
  <!-- Prompt box -->
  <rect x="448" y="142" width="262" height="72" rx="7" fill="rgba(28,14,56,0.8)" stroke="rgba(167,139,250,0.2)" stroke-width="1"/>
  <text x="462" y="160" font-size="9.5" fill="rgba(255,255,255,0.64)">A futuristic city skyline at sunset,</text>
  <text x="462" y="175" font-size="9.5" fill="rgba(255,255,255,0.64)">neon lights, flying cars, ultra detailed,</text>
  <text x="462" y="190" font-size="9.5" fill="rgba(255,255,255,0.64)">cinematic lighting, 8k</text>
  <text x="698" y="206" text-anchor="end" font-size="8" fill="rgba(255,255,255,0.22)">87 / 1000</text>

  <!-- Choose Style -->
  <text x="448" y="232" font-size="10" font-weight="600" fill="rgba(255,255,255,0.6)">Choose Style</text>
  <rect x="448" y="238" width="58" height="20" rx="4" fill="url(#bG)"/>
  <text x="477" y="251" text-anchor="middle" font-size="9" font-weight="600" fill="#fff">Realistic</text>
  <rect x="513" y="238" width="44" height="20" rx="4" fill="rgba(167,139,250,0.08)" stroke="rgba(167,139,250,0.18)" stroke-width="1"/>
  <text x="535" y="251" text-anchor="middle" font-size="9" fill="rgba(255,255,255,0.52)">Anime</text>
  <rect x="564" y="238" width="56" height="20" rx="4" fill="rgba(167,139,250,0.08)" stroke="rgba(167,139,250,0.18)" stroke-width="1"/>
  <text x="592" y="251" text-anchor="middle" font-size="9" fill="rgba(255,255,255,0.52)">3D Render</text>
  <rect x="627" y="238" width="58" height="20" rx="4" fill="rgba(167,139,250,0.06)" stroke="rgba(167,139,250,0.14)" stroke-width="1"/>
  <text x="656" y="251" text-anchor="middle" font-size="9" fill="rgba(255,255,255,0.45)">Cyberpunk</text>
  <rect x="448" y="264" width="56" height="20" rx="4" fill="rgba(167,139,250,0.06)" stroke="rgba(167,139,250,0.12)" stroke-width="1"/>
  <text x="476" y="277" text-anchor="middle" font-size="9" fill="rgba(255,255,255,0.42)">Digital Art</text>
  <rect x="511" y="264" width="48" height="20" rx="4" fill="rgba(167,139,250,0.06)" stroke="rgba(167,139,250,0.12)" stroke-width="1"/>
  <text x="535" y="277" text-anchor="middle" font-size="9" fill="rgba(255,255,255,0.42)">Fantasy</text>
  <rect x="566" y="264" width="58" height="20" rx="4" fill="rgba(167,139,250,0.06)" stroke="rgba(167,139,250,0.12)" stroke-width="1"/>
  <text x="595" y="277" text-anchor="middle" font-size="9" fill="rgba(255,255,255,0.42)">Minimalist</text>
  <rect x="631" y="264" width="52" height="20" rx="4" fill="rgba(167,139,250,0.06)" stroke="rgba(167,139,250,0.12)" stroke-width="1"/>
  <text x="657" y="277" text-anchor="middle" font-size="9" fill="rgba(255,255,255,0.42)">Painting</text>

  <!-- Aspect ratio -->
  <text x="448" y="302" font-size="10" font-weight="600" fill="rgba(255,255,255,0.6)">Aspect Ratio</text>
  <rect x="448" y="308" width="34" height="20" rx="4" fill="rgba(167,139,250,0.08)" stroke="rgba(167,139,250,0.18)" stroke-width="1"/>
  <text x="465" y="321" text-anchor="middle" font-size="8" fill="rgba(255,255,255,0.52)">1:1</text>
  <rect x="489" y="308" width="40" height="20" rx="4" fill="url(#bG)"/>
  <text x="509" y="321" text-anchor="middle" font-size="8" font-weight="700" fill="#fff">16:9</text>
  <rect x="536" y="308" width="36" height="20" rx="4" fill="rgba(167,139,250,0.06)" stroke="rgba(167,139,250,0.12)" stroke-width="1"/>
  <text x="554" y="321" text-anchor="middle" font-size="8" fill="rgba(255,255,255,0.42)">9:16</text>
  <rect x="579" y="308" width="32" height="20" rx="4" fill="rgba(167,139,250,0.06)" stroke="rgba(167,139,250,0.12)" stroke-width="1"/>
  <text x="595" y="321" text-anchor="middle" font-size="8" fill="rgba(255,255,255,0.42)">4:3</text>
  <rect x="618" y="308" width="48" height="20" rx="4" fill="rgba(167,139,250,0.06)" stroke="rgba(167,139,250,0.12)" stroke-width="1"/>
  <text x="642" y="321" text-anchor="middle" font-size="8" fill="rgba(255,255,255,0.42)">Custom</text>

  <!-- Advanced settings collapsed -->
  <rect x="448" y="340" width="262" height="24" rx="6" fill="rgba(167,139,250,0.05)" stroke="rgba(167,139,250,0.1)" stroke-width="1"/>
  <text x="462" y="355" font-size="9" fill="rgba(255,255,255,0.42)">☑ Advanced Settings</text>
  <text x="700" y="355" text-anchor="end" font-size="11" fill="rgba(255,255,255,0.3)">∨</text>

  <!-- Generate button -->
  <rect x="448" y="376" width="262" height="34" rx="9" fill="url(#bG)" filter="url(#sh)"/>
  <text x="579" y="397" text-anchor="middle" font-size="12" font-weight="700" fill="#fff">Generate Image ✨</text>

  <!-- Right panel: Generated image -->
  <rect x="725" y="102" width="431" height="490" fill="rgba(7,3,18,0.98)"/>
  <!-- Generated Image label -->
  <rect x="740" y="112" width="96" height="18" rx="5" fill="rgba(124,58,237,0.35)" stroke="rgba(167,139,250,0.3)" stroke-width="1"/>
  <text x="788" y="124" text-anchor="middle" font-size="8.5" font-weight="600" fill="#c4b5fd">Generated Image</text>

  <!-- City image area -->
  <rect x="733" y="136" width="414" height="290" rx="9" fill="url(#sunG)"/>
  <!-- Buildings silhouette -->
  <rect x="743" y="334" width="404" height="92" fill="#06020e" opacity="0.82"/>
  <rect x="753" y="300" width="22" height="126" fill="#08031c" opacity="0.9"/>
  <rect x="779" y="276" width="28" height="150" fill="#0b0528" opacity="0.9"/>
  <rect x="812" y="290" width="20" height="136" fill="#08031c" opacity="0.88"/>
  <rect x="837" y="262" width="32" height="164" fill="#0e072e" opacity="0.9"/>
  <rect x="874" y="278" width="24" height="148" fill="#08031c" opacity="0.88"/>
  <rect x="903" y="252" width="26" height="174" fill="#0a0420" opacity="0.9"/>
  <rect x="934" y="242" width="34" height="184" fill="#100830" opacity="0.92"/>
  <rect x="973" y="270" width="22" height="156" fill="#08031c" opacity="0.88"/>
  <rect x="1000" y="256" width="28" height="170" fill="#0a0420" opacity="0.9"/>
  <rect x="1033" y="278" width="20" height="148" fill="#08031c" opacity="0.88"/>
  <rect x="1058" y="264" width="24" height="162" fill="#0a0420" opacity="0.88"/>
  <rect x="1087" y="284" width="18" height="142" fill="#08031c" opacity="0.85"/>
  <rect x="1110" y="272" width="22" height="154" fill="#08031c" opacity="0.85"/>
  <rect x="1137" y="290" width="10" height="136" fill="#08031c" opacity="0.82"/>
  <!-- Neon windows -->
  <rect x="784" y="286" width="5" height="5" rx="1" fill="#f97316" opacity="0.72"/>
  <rect x="796" y="279" width="4" height="4" rx="1" fill="#a78bfa" opacity="0.66"/>
  <rect x="843" y="270" width="5" height="5" rx="1" fill="#60a5fa" opacity="0.65"/>
  <rect x="858" y="263" width="4" height="4" rx="1" fill="#f97316" opacity="0.6"/>
  <rect x="939" y="252" width="5" height="5" rx="1" fill="#a78bfa" opacity="0.7"/>
  <rect x="955" y="246" width="4" height="4" rx="1" fill="#60a5fa" opacity="0.65"/>
  <rect x="1008" y="264" width="5" height="5" rx="1" fill="#f97316" opacity="0.62"/>
  <rect x="1040" y="285" width="4" height="4" rx="1" fill="#a78bfa" opacity="0.6"/>
  <!-- Flying cars -->
  <ellipse cx="808" cy="210" rx="14" ry="5" fill="#f97316" opacity="0.72"/>
  <ellipse cx="970" cy="196" rx="12" ry="4" fill="#60a5fa" opacity="0.66"/>
  <ellipse cx="1060" cy="220" rx="13" ry="4.5" fill="#a78bfa" opacity="0.62"/>
  <!-- Sun -->
  <circle cx="960" cy="182" rx="44" ry="44" fill="#f97316" opacity="0.14"/>
  <circle cx="960" cy="182" rx="28" ry="28" fill="#fbbf24" opacity="0.2"/>

  <!-- Action row -->
  <rect x="733" y="436" width="110" height="28" rx="7" fill="rgba(167,139,250,0.1)" stroke="rgba(167,139,250,0.2)" stroke-width="1"/>
  <text x="788" y="454" text-anchor="middle" font-size="9.5" fill="rgba(255,255,255,0.62)">⬇ Download</text>
  <rect x="851" y="436" width="116" height="28" rx="7" fill="rgba(167,139,250,0.1)" stroke="rgba(167,139,250,0.2)" stroke-width="1"/>
  <text x="909" y="454" text-anchor="middle" font-size="9.5" fill="rgba(255,255,255,0.62)">↻ Regenerate</text>
  <rect x="975" y="436" width="86" height="28" rx="7" fill="rgba(167,139,250,0.1)" stroke="rgba(167,139,250,0.2)" stroke-width="1"/>
  <text x="1018" y="454" text-anchor="middle" font-size="9.5" fill="rgba(255,255,255,0.62)">↗ Share</text>

  <!-- Bottom strip -->
  <line x1="430" y1="556" x2="1156" y2="556" stroke="rgba(167,139,250,0.1)" stroke-width="1"/>
  <text x="510" y="580" text-anchor="middle" font-size="11" fill="rgba(255,255,255,0.35)">∞ Unlimited</text>
  <text x="660" y="580" text-anchor="middle" font-size="11" fill="rgba(255,255,255,0.35)">⏱ Fast</text>
  <text x="793" y="580" text-anchor="middle" font-size="11" fill="rgba(255,255,255,0.35)">✓ Commercial Use</text>
  <text x="940" y="580" text-anchor="middle" font-size="11" fill="rgba(255,255,255,0.35)">☁ Cloud Based</text>
  <text x="1080" y="580" text-anchor="middle" font-size="11" fill="rgba(255,255,255,0.35)">🔒 100% Secure</text>
</svg>
