<svg viewBox="0 0 1200 630" xmlns="http://www.w3.org/2000/svg" font-family="'Segoe UI',system-ui,sans-serif">
  <defs>
    <radialGradient id="bg" cx="50%" cy="50%" r="75%"><stop offset="0%" stop-color="#0d0520"/><stop offset="100%" stop-color="#07070f"/></radialGradient>
    <radialGradient id="gL" cx="20%" cy="50%" r="55%"><stop offset="0%" stop-color="#5b21b6" stop-opacity="0.35"/><stop offset="100%" stop-color="#5b21b6" stop-opacity="0"/></radialGradient>
    <radialGradient id="gR" cx="80%" cy="50%" r="45%"><stop offset="0%" stop-color="#2563eb" stop-opacity="0.22"/><stop offset="100%" stop-color="#2563eb" stop-opacity="0"/></radialGradient>
    <radialGradient id="orbG" cx="50%" cy="40%" r="60%"><stop offset="0%" stop-color="#a78bfa"/><stop offset="100%" stop-color="#6d28d9"/></radialGradient>
    <linearGradient id="aG" x1="0%" y1="0%" x2="100%" y2="0%"><stop offset="0%" stop-color="#a78bfa"/><stop offset="100%" stop-color="#60a5fa"/></linearGradient>
    <linearGradient id="bG" x1="0%" y1="0%" x2="100%" y2="0%"><stop offset="0%" stop-color="#7c3aed"/><stop offset="100%" stop-color="#4f46e5"/></linearGradient>
    <linearGradient id="lapG" x1="0%" y1="0%" x2="0%" y2="100%"><stop offset="0%" stop-color="#1a1135"/><stop offset="100%" stop-color="#0d0a1e"/></linearGradient>
    <linearGradient id="hL" x1="0%" y1="0%" x2="100%" y2="0%"><stop offset="0%" stop-color="#7c3aed" stop-opacity="0.9"/><stop offset="100%" stop-color="#60a5fa" stop-opacity="0.8"/></linearGradient>
    <linearGradient id="hL2" x1="0%" y1="0%" x2="100%" y2="0%"><stop offset="0%" stop-color="#818cf8" stop-opacity="0.85"/><stop offset="100%" stop-color="#60a5fa" stop-opacity="0.75"/></linearGradient>
    <filter id="sh"><feDropShadow dx="0" dy="8" stdDeviation="18" flood-color="#5b21b6" flood-opacity="0.5"/></filter>
    <filter id="glow"><feDropShadow dx="0" dy="0" stdDeviation="10" flood-color="#a78bfa" flood-opacity="0.7"/></filter>
    <filter id="gF"><feGaussianBlur stdDeviation="2.5" result="b"/><feMerge><feMergeNode in="b"/><feMergeNode in="SourceGraphic"/></feMerge></filter>
  </defs>

  <rect width="1200" height="630" fill="url(#bg)"/>
  <ellipse cx="240" cy="315" rx="560" ry="400" fill="url(#gL)"/>
  <ellipse cx="960" cy="315" rx="480" ry="360" fill="url(#gR)"/>

  <!-- Grid -->
  <g stroke="rgba(167,139,250,0.04)" stroke-width="1">
    <line x1="0" y1="126" x2="1200" y2="126"/><line x1="0" y1="252" x2="1200" y2="252"/>
    <line x1="0" y1="378" x2="1200" y2="378"/><line x1="0" y1="504" x2="1200" y2="504"/>
    <line x1="240" y1="0" x2="240" y2="630"/><line x1="480" y1="0" x2="480" y2="630"/>
    <line x1="720" y1="0" x2="720" y2="630"/><line x1="960" y1="0" x2="960" y2="630"/>
  </g>

  <!-- LEFT text -->
  <text x="54" y="72" font-size="13" font-weight="600" fill="#a78bfa" letter-spacing="2">TOOLNEST AI</text>
  <text x="54" y="118" font-size="44" font-weight="800" fill="url(#aG)" filter="url(#gF)">AI Prompt</text>
  <text x="54" y="166" font-size="44" font-weight="800" fill="#fff">Generator</text>
  <text x="54" y="202" font-size="16" font-weight="500" fill="rgba(255,255,255,0.6)">Create Better AI Prompts for</text>
  <text x="54" y="222" font-size="16" font-weight="500" fill="rgba(255,255,255,0.6)">ChatGPT, Claude &amp; Gemini</text>

  <g font-size="12" fill="rgba(255,255,255,0.58)">
    <rect x="54" y="244" width="22" height="22" rx="6" fill="rgba(167,139,250,0.15)" stroke="rgba(167,139,250,0.3)" stroke-width="1"/>
    <text x="65" y="260" text-anchor="middle" font-size="11" fill="#a78bfa">🧠</text>
    <text x="84" y="260">AI-Powered Prompts</text>

    <rect x="54" y="272" width="22" height="22" rx="6" fill="rgba(167,139,250,0.12)" stroke="rgba(167,139,250,0.25)" stroke-width="1"/>
    <text x="65" y="288" text-anchor="middle" font-size="11" fill="#60a5fa">🎯</text>
    <text x="84" y="288">Tailored to Your Needs</text>

    <rect x="54" y="300" width="22" height="22" rx="6" fill="rgba(167,139,250,0.12)" stroke="rgba(167,139,250,0.25)" stroke-width="1"/>
    <text x="65" y="316" text-anchor="middle" font-size="11" fill="#a78bfa">✦</text>
    <text x="84" y="316">Works with Top AI Models</text>

    <rect x="54" y="328" width="22" height="22" rx="6" fill="rgba(167,139,250,0.12)" stroke="rgba(167,139,250,0.25)" stroke-width="1"/>
    <text x="65" y="344" text-anchor="middle" font-size="11" fill="#60a5fa">⚡</text>
    <text x="84" y="344">Save Time &amp; Effort</text>

    <rect x="54" y="356" width="22" height="22" rx="6" fill="rgba(167,139,250,0.12)" stroke="rgba(167,139,250,0.25)" stroke-width="1"/>
    <text x="65" y="372" text-anchor="middle" font-size="11" fill="#a78bfa">📋</text>
    <text x="84" y="372">Unlimited Possibilities</text>
  </g>

  <!-- Laptop -->
  <rect x="340" y="36" width="700" height="478" rx="20" fill="url(#lapG)" stroke="rgba(167,139,250,0.22)" stroke-width="1.5" filter="url(#sh)"/>
  <rect x="340" y="36" width="700" height="32" rx="20" fill="rgba(167,139,250,0.08)"/>
  <circle cx="362" cy="52" r="5" fill="rgba(239,68,68,0.5)"/>
  <circle cx="380" cy="52" r="5" fill="rgba(251,191,36,0.5)"/>
  <circle cx="398" cy="52" r="5" fill="rgba(34,197,94,0.5)"/>
  <text x="690" y="57" text-anchor="middle" font-size="11" fill="rgba(255,255,255,0.28)">✦ AI Prompt Generator — ToolNest AI</text>
  <rect x="916" y="40" width="102" height="22" rx="11" fill="rgba(34,197,94,0.1)" stroke="rgba(34,197,94,0.3)" stroke-width="1"/>
  <text x="967" y="55" text-anchor="middle" font-size="10" fill="#4ade80">🛡 100% Secure</text>

  <!-- Left panel: Requirements -->
  <rect x="358" y="82" width="296" height="272" rx="12" fill="rgba(8,4,20,0.85)" stroke="rgba(167,139,250,0.18)" stroke-width="1"/>
  <rect x="372" y="96" width="120" height="22" rx="11" fill="rgba(167,139,250,0.25)" stroke="rgba(167,139,250,0.4)" stroke-width="1"/>
  <text x="432" y="111" text-anchor="middle" font-size="11" font-weight="600" fill="#c4b5fd">Your Requirements</text>
  <!-- textarea placeholder lines -->
  <rect x="372" y="130" width="270" height="130" rx="8" fill="rgba(167,139,250,0.05)" stroke="rgba(167,139,250,0.1)" stroke-width="1"/>
  <text x="386" y="152" font-size="11" fill="rgba(255,255,255,0.22)">Describe what you want the AI to do...</text>
  <text x="626" y="252" font-size="10" text-anchor="end" fill="rgba(255,255,255,0.2)">0 / 1000</text>

  <!-- AI Model row -->
  <text x="372" y="284" font-size="10" fill="rgba(255,255,255,0.38)">Choose AI Model</text>
  <rect x="372" y="292" width="68" height="24" rx="7" fill="rgba(16,185,129,0.2)" stroke="rgba(16,185,129,0.4)" stroke-width="1"/>
  <text x="406" y="308" text-anchor="middle" font-size="10" font-weight="600" fill="#34d399">ChatGPT</text>
  <rect x="448" y="292" width="60" height="24" rx="7" fill="rgba(96,165,250,0.15)" stroke="rgba(96,165,250,0.3)" stroke-width="1"/>
  <text x="478" y="308" text-anchor="middle" font-size="10" fill="#60a5fa">Claude</text>
  <rect x="516" y="292" width="62" height="24" rx="7" fill="rgba(167,139,250,0.1)" stroke="rgba(167,139,250,0.25)" stroke-width="1"/>
  <text x="547" y="308" text-anchor="middle" font-size="10" fill="#a78bfa">✦ Gemini</text>

  <!-- Tone row -->
  <text x="372" y="334" font-size="10" fill="rgba(255,255,255,0.38)">Choose Tone</text>
  <rect x="372" y="340" width="80" height="22" rx="6" fill="url(#bG)"/>
  <text x="412" y="355" text-anchor="middle" font-size="10" font-weight="600" fill="#fff">Professional</text>
  <rect x="460" y="340" width="60" height="22" rx="6" fill="rgba(167,139,250,0.08)" stroke="rgba(167,139,250,0.2)" stroke-width="1"/>
  <text x="490" y="355" text-anchor="middle" font-size="10" fill="rgba(255,255,255,0.5)">Friendly</text>
  <rect x="528" y="340" width="60" height="22" rx="6" fill="rgba(167,139,250,0.06)" stroke="rgba(167,139,250,0.15)" stroke-width="1"/>
  <text x="558" y="355" text-anchor="middle" font-size="10" fill="rgba(255,255,255,0.45)">Creative</text>

  <!-- Center orb -->
  <circle cx="668" cy="218" r="44" fill="rgba(109,40,217,0.15)" stroke="rgba(167,139,250,0.2)" stroke-width="1" stroke-dasharray="4,4"/>
  <circle cx="668" cy="218" r="32" fill="url(#orbG)" filter="url(#glow)"/>
  <text x="668" y="226" text-anchor="middle" font-size="20">✦</text>
  <text x="706" y="222" font-size="16" fill="rgba(167,139,250,0.7)">&gt;&gt;</text>

  <!-- Right panel: Generated Prompt -->
  <rect x="712" y="82" width="310" height="272" rx="12" fill="rgba(8,4,20,0.85)" stroke="rgba(96,165,250,0.2)" stroke-width="1"/>
  <rect x="726" y="96" width="120" height="22" rx="11" fill="rgba(124,58,237,0.35)" stroke="rgba(124,58,237,0.5)" stroke-width="1"/>
  <text x="786" y="111" text-anchor="middle" font-size="11" font-weight="600" fill="#c4b5fd">Generated Prompt</text>
  <rect x="726" y="130" width="284" height="10" rx="5" fill="url(#hL)"/>
  <rect x="726" y="148" width="258" height="10" rx="5" fill="url(#hL2)"/>
  <rect x="726" y="166" width="272" height="10" rx="5" fill="url(#hL)"/>
  <rect x="726" y="184" width="240" height="10" rx="5" fill="url(#hL2)"/>
  <rect x="726" y="202" width="284" height="10" rx="5" fill="url(#hL)"/>
  <rect x="726" y="220" width="220" height="10" rx="5" fill="url(#hL2)"/>
  <rect x="726" y="238" width="265" height="10" rx="5" fill="url(#hL)"/>
  <rect x="726" y="256" width="245" height="10" rx="5" fill="url(#hL2)"/>
  <rect x="726" y="274" width="284" height="10" rx="5" fill="url(#hL)"/>
  <rect x="726" y="292" width="200" height="10" rx="5" fill="url(#hL2)"/>
  <rect x="726" y="310" width="260" height="10" rx="5" fill="url(#hL)"/>
  <!-- Copy/speaker icons -->
  <rect x="978" y="332" width="22" height="22" rx="5" fill="rgba(167,139,250,0.1)" stroke="rgba(167,139,250,0.2)" stroke-width="1"/>
  <text x="989" y="347" text-anchor="middle" font-size="11" fill="#a78bfa">⎘</text>

  <!-- Length row -->
  <text x="358" y="378" font-size="10" fill="rgba(255,255,255,0.38)">Choose Length</text>
  <rect x="358" y="386" width="58" height="24" rx="7" fill="url(#bG)"/>
  <text x="387" y="402" text-anchor="middle" font-size="10" font-weight="600" fill="#fff">Short</text>
  <rect x="424" y="386" width="68" height="24" rx="7" fill="rgba(167,139,250,0.08)" stroke="rgba(167,139,250,0.2)" stroke-width="1"/>
  <text x="458" y="402" text-anchor="middle" font-size="10" fill="rgba(255,255,255,0.5)">Medium</text>
  <rect x="500" y="386" width="54" height="24" rx="7" fill="rgba(167,139,250,0.06)" stroke="rgba(167,139,250,0.15)" stroke-width="1"/>
  <text x="527" y="402" text-anchor="middle" font-size="10" fill="rgba(255,255,255,0.45)">Long</text>
  <rect x="562" y="386" width="68" height="24" rx="7" fill="rgba(167,139,250,0.06)" stroke="rgba(167,139,250,0.15)" stroke-width="1"/>
  <text x="596" y="402" text-anchor="middle" font-size="10" fill="rgba(255,255,255,0.4)">Detailed</text>

  <!-- Generate button -->
  <rect x="680" y="382" width="200" height="32" rx="16" fill="url(#bG)" filter="url(#sh)"/>
  <text x="780" y="402" text-anchor="middle" font-size="13" font-weight="700" fill="#fff">Generate Prompt ✦</text>
  <rect x="892" y="382" width="80" height="32" rx="16" fill="rgba(167,139,250,0.12)" stroke="rgba(167,139,250,0.28)" stroke-width="1"/>
  <text x="932" y="402" text-anchor="middle" font-size="12" fill="#a78bfa">⎘ Copy</text>

  <!-- Robot -->
  <ellipse cx="1102" cy="470" rx="46" ry="9" fill="rgba(124,58,237,0.3)"/>
  <rect x="1066" y="388" width="72" height="72" rx="22" fill="url(#bG)" filter="url(#glow)"/>
  <rect x="1074" y="398" width="22" height="16" rx="5" fill="rgba(255,255,255,0.15)"/>
  <rect x="1110" y="398" width="22" height="16" rx="5" fill="rgba(255,255,255,0.15)"/>
  <circle cx="1085" cy="406" r="5.5" fill="white"/>
  <circle cx="1121" cy="406" r="5.5" fill="white"/>
  <circle cx="1087" cy="406" r="2.5" fill="#6d28d9"/>
  <circle cx="1123" cy="406" r="2.5" fill="#6d28d9"/>
  <path d="M1083 430 Q1102 440 1121 430" stroke="rgba(255,255,255,0.7)" stroke-width="2.5" fill="none" stroke-linecap="round"/>
  <rect x="1084" y="460" width="36" height="44" rx="10" fill="url(#bG)"/>
  <circle cx="1102" cy="378" r="7" fill="url(#bG)" stroke="rgba(167,139,250,0.4)" stroke-width="1"/>
  <line x1="1102" y1="385" x2="1102" y2="389" stroke="rgba(167,139,250,0.5)" stroke-width="2"/>
  <rect x="1090" y="506" width="24" height="26" rx="7" fill="url(#bG)"/>
  <rect x="1114" y="506" width="24" height="26" rx="7" fill="url(#bG)"/>
  <rect x="1088" y="448" width="16" height="14" rx="3" fill="rgba(255,255,255,0.1)"/>
  <text x="1096" y="458" text-anchor="middle" font-size="7" font-weight="800" fill="white">AI</text>

  <!-- Bottom stats -->
  <line x1="54" y1="536" x2="1146" y2="536" stroke="rgba(167,139,250,0.1)" stroke-width="1"/>
  <g font-size="11" text-anchor="middle">
    <text x="130" y="558" fill="rgba(255,255,255,0.6)" font-size="16">∞</text>
    <text x="130" y="574" fill="rgba(255,255,255,0.45)">Unlimited Prompts</text>
    <text x="300" y="556" fill="rgba(34,197,94,0.8)" font-size="14">🛡</text>
    <text x="300" y="574" fill="rgba(255,255,255,0.45)">100% Secure</text>
    <text x="480" y="556" fill="rgba(167,139,250,0.8)" font-size="14">⏱</text>
    <text x="480" y="574" fill="rgba(255,255,255,0.45)">Save Hours</text>
    <text x="660" y="556" fill="rgba(96,165,250,0.8)" font-size="14">☁</text>
    <text x="660" y="574" fill="rgba(255,255,255,0.45)">Cloud Based</text>
    <text x="860" y="556" fill="rgba(96,165,250,0.8)" font-size="14">🌐</text>
    <text x="860" y="574" fill="rgba(255,255,255,0.45)">Works Everywhere</text>
    <text x="1060" y="556" fill="rgba(167,139,250,0.8)" font-size="14">📱</text>
    <text x="1060" y="574" fill="rgba(255,255,255,0.45)">Web &amp; Mobile</text>
  </g>
</svg>
