<svg viewBox="0 0 1200 630" xmlns="http://www.w3.org/2000/svg" font-family="'Segoe UI',system-ui,sans-serif">
  <defs>
    <radialGradient id="bg" cx="50%" cy="50%" r="75%"><stop offset="0%" stop-color="#0d0520"/><stop offset="100%" stop-color="#07070f"/></radialGradient>
    <radialGradient id="gL" cx="12%" cy="50%" r="55%"><stop offset="0%" stop-color="#5b21b6" stop-opacity="0.32"/><stop offset="100%" stop-color="#5b21b6" stop-opacity="0"/></radialGradient>
    <radialGradient id="gR" cx="85%" cy="50%" r="50%"><stop offset="0%" stop-color="#2563eb" stop-opacity="0.18"/><stop offset="100%" stop-color="#2563eb" stop-opacity="0"/></radialGradient>
    <linearGradient id="aG" x1="0%" y1="0%" x2="100%" y2="0%"><stop offset="0%" stop-color="#a78bfa"/><stop offset="100%" stop-color="#60a5fa"/></linearGradient>
    <linearGradient id="bG" x1="0%" y1="0%" x2="100%" y2="0%"><stop offset="0%" stop-color="#7c3aed"/><stop offset="100%" stop-color="#4f46e5"/></linearGradient>
    <linearGradient id="pG" x1="0%" y1="0%" x2="100%" y2="100%"><stop offset="0%" stop-color="#130b2e" stop-opacity="0.98"/><stop offset="100%" stop-color="#0c0820" stop-opacity="0.98"/></linearGradient>
    <linearGradient id="scoreG" x1="0%" y1="100%" x2="0%" y2="0%"><stop offset="0%" stop-color="#7c3aed"/><stop offset="100%" stop-color="#a78bfa"/></linearGradient>
    <filter id="sh"><feDropShadow dx="0" dy="8" stdDeviation="18" flood-color="#5b21b6" flood-opacity="0.35"/></filter>
    <filter id="glow"><feGaussianBlur stdDeviation="3" result="b"/><feMerge><feMergeNode in="b"/><feMergeNode in="SourceGraphic"/></feMerge></filter>
    <filter id="cardSh"><feDropShadow dx="0" dy="4" stdDeviation="10" flood-color="#000" flood-opacity="0.5"/></filter>
  </defs>

  <rect width="1200" height="630" fill="url(#bg)"/>
  <ellipse cx="130" cy="315" rx="460" ry="380" fill="url(#gL)"/>
  <ellipse cx="1070" cy="315" rx="430" ry="360" fill="url(#gR)"/>

  <!-- Top feature icons -->
  <g text-anchor="middle" font-size="10" fill="rgba(255,255,255,0.42)">
    <rect x="426" y="30" width="116" height="58" rx="10" fill="rgba(167,139,250,0.07)" stroke="rgba(167,139,250,0.18)" stroke-width="1"/>
    <text x="484" y="54" font-size="18">📋</text><text x="484" y="78">Product Details</text>
    <rect x="550" y="30" width="116" height="58" rx="10" fill="rgba(167,139,250,0.07)" stroke="rgba(167,139,250,0.18)" stroke-width="1"/>
    <text x="608" y="54" font-size="18">✍️</text><text x="608" y="78">AI Writing</text>
    <rect x="674" y="30" width="116" height="58" rx="10" fill="rgba(167,139,250,0.07)" stroke="rgba(167,139,250,0.18)" stroke-width="1"/>
    <text x="732" y="54" font-size="18">🔍</text><text x="732" y="78">SEO Optimized</text>
    <rect x="798" y="30" width="116" height="58" rx="10" fill="rgba(167,139,250,0.07)" stroke="rgba(167,139,250,0.18)" stroke-width="1"/>
    <text x="856" y="54" font-size="18">🛒</text><text x="856" y="78">Multi-Platform</text>
    <rect x="922" y="30" width="116" height="58" rx="10" fill="rgba(167,139,250,0.07)" stroke="rgba(167,139,250,0.18)" stroke-width="1"/>
    <text x="980" y="54" font-size="18">📈</text><text x="980" y="78">Boost Sales</text>
    <rect x="1046" y="30" width="110" height="58" rx="10" fill="rgba(167,139,250,0.07)" stroke="rgba(167,139,250,0.18)" stroke-width="1"/>
    <text x="1101" y="54" font-size="18">⚡</text><text x="1101" y="78">Ready to Use</text>
  </g>

  <!-- Left: Headline -->
  <text x="36" y="148" font-size="11" font-weight="700" fill="#a78bfa" letter-spacing="1.2">AI PRODUCT DESCRIPTION GENERATOR</text>
  <text x="36" y="198" font-size="38" font-weight="900" fill="url(#aG)" filter="url(#glow)" letter-spacing="-1">AI Product</text>
  <text x="36" y="244" font-size="38" font-weight="900" fill="url(#aG)" filter="url(#glow)" letter-spacing="-1">Description</text>
  <text x="36" y="290" font-size="38" font-weight="900" fill="url(#aG)" filter="url(#glow)" letter-spacing="-1">Generator</text>
  <text x="36" y="324" font-size="16" font-weight="700" fill="rgba(255,255,255,0.85)">Write Product Descriptions</text>
  <text x="36" y="346" font-size="16" font-weight="700" fill="rgba(255,255,255,0.85)">That Sell</text>
  <text x="36" y="376" font-size="12" fill="rgba(255,255,255,0.42)">Generate high-converting, SEO-friendly product</text>
  <text x="36" y="393" font-size="12" fill="rgba(255,255,255,0.42)">descriptions in seconds. Perfect for Shopify,</text>
  <text x="36" y="410" font-size="12" fill="rgba(255,255,255,0.42)">Amazon, Etsy, WooCommerce and more.</text>

  <!-- Feature bullets left -->
  <g font-size="11">
    <rect x="36" y="428" width="20" height="20" rx="5" fill="rgba(167,139,250,0.15)" stroke="rgba(167,139,250,0.3)" stroke-width="1"/>
    <text x="46" y="442" text-anchor="middle" font-size="10">✦</text>
    <text x="64" y="441" font-weight="600" fill="rgba(255,255,255,0.8)">AI-Powered Copywriting</text>
    <text x="64" y="456" font-size="10" fill="rgba(255,255,255,0.35)">Create compelling, persuasive and unique descriptions that boost sales</text>
    <rect x="36" y="466" width="20" height="20" rx="5" fill="rgba(96,165,250,0.12)" stroke="rgba(96,165,250,0.25)" stroke-width="1"/>
    <text x="46" y="480" text-anchor="middle" font-size="10">🔍</text>
    <text x="64" y="479" font-weight="600" fill="rgba(255,255,255,0.8)">SEO Optimized</text>
    <text x="64" y="494" font-size="10" fill="rgba(255,255,255,0.35)">Rank higher in search results with keyword-rich descriptions</text>
    <rect x="36" y="504" width="20" height="20" rx="5" fill="rgba(167,139,250,0.1)" stroke="rgba(167,139,250,0.22)" stroke-width="1"/>
    <text x="46" y="518" text-anchor="middle" font-size="10">🛒</text>
    <text x="64" y="517" font-weight="600" fill="rgba(255,255,255,0.8)">E-Commerce Ready</text>
    <text x="64" y="532" font-size="10" fill="rgba(255,255,255,0.35)">Perfect for Shopify, Amazon, Etsy, WooCommerce and more</text>
    <rect x="36" y="542" width="20" height="20" rx="5" fill="rgba(34,197,94,0.1)" stroke="rgba(34,197,94,0.22)" stroke-width="1"/>
    <text x="46" y="556" text-anchor="middle" font-size="10">⚡</text>
    <text x="64" y="555" font-weight="600" fill="rgba(255,255,255,0.8)">Save Time &amp; Effort</text>
    <text x="64" y="570" font-size="10" fill="rgba(255,255,255,0.35)">Generate professional content in seconds and grow your business</text>
  </g>

  <!-- Right: Interface Panel (laptop frame) -->
  <rect x="424" y="100" width="736" height="476" rx="18" fill="url(#pG)" stroke="rgba(167,139,250,0.18)" stroke-width="1" filter="url(#sh)"/>
  <!-- laptop screen bar -->
  <rect x="424" y="100" width="736" height="42" rx="18" fill="rgba(124,58,237,0.12)"/>
  <rect x="424" y="128" width="736" height="14" fill="rgba(124,58,237,0.12)"/>
  <circle cx="448" cy="121" r="5" fill="rgba(255,99,99,0.5)"/>
  <circle cx="465" cy="121" r="5" fill="rgba(255,193,7,0.5)"/>
  <circle cx="482" cy="121" r="5" fill="rgba(34,197,94,0.5)"/>
  <text x="600" y="126" text-anchor="middle" font-size="11" font-weight="600" fill="rgba(255,255,255,0.55)">✦ AI Product Description Generator</text>
  <rect x="1060" y="114" width="88" height="20" rx="5" fill="rgba(124,58,237,0.2)" stroke="rgba(167,139,250,0.3)" stroke-width="1"/>
  <text x="1104" y="128" text-anchor="middle" font-size="9" fill="#a78bfa">Powered by AI ✦</text>

  <!-- Left form column -->
  <text x="444" y="162" font-size="11" font-weight="700" fill="rgba(255,255,255,0.6)">Product Information</text>
  <!-- Product Name -->
  <text x="444" y="184" font-size="10" fill="rgba(255,255,255,0.4)">Product Name</text>
  <rect x="444" y="188" width="298" height="26" rx="6" fill="rgba(255,255,255,0.05)" stroke="rgba(255,255,255,0.1)" stroke-width="1"/>
  <text x="454" y="205" font-size="10" fill="rgba(255,255,255,0.55)">Wireless Bluetooth Headphones</text>
  <!-- Key Features -->
  <text x="444" y="228" font-size="10" fill="rgba(255,255,255,0.4)">Key Features</text>
  <rect x="444" y="232" width="298" height="52" rx="6" fill="rgba(255,255,255,0.05)" stroke="rgba(255,255,255,0.1)" stroke-width="1"/>
  <text x="454" y="248" font-size="10" fill="rgba(255,255,255,0.5)">Noise cancellation, 40h battery,</text>
  <text x="454" y="262" font-size="10" fill="rgba(255,255,255,0.5)">comfort fit, foldable design,</text>
  <text x="454" y="276" font-size="10" fill="rgba(255,255,255,0.5)">built-in mic</text>
  <!-- Target Audience -->
  <text x="444" y="300" font-size="10" fill="rgba(255,255,255,0.4)">Target Audience</text>
  <rect x="444" y="304" width="298" height="42" rx="6" fill="rgba(255,255,255,0.05)" stroke="rgba(255,255,255,0.1)" stroke-width="1"/>
  <text x="454" y="320" font-size="10" fill="rgba(255,255,255,0.5)">Music lovers, professionals,</text>
  <text x="454" y="334" font-size="10" fill="rgba(255,255,255,0.5)">travelers, students</text>
  <!-- Tone of Voice -->
  <text x="444" y="362" font-size="10" fill="rgba(255,255,255,0.4)">Tone of Voice</text>
  <rect x="444" y="366" width="298" height="26" rx="6" fill="rgba(255,255,255,0.05)" stroke="rgba(255,255,255,0.1)" stroke-width="1"/>
  <text x="454" y="383" font-size="10" fill="rgba(255,255,255,0.55)">🎯 Professional</text>
  <text x="730" y="383" text-anchor="end" font-size="10" fill="rgba(255,255,255,0.3)">▾</text>
  <!-- Platform -->
  <text x="444" y="406" font-size="10" fill="rgba(255,255,255,0.4)">Platform</text>
  <rect x="444" y="410" width="298" height="26" rx="6" fill="rgba(255,255,255,0.05)" stroke="rgba(255,255,255,0.1)" stroke-width="1"/>
  <text x="454" y="427" font-size="10" fill="rgba(255,255,255,0.55)">🛒 Shopify</text>
  <text x="730" y="427" text-anchor="end" font-size="10" fill="rgba(255,255,255,0.3)">▾</text>
  <!-- Generate button -->
  <rect x="444" y="448" width="298" height="36" rx="12" fill="url(#bG)" filter="url(#sh)"/>
  <text x="593" y="471" text-anchor="middle" font-size="13" font-weight="700" fill="#fff">✦ Generate Description</text>

  <!-- Divider -->
  <line x1="756" y1="148" x2="756" y2="556" stroke="rgba(255,255,255,0.06)" stroke-width="1"/>

  <!-- Right output column -->
  <text x="774" y="162" font-size="11" font-weight="700" fill="rgba(255,255,255,0.6)">Generated Description</text>
  <rect x="1098" y="154" width="48" height="20" rx="5" fill="rgba(255,255,255,0.06)" stroke="rgba(255,255,255,0.08)" stroke-width="1"/>
  <text x="1122" y="167" text-anchor="middle" font-size="9" fill="rgba(255,255,255,0.4)">📋 Copy</text>
  <!-- Product title -->
  <text x="774" y="188" font-size="12" font-weight="700" fill="url(#aG)">Wireless Bluetooth Headphones –</text>
  <text x="774" y="204" font-size="12" font-weight="700" fill="url(#aG)">Premium Sound, All-Day Comfort</text>
  <!-- Description text -->
  <text x="774" y="225" font-size="10" fill="rgba(255,255,255,0.5)">Experience music like never before with our Wireless</text>
  <text x="774" y="238" font-size="10" fill="rgba(255,255,255,0.5)">Bluetooth Headphones. Designed for those who demand</text>
  <text x="774" y="251" font-size="10" fill="rgba(255,255,255,0.5)">premium sound and all-day comfort, these headphones</text>
  <text x="774" y="264" font-size="10" fill="rgba(255,255,255,0.5)">deliver an immersive audio experience.</text>
  <!-- Bullet points with checkmarks -->
  <g font-size="10" fill="rgba(255,255,255,0.65)">
    <text x="774" y="285" fill="#4ade80">✓</text><text x="790" y="285"><tspan font-weight="600">Advanced Noise Cancellation</tspan> – Block distractions</text>
    <text x="774" y="300" fill="#4ade80">✓</text><text x="790" y="300"><tspan font-weight="600">Up to 40 Hours Battery Life</tspan> – Music all day long</text>
    <text x="774" y="315" fill="#4ade80">✓</text><text x="790" y="315"><tspan font-weight="600">Ultra Comfort Fit</tspan> – Soft cushions and adjustable band</text>
    <text x="774" y="330" fill="#4ade80">✓</text><text x="790" y="330"><tspan font-weight="600">Built-in Microphone</tspan> – Clear calls and voice access</text>
    <text x="774" y="345" fill="#4ade80">✓</text><text x="790" y="345"><tspan font-weight="600">Foldable &amp; Lightweight</tspan> – Easy to carry anywhere</text>
  </g>
  <text x="774" y="364" font-size="10" fill="rgba(255,255,255,0.45)">Perfect for music lovers, professionals and travelers.</text>
  <text x="774" y="378" font-size="10" font-weight="600" fill="#a78bfa">Upgrade your audio experience today!</text>

  <!-- SEO Score + Keywords row -->
  <line x1="774" y1="394" x2="1150" y2="394" stroke="rgba(255,255,255,0.06)" stroke-width="1"/>
  <!-- SEO Score gauge -->
  <text x="774" y="412" font-size="9" fill="rgba(255,255,255,0.4)">SEO Score</text>
  <circle cx="806" cy="443" r="24" fill="none" stroke="rgba(255,255,255,0.07)" stroke-width="5"/>
  <circle cx="806" cy="443" r="24" fill="none" stroke="url(#aG)" stroke-width="5" stroke-dasharray="115 36" stroke-linecap="round" transform="rotate(-90 806 443)"/>
  <text x="806" y="439" text-anchor="middle" font-size="11" font-weight="900" fill="#a78bfa">96</text>
  <text x="806" y="452" text-anchor="middle" font-size="7" fill="rgba(255,255,255,0.35)">/100</text>
  <!-- Keywords -->
  <text x="848" y="412" font-size="9" fill="rgba(255,255,255,0.4)">Primary Keywords</text>
  <g font-size="9" font-weight="600">
    <rect x="848" y="417" width="92" height="16" rx="4" fill="rgba(124,58,237,0.2)" stroke="rgba(167,139,250,0.3)" stroke-width="1"/>
    <text x="894" y="429" text-anchor="middle" fill="#a78bfa">wireless headphones</text>
    <rect x="946" y="417" width="96" height="16" rx="4" fill="rgba(124,58,237,0.2)" stroke="rgba(167,139,250,0.3)" stroke-width="1"/>
    <text x="994" y="429" text-anchor="middle" fill="#a78bfa">bluetooth headphones</text>
    <rect x="1048" y="417" width="92" height="16" rx="4" fill="rgba(124,58,237,0.2)" stroke="rgba(167,139,250,0.3)" stroke-width="1"/>
    <text x="1094" y="429" text-anchor="middle" fill="#a78bfa">noise cancellation</text>
    <rect x="848" y="437" width="78" height="16" rx="4" fill="rgba(124,58,237,0.15)" stroke="rgba(167,139,250,0.2)" stroke-width="1"/>
    <text x="887" y="449" text-anchor="middle" fill="#c4b5fd">long battery life</text>
    <rect x="932" y="437" width="102" height="16" rx="4" fill="rgba(124,58,237,0.15)" stroke="rgba(167,139,250,0.2)" stroke-width="1"/>
    <text x="983" y="449" text-anchor="middle" fill="#c4b5fd">comfortable headphones</text>
  </g>
  <!-- Readability -->
  <text x="1060" y="412" font-size="9" fill="rgba(255,255,255,0.4)">Readability</text>
  <text x="1072" y="434" font-size="14" font-weight="900" fill="#4ade80">Excellent</text>
  <text x="1072" y="449" font-size="9" fill="rgba(255,255,255,0.4)">Grade 8</text>

  <!-- Bottom stats bar -->
  <rect x="0" y="572" width="1200" height="58" fill="rgba(167,139,250,0.04)"/>
  <line x1="0" y1="572" x2="1200" y2="572" stroke="rgba(167,139,250,0.1)" stroke-width="1"/>
  <g text-anchor="middle" font-size="10" fill="rgba(255,255,255,0.38)">
    <text x="100" y="594">📈 Increase Sales</text><text x="100" y="610" font-size="9" fill="rgba(255,255,255,0.22)">High-converting descriptions</text>
    <line x1="200" y1="578" x2="200" y2="622" stroke="rgba(255,255,255,0.06)" stroke-width="1"/>
    <text x="300" y="594">🔍 SEO Friendly</text><text x="300" y="610" font-size="9" fill="rgba(255,255,255,0.22)">Keyword-rich content</text>
    <line x1="400" y1="578" x2="400" y2="622" stroke="rgba(255,255,255,0.06)" stroke-width="1"/>
    <text x="500" y="594">🛒 Multi-Platform</text><text x="500" y="610" font-size="9" fill="rgba(255,255,255,0.22)">Shopify, Amazon, Etsy &amp; more</text>
    <line x1="600" y1="578" x2="600" y2="622" stroke="rgba(255,255,255,0.06)" stroke-width="1"/>
    <text x="700" y="594">✦ Unique Content</text><text x="700" y="610" font-size="9" fill="rgba(255,255,255,0.22)">100% original AI-generated</text>
    <line x1="800" y1="578" x2="800" y2="622" stroke="rgba(255,255,255,0.06)" stroke-width="1"/>
    <text x="900" y="594">⏱ Save Hours</text><text x="900" y="610" font-size="9" fill="rgba(255,255,255,0.22)">Create in seconds, not hours</text>
    <line x1="1000" y1="578" x2="1000" y2="622" stroke="rgba(255,255,255,0.06)" stroke-width="1"/>
    <text x="1100" y="594">👥 Trusted by Sellers</text><text x="1100" y="610" font-size="9" fill="rgba(255,255,255,0.22)">Join thousands of e-commerce sellers</text>
  </g>
</svg>
