<svg viewBox="0 0 1200 630" xmlns="http://www.w3.org/2000/svg" font-family="'Segoe UI',system-ui,sans-serif">
  <defs>
    <radialGradient id="bg" cx="25%" cy="55%" r="80%">
      <stop offset="0%" stop-color="#0e0820"/><stop offset="100%" stop-color="#08080f"/>
    </radialGradient>
    <radialGradient id="gL" cx="50%" cy="50%" r="55%">
      <stop offset="0%" stop-color="#5b21b6" stop-opacity="0.42"/><stop offset="100%" stop-color="#5b21b6" stop-opacity="0"/>
    </radialGradient>
    <radialGradient id="gR" cx="50%" cy="50%" r="50%">
      <stop offset="0%" stop-color="#2563eb" stop-opacity="0.22"/><stop offset="100%" stop-color="#2563eb" stop-opacity="0"/>
    </radialGradient>
    <radialGradient id="aiCircle" cx="50%" cy="50%" r="50%">
      <stop offset="0%" stop-color="#7c3aed" stop-opacity="0.9"/><stop offset="100%" stop-color="#4338ca" stop-opacity="0.8"/>
    </radialGradient>
    <linearGradient id="aG" x1="0%" y1="0%" x2="100%" y2="0%">
      <stop offset="0%" stop-color="#a78bfa"/><stop offset="100%" stop-color="#60a5fa"/>
    </linearGradient>
    <linearGradient id="bG" x1="0%" y1="0%" x2="100%" y2="0%">
      <stop offset="0%" stop-color="#7c3aed"/><stop offset="100%" stop-color="#4f46e5"/>
    </linearGradient>
    <linearGradient id="pG" x1="0%" y1="0%" x2="100%" y2="100%">
      <stop offset="0%" stop-color="#1a0e38" stop-opacity="0.97"/><stop offset="100%" stop-color="#0c0820" stop-opacity="0.97"/>
    </linearGradient>
    <linearGradient id="barOut" x1="0%" y1="0%" x2="100%" y2="0%">
      <stop offset="0%" stop-color="#a78bfa"/><stop offset="100%" stop-color="#60a5fa"/>
    </linearGradient>
    <filter id="sh"><feDropShadow dx="0" dy="10" stdDeviation="20" flood-color="#5b21b6" flood-opacity="0.5"/></filter>
    <filter id="aiGlow"><feDropShadow dx="0" dy="0" stdDeviation="18" flood-color="#7c3aed" flood-opacity="0.8"/></filter>
    <filter id="gF"><feGaussianBlur stdDeviation="3" result="b"/><feMerge><feMergeNode in="b"/><feMergeNode in="SourceGraphic"/></feMerge></filter>
    <filter id="rSh"><feDropShadow dx="0" dy="15" stdDeviation="25" flood-color="#7c3aed" flood-opacity="0.6"/></filter>
  </defs>

  <rect width="1200" height="630" fill="url(#bg)"/>
  <ellipse cx="190" cy="310" rx="420" ry="370" fill="url(#gL)"/>
  <ellipse cx="970" cy="330" rx="370" ry="320" fill="url(#gR)"/>

  <!-- dot grid -->
  <g fill="rgba(255,255,255,0.032)">
    <circle cx="100" cy="90" r="1.5"/> <circle cx="200" cy="90" r="1.5"/> <circle cx="300" cy="90" r="1.5"/> <circle cx="400" cy="90" r="1.5"/> <circle cx="500" cy="90" r="1.5"/> <circle cx="600" cy="90" r="1.5"/> <circle cx="700" cy="90" r="1.5"/> <circle cx="800" cy="90" r="1.5"/> <circle cx="900" cy="90" r="1.5"/> <circle cx="1000" cy="90" r="1.5"/> <circle cx="1100" cy="90" r="1.5"/>
    <circle cx="100" cy="190" r="1.5"/> <circle cx="200" cy="190" r="1.5"/> <circle cx="300" cy="190" r="1.5"/> <circle cx="400" cy="190" r="1.5"/> <circle cx="500" cy="190" r="1.5"/> <circle cx="600" cy="190" r="1.5"/> <circle cx="700" cy="190" r="1.5"/> <circle cx="800" cy="190" r="1.5"/> <circle cx="900" cy="190" r="1.5"/> <circle cx="1000" cy="190" r="1.5"/> <circle cx="1100" cy="190" r="1.5"/>
    <circle cx="100" cy="290" r="1.5"/> <circle cx="200" cy="290" r="1.5"/> <circle cx="300" cy="290" r="1.5"/> <circle cx="400" cy="290" r="1.5"/> <circle cx="500" cy="290" r="1.5"/> <circle cx="600" cy="290" r="1.5"/> <circle cx="700" cy="290" r="1.5"/> <circle cx="800" cy="290" r="1.5"/> <circle cx="900" cy="290" r="1.5"/> <circle cx="1000" cy="290" r="1.5"/> <circle cx="1100" cy="290" r="1.5"/>
    <circle cx="100" cy="390" r="1.5"/> <circle cx="200" cy="390" r="1.5"/> <circle cx="300" cy="390" r="1.5"/> <circle cx="400" cy="390" r="1.5"/> <circle cx="500" cy="390" r="1.5"/> <circle cx="600" cy="390" r="1.5"/> <circle cx="700" cy="390" r="1.5"/> <circle cx="800" cy="390" r="1.5"/> <circle cx="900" cy="390" r="1.5"/> <circle cx="1000" cy="390" r="1.5"/> <circle cx="1100" cy="390" r="1.5"/>
    <circle cx="100" cy="490" r="1.5"/> <circle cx="200" cy="490" r="1.5"/> <circle cx="300" cy="490" r="1.5"/> <circle cx="400" cy="490" r="1.5"/> <circle cx="500" cy="490" r="1.5"/> <circle cx="600" cy="490" r="1.5"/> <circle cx="700" cy="490" r="1.5"/> <circle cx="800" cy="490" r="1.5"/> <circle cx="900" cy="490" r="1.5"/> <circle cx="1000" cy="490" r="1.5"/> <circle cx="1100" cy="490" r="1.5"/>
    <circle cx="100" cy="590" r="1.5"/> <circle cx="200" cy="590" r="1.5"/> <circle cx="300" cy="590" r="1.5"/> <circle cx="400" cy="590" r="1.5"/> <circle cx="500" cy="590" r="1.5"/> <circle cx="600" cy="590" r="1.5"/> <circle cx="700" cy="590" r="1.5"/> <circle cx="800" cy="590" r="1.5"/> <circle cx="900" cy="590" r="1.5"/> <circle cx="1000" cy="590" r="1.5"/> <circle cx="1100" cy="590" r="1.5"/>
  </g>

  <!-- LEFT: headline -->
  <rect x="52" y="46" width="158" height="36" rx="18" fill="rgba(167,139,250,0.12)" stroke="rgba(167,139,250,0.3)" stroke-width="1"/>
  <text x="131" y="69" text-anchor="middle" font-size="13" font-weight="600" fill="#a78bfa">✦ ToolNest AI</text>

  <text x="52" y="152" font-size="64" font-weight="800" fill="url(#aG)" filter="url(#gF)">AI Paraphras-</text>
  <text x="52" y="228" font-size="64" font-weight="800" fill="#ffffff">ing Tool</text>

  <text x="52" y="276" font-size="17" fill="rgba(255,255,255,0.52)">Rewrite Text Naturally</text>
  <text x="52" y="299" font-size="17" fill="rgba(255,255,255,0.52)">Without Losing Meaning</text>

  <g font-size="13" fill="rgba(255,255,255,0.65)">
    <text x="52" y="340">✦  AI-Powered — Human-like rewriting</text>
    <text x="52" y="364">⚡  Fast &amp; Accurate — Instant paraphrases</text>
    <text x="52" y="388">✓  Original &amp; Unique — 100% plagiarism-free</text>
    <text x="52" y="412">☰  Multi-Style Modes — Choose the perfect tone</text>
  </g>

  <rect x="52" y="444" width="248" height="50" rx="25" fill="url(#bG)" filter="url(#sh)"/>
  <text x="176" y="474" text-anchor="middle" font-size="15" font-weight="700" fill="#fff">✦ Paraphrase Now</text>

  <!-- stats strip -->
  <g font-size="11" fill="rgba(255,255,255,0.35)">
    <text x="52" y="552">∞ Unlimited</text><text x="52" y="568">Paraphrases</text>
    <text x="165" y="552">🔒 No Sign Up</text><text x="165" y="568">Required</text>
    <text x="278" y="552">✓ Secure &amp; Safe</text><text x="278" y="568">Your Data is Safe</text>
  </g>

  <!-- CENTRE: Two-panel paraphrase UI -->
  <rect x="405" y="58" width="610" height="420" rx="16" fill="url(#pG)" stroke="rgba(167,139,250,0.15)" stroke-width="1" filter="url(#sh)"/>
  <rect x="405" y="58" width="610" height="36" rx="16" fill="rgba(255,255,255,0.03)"/>
  <rect x="405" y="58" width="610" height="4" rx="2" fill="url(#aG)"/>
  <!-- Title bar text -->
  <text x="436" y="81" font-size="13" font-weight="600" fill="rgba(255,255,255,0.6)">✦ AI Paraphrasing Tool</text>
  <!-- 100% Unique badge -->
  <rect x="878" y="66" width="120" height="24" rx="12" fill="rgba(34,197,94,0.1)" stroke="rgba(34,197,94,0.28)" stroke-width="1"/>
  <text x="938" y="82" text-anchor="middle" font-size="11" fill="#4ade80">✓ 100% Unique</text>

  <!-- Original Text panel -->
  <rect x="420" y="105" width="265" height="200" rx="10" fill="rgba(0,0,0,0.3)" stroke="rgba(255,255,255,0.07)" stroke-width="1"/>
  <text x="434" y="124" font-size="11" fill="rgba(255,255,255,0.45)">Original Text</text>
  <rect x="432" y="133" width="240" height="7" rx="3.5" fill="rgba(255,255,255,0.12)"/>
  <rect x="432" y="146" width="210" height="7" rx="3.5" fill="rgba(255,255,255,0.09)"/>
  <rect x="432" y="159" width="225" height="7" rx="3.5" fill="rgba(255,255,255,0.09)"/>
  <rect x="432" y="172" width="195" height="7" rx="3.5" fill="rgba(255,255,255,0.07)"/>
  <rect x="432" y="197" width="240" height="7" rx="3.5" fill="rgba(255,255,255,0.07)"/>
  <rect x="432" y="210" width="220" height="7" rx="3.5" fill="rgba(255,255,255,0.06)"/>
  <rect x="432" y="223" width="200" height="7" rx="3.5" fill="rgba(255,255,255,0.06)"/>
  <rect x="432" y="248" width="240" height="7" rx="3.5" fill="rgba(255,255,255,0.06)"/>
  <rect x="432" y="261" width="180" height="7" rx="3.5" fill="rgba(255,255,255,0.05)"/>

  <!-- AI circle in center -->
  <circle cx="685" cy="205" r="38" fill="url(#aiCircle)" filter="url(#aiGlow)"/>
  <circle cx="685" cy="205" r="48" fill="none" stroke="rgba(167,139,250,0.25)" stroke-width="1.5" stroke-dasharray="6 4"/>
  <text x="685" y="213" text-anchor="middle" font-size="22" font-weight="800" fill="#fff">AI</text>
  <!-- arrows -->
  <text x="660" y="209" text-anchor="end" font-size="16" fill="rgba(167,139,250,0.6)">»</text>
  <text x="710" y="209" font-size="16" fill="rgba(167,139,250,0.6)">»</text>

  <!-- Paraphrased Text panel -->
  <rect x="695" y="105" width="302" height="200" rx="10" fill="rgba(0,0,0,0.3)" stroke="rgba(167,139,250,0.18)" stroke-width="1"/>
  <text x="709" y="124" font-size="11" fill="rgba(167,139,250,0.7)">Paraphrased Text</text>
  <rect x="709" y="133" width="274" height="7" rx="3.5" fill="url(#barOut)" opacity="0.35"/>
  <rect x="709" y="146" width="240" height="7" rx="3.5" fill="url(#barOut)" opacity="0.28"/>
  <rect x="709" y="159" width="260" height="7" rx="3.5" fill="url(#barOut)" opacity="0.25"/>
  <rect x="709" y="172" width="210" height="7" rx="3.5" fill="url(#barOut)" opacity="0.2"/>
  <rect x="709" y="197" width="274" height="7" rx="3.5" fill="url(#barOut)" opacity="0.22"/>
  <rect x="709" y="210" width="250" height="7" rx="3.5" fill="url(#barOut)" opacity="0.18"/>
  <rect x="709" y="223" width="230" height="7" rx="3.5" fill="url(#barOut)" opacity="0.15"/>
  <rect x="709" y="248" width="274" height="7" rx="3.5" fill="url(#barOut)" opacity="0.15"/>
  <rect x="709" y="261" width="200" height="7" rx="3.5" fill="url(#barOut)" opacity="0.12"/>

  <!-- Mode buttons -->
  <text x="420" y="328" font-size="11" fill="rgba(255,255,255,0.4)">Choose Mode</text>
  <rect x="420" y="338" width="100" height="34" rx="8" fill="url(#bG)"/>
  <text x="470" y="359" text-anchor="middle" font-size="12" font-weight="700" fill="#fff">☰ Standard</text>
  <rect x="528" y="338" width="90" height="34" rx="8" fill="rgba(255,255,255,0.05)" stroke="rgba(255,255,255,0.1)" stroke-width="1"/>
  <text x="573" y="359" text-anchor="middle" font-size="12" fill="rgba(255,255,255,0.55)">≋ Fluency</text>
  <rect x="626" y="338" width="80" height="34" rx="8" fill="rgba(255,255,255,0.05)" stroke="rgba(255,255,255,0.1)" stroke-width="1"/>
  <text x="666" y="359" text-anchor="middle" font-size="12" fill="rgba(255,255,255,0.55)">⊞ Formal</text>
  <rect x="714" y="338" width="94" height="34" rx="8" fill="rgba(255,255,255,0.05)" stroke="rgba(255,255,255,0.1)" stroke-width="1"/>
  <text x="761" y="359" text-anchor="middle" font-size="12" fill="rgba(255,255,255,0.55)">✦ Creative</text>

  <!-- CTA in panel -->
  <rect x="420" y="392" width="585" height="46" rx="23" fill="url(#bG)" filter="url(#sh)"/>
  <text x="712" y="420" text-anchor="middle" font-size="16" font-weight="700" fill="#fff">Paraphrase Now ✦</text>

  <!-- floating icons -->
  <rect x="690" y="44" width="50" height="50" rx="12" fill="rgba(91,33,182,0.22)" stroke="rgba(91,33,182,0.45)" stroke-width="1.5"/>
  <text x="715" y="75" text-anchor="middle" font-size="22" fill="#a78bfa">✎</text>
  <rect x="796" y="34" width="48" height="48" rx="12" fill="rgba(37,99,235,0.16)" stroke="rgba(96,165,250,0.35)" stroke-width="1.5"/>
  <text x="820" y="64" text-anchor="middle" font-size="20" fill="#60a5fa">≡</text>
  <rect x="1112" y="45" width="56" height="56" rx="14" fill="rgba(167,139,250,0.12)" stroke="rgba(167,139,250,0.28)" stroke-width="1.5"/>
  <text x="1140" y="79" text-anchor="middle" font-size="26" fill="#c4b5fd">T</text>

  <!-- AI Robot -->
  <ellipse cx="1120" cy="548" rx="68" ry="16" fill="rgba(91,33,182,0.35)" filter="url(#rSh)"/>
  <rect x="1063" y="375" width="114" height="148" rx="24" fill="#160a30" stroke="#7c3aed" stroke-width="2"/>
  <rect x="1078" y="422" width="84" height="52" rx="12" fill="url(#bG)"/>
  <text x="1120" y="454" text-anchor="middle" font-size="26" font-weight="800" fill="#fff">AI</text>
  <rect x="1073" y="298" width="94" height="82" rx="22" fill="#160a30" stroke="#7c3aed" stroke-width="2"/>
  <circle cx="1097" cy="334" r="10" fill="#0e0820"/><circle cx="1143" cy="334" r="10" fill="#0e0820"/>
  <circle cx="1097" cy="334" r="6" fill="#7c3aed"/><circle cx="1143" cy="334" r="6" fill="#7c3aed"/>
  <circle cx="1099" cy="332" r="2.5" fill="white"/><circle cx="1145" cy="332" r="2.5" fill="white"/>
  <path d="M 1099 352 Q 1120 364 1141 352" stroke="#a78bfa" stroke-width="2.5" fill="none" stroke-linecap="round"/>
  <line x1="1120" y1="298" x2="1120" y2="272" stroke="#7c3aed" stroke-width="2.5"/>
  <circle cx="1120" cy="263" r="7" fill="#a78bfa"/>
  <rect x="1008" y="398" width="55" height="22" rx="11" fill="#160a30" stroke="#7c3aed" stroke-width="1.5"/>
  <rect x="1177" y="398" width="55" height="22" rx="11" fill="#160a30" stroke="#7c3aed" stroke-width="1.5"/>
  <ellipse cx="1120" cy="524" rx="52" ry="8" fill="rgba(91,33,182,0.4)"/>

  <!-- bottom stat bar -->
  <rect x="52" y="595" width="1096" height="26" rx="5" fill="rgba(255,255,255,0.02)"/>
  <g text-anchor="middle" font-size="11" fill="rgba(255,255,255,0.32)">
    <text x="200" y="612">∞ Unlimited Paraphrases</text>
    <text x="430" y="612">🔒 No Sign Up Required</text>
    <text x="660" y="612">✓ Secure &amp; Safe</text>
    <text x="880" y="612">⏱ Saves Time</text>
    <text x="1080" y="612">🌐 Works Everywhere</text>
  </g>
</svg>
