<svg viewBox="0 0 1200 630" xmlns="http://www.w3.org/2000/svg" font-family="'Segoe UI',system-ui,sans-serif">
  <defs>
    <radialGradient id="bg" cx="35%" cy="50%" r="75%"><stop offset="0%" stop-color="#1a0a2e"/><stop offset="100%" stop-color="#09090f"/></radialGradient>
    <radialGradient id="glow1" cx="50%" cy="50%" r="50%"><stop offset="0%" stop-color="#7c3aed" stop-opacity="0.35"/><stop offset="100%" stop-color="#7c3aed" stop-opacity="0"/></radialGradient>
    <radialGradient id="glow2" cx="50%" cy="50%" r="50%"><stop offset="0%" stop-color="#06b6d4" stop-opacity="0.2"/><stop offset="100%" stop-color="#06b6d4" stop-opacity="0"/></radialGradient>
    <linearGradient id="accentGrad" x1="0%" y1="0%" x2="100%" y2="0%"><stop offset="0%" stop-color="#ddb7ff"/><stop offset="100%" stop-color="#4cd7f6"/></linearGradient>
    <linearGradient id="btnGrad" x1="0%" y1="0%" x2="100%" y2="0%"><stop offset="0%" stop-color="#a855f7"/><stop offset="100%" stop-color="#6366f1"/></linearGradient>
    <linearGradient id="cardGrad" x1="0%" y1="0%" x2="100%" y2="100%"><stop offset="0%" stop-color="#1e0e35" stop-opacity="0.95"/><stop offset="100%" stop-color="#130d22" stop-opacity="0.95"/></linearGradient>
    <filter id="shadow"><feDropShadow dx="0" dy="10" stdDeviation="22" flood-color="#7c3aed" flood-opacity="0.4"/></filter>
    <filter id="gf"><feGaussianBlur stdDeviation="3" result="b"/><feMerge><feMergeNode in="b"/><feMergeNode in="SourceGraphic"/></feMerge></filter>
  </defs>

  <rect width="1200" height="630" fill="url(#bg)"/>
  <ellipse cx="250" cy="315" rx="450" ry="380" fill="url(#glow1)"/>
  <ellipse cx="1000" cy="315" rx="350" ry="320" fill="url(#glow2)"/>

  <!-- subtle grid -->
  <g stroke="#ffffff" stroke-opacity="0.025" stroke-width="1">
    <line x1="0" y1="126" x2="1200" y2="126"/><line x1="0" y1="252" x2="1200" y2="252"/>
    <line x1="0" y1="378" x2="1200" y2="378"/><line x1="0" y1="504" x2="1200" y2="504"/>
    <line x1="240" y1="0" x2="240" y2="630"/><line x1="480" y1="0" x2="480" y2="630"/>
    <line x1="720" y1="0" x2="720" y2="630"/><line x1="960" y1="0" x2="960" y2="630"/>
  </g>

  <!-- Brand badge -->
  <rect x="60" y="52" width="160" height="38" rx="19" fill="rgba(221,183,255,0.1)" stroke="rgba(221,183,255,0.28)" stroke-width="1"/>
  <text x="140" y="76" text-anchor="middle" font-size="14" font-weight="600" fill="#ddb7ff">✦ ToolNest AI</text>

  <!-- Eyebrow -->
  <text x="60" y="132" font-size="14" font-weight="600" fill="rgba(76,215,246,0.8)" letter-spacing="2">2026 COMPLETE GUIDE</text>

  <!-- Main headline -->
  <text x="60" y="205" font-size="60" font-weight="800" fill="url(#accentGrad)" filter="url(#gf)">AI Resume</text>
  <text x="60" y="278" font-size="60" font-weight="800" fill="#ffffff">Builder</text>

  <!-- Sub -->
  <text x="60" y="328" font-size="20" fill="rgba(255,255,255,0.55)">Create a Professional Resume in</text>
  <text x="60" y="356" font-size="20" fill="rgba(255,255,255,0.55)">Minutes — Free, No Sign-Up</text>

  <!-- Pill badges -->
  <rect x="60" y="388" width="148" height="36" rx="18" fill="rgba(34,197,94,0.1)" stroke="rgba(34,197,94,0.28)" stroke-width="1"/>
  <text x="134" y="411" text-anchor="middle" font-size="13" fill="#4ade80">✓ ATS-Friendly</text>

  <rect x="218" y="388" width="148" height="36" rx="18" fill="rgba(221,183,255,0.08)" stroke="rgba(221,183,255,0.22)" stroke-width="1"/>
  <text x="292" y="411" text-anchor="middle" font-size="13" fill="#ddb7ff">⬇ PDF Export</text>

  <rect x="376" y="388" width="148" height="36" rx="18" fill="rgba(76,215,246,0.08)" stroke="rgba(76,215,246,0.22)" stroke-width="1"/>
  <text x="450" y="411" text-anchor="middle" font-size="13" fill="#4cd7f6">⚡ 5 Minutes</text>

  <!-- CTA -->
  <rect x="60" y="448" width="248" height="52" rx="26" fill="url(#btnGrad)" filter="url(#shadow)"/>
  <text x="184" y="480" text-anchor="middle" font-size="16" font-weight="700" fill="#fff">Read Full Guide →</text>

  <!-- URL -->
  <text x="60" y="565" font-size="14" fill="rgba(255,255,255,0.28)">toolnestai.net/blog/ai-resume-builder</text>

  <!-- Right: Resume card mockup -->
  <rect x="700" y="55" width="440" height="520" rx="18" fill="url(#cardGrad)" stroke="rgba(221,183,255,0.14)" stroke-width="1" filter="url(#shadow)"/>
  <rect x="700" y="55" width="440" height="5" rx="2" fill="url(#accentGrad)"/>

  <!-- Resume inner -->
  <circle cx="748" cy="130" r="32" fill="rgba(168,85,247,0.14)" stroke="rgba(168,85,247,0.3)" stroke-width="1.5"/>
  <text x="748" y="138" text-anchor="middle" font-size="22" fill="#a855f7">👤</text>
  <text x="796" y="115" font-size="18" font-weight="700" fill="#f0e8ff">Your Name</text>
  <text x="796" y="136" font-size="12" fill="#9c7fc4">Professional Title</text>
  <text x="796" y="153" font-size="11" fill="rgba(255,255,255,0.38)">✉ email@example.com · 📍 City</text>

  <line x1="720" y1="178" x2="1120" y2="178" stroke="rgba(221,183,255,0.1)" stroke-width="1"/>

  <text x="720" y="200" font-size="10" font-weight="700" letter-spacing="2" fill="#ddb7ff">SUMMARY</text>
  <rect x="720" y="207" width="300" height="6" rx="3" fill="rgba(255,255,255,0.1)"/>
  <rect x="720" y="219" width="260" height="6" rx="3" fill="rgba(255,255,255,0.07)"/>
  <rect x="720" y="231" width="280" height="6" rx="3" fill="rgba(255,255,255,0.07)"/>

  <text x="720" y="260" font-size="10" font-weight="700" letter-spacing="2" fill="#4cd7f6">EXPERIENCE</text>
  <circle cx="727" cy="276" r="3.5" fill="#4cd7f6"/>
  <rect x="737" y="273" width="200" height="6" rx="3" fill="rgba(255,255,255,0.1)"/>
  <rect x="737" y="284" width="155" height="5" rx="2.5" fill="rgba(255,255,255,0.06)"/>
  <circle cx="727" cy="303" r="3.5" fill="rgba(76,215,246,0.4)"/>
  <rect x="737" y="300" width="175" height="6" rx="3" fill="rgba(255,255,255,0.08)"/>
  <rect x="737" y="311" width="130" height="5" rx="2.5" fill="rgba(255,255,255,0.05)"/>
  <circle cx="727" cy="330" r="3.5" fill="rgba(76,215,246,0.25)"/>
  <rect x="737" y="327" width="160" height="6" rx="3" fill="rgba(255,255,255,0.07)"/>

  <text x="720" y="358" font-size="10" font-weight="700" letter-spacing="2" fill="#a78bfa">EDUCATION</text>
  <rect x="720" y="365" width="210" height="6" rx="3" fill="rgba(255,255,255,0.09)"/>
  <rect x="720" y="376" width="165" height="5" rx="2.5" fill="rgba(255,255,255,0.06)"/>

  <text x="720" y="404" font-size="10" font-weight="700" letter-spacing="2" fill="#f472b6">SKILLS</text>
  <rect x="720" y="411" width="72" height="20" rx="10" fill="rgba(221,183,255,0.08)" stroke="rgba(221,183,255,0.2)" stroke-width="0.5"/>
  <rect x="800" y="411" width="65" height="20" rx="10" fill="rgba(76,215,246,0.07)" stroke="rgba(76,215,246,0.15)" stroke-width="0.5"/>
  <rect x="873" y="411" width="80" height="20" rx="10" fill="rgba(167,139,250,0.07)" stroke="rgba(167,139,250,0.15)" stroke-width="0.5"/>
  <rect x="720" y="438" width="85" height="20" rx="10" fill="rgba(244,114,182,0.07)" stroke="rgba(244,114,182,0.15)" stroke-width="0.5"/>
  <rect x="813" y="438" width="70" height="20" rx="10" fill="rgba(34,197,94,0.07)" stroke="rgba(34,197,94,0.15)" stroke-width="0.5"/>

  <!-- CTA in card -->
  <rect x="720" y="482" width="400" height="46" rx="23" fill="url(#btnGrad)" filter="url(#shadow)"/>
  <text x="920" y="511" text-anchor="middle" font-size="14" font-weight="700" fill="#fff">✦ CREATE RESUME NOW</text>

  <!-- AI chip -->
  <rect x="1076" y="62" width="56" height="56" rx="14" fill="rgba(124,58,237,0.22)" stroke="rgba(124,58,237,0.45)" stroke-width="1.5"/>
  <text x="1104" y="98" text-anchor="middle" font-size="24" font-weight="800" fill="#a855f7">AI</text>
</svg>
