<svg viewBox="0 0 1200 675" xmlns="http://www.w3.org/2000/svg" font-family="'Segoe UI',system-ui,sans-serif">
  <defs>
    <radialGradient id="bg" cx="50%" cy="45%" r="75%"><stop offset="0%" stop-color="#0d0520"/><stop offset="100%" stop-color="#07070f"/></radialGradient>
    <radialGradient id="gL" cx="25%" cy="50%" r="55%"><stop offset="0%" stop-color="#5b21b6" stop-opacity="0.32"/><stop offset="100%" stop-color="#5b21b6" stop-opacity="0"/></radialGradient>
    <radialGradient id="gR" cx="75%" cy="50%" r="50%"><stop offset="0%" stop-color="#2563eb" stop-opacity="0.2"/><stop offset="100%" stop-color="#2563eb" stop-opacity="0"/></radialGradient>
    <radialGradient id="orbG" cx="50%" cy="40%" r="60%"><stop offset="0%" stop-color="#a78bfa"/><stop offset="100%" stop-color="#6d28d9"/></radialGradient>
    <linearGradient id="aG" x1="0%" y1="0%" x2="100%" y2="0%"><stop offset="0%" stop-color="#a78bfa"/><stop offset="100%" stop-color="#60a5fa"/></linearGradient>
    <linearGradient id="bG" x1="0%" y1="0%" x2="100%" y2="0%"><stop offset="0%" stop-color="#7c3aed"/><stop offset="100%" stop-color="#4f46e5"/></linearGradient>
    <linearGradient id="lapG" x1="0%" y1="0%" x2="0%" y2="100%"><stop offset="0%" stop-color="#1a1135"/><stop offset="100%" stop-color="#0d0a1e"/></linearGradient>
    <linearGradient id="hL" x1="0%" y1="0%" x2="100%" y2="0%"><stop offset="0%" stop-color="#7c3aed" stop-opacity="0.9"/><stop offset="100%" stop-color="#60a5fa" stop-opacity="0.8"/></linearGradient>
    <linearGradient id="hL2" x1="0%" y1="0%" x2="100%" y2="0%"><stop offset="0%" stop-color="#818cf8" stop-opacity="0.85"/><stop offset="100%" stop-color="#60a5fa" stop-opacity="0.75"/></linearGradient>
    <filter id="sh"><feDropShadow dx="0" dy="10" stdDeviation="22" flood-color="#5b21b6" flood-opacity="0.5"/></filter>
    <filter id="glow"><feDropShadow dx="0" dy="0" stdDeviation="12" flood-color="#a78bfa" flood-opacity="0.7"/></filter>
    <filter id="gF"><feGaussianBlur stdDeviation="3" result="b"/><feMerge><feMergeNode in="b"/><feMergeNode in="SourceGraphic"/></feMerge></filter>
  </defs>

  <rect width="1200" height="675" fill="url(#bg)"/>
  <ellipse cx="300" cy="337" rx="580" ry="420" fill="url(#gL)"/>
  <ellipse cx="900" cy="337" rx="520" ry="380" fill="url(#gR)"/>

  <!-- Top floating icons -->
  <rect x="170" y="22" width="130" height="52" rx="12" fill="rgba(167,139,250,0.1)" stroke="rgba(167,139,250,0.22)" stroke-width="1"/>
  <text x="235" y="44" text-anchor="middle" font-size="18">≡✦</text>
  <text x="235" y="64" text-anchor="middle" font-size="10" fill="rgba(255,255,255,0.55)">Smart Summarize</text>

  <rect x="318" y="22" width="130" height="52" rx="12" fill="rgba(167,139,250,0.08)" stroke="rgba(167,139,250,0.18)" stroke-width="1"/>
  <text x="383" y="44" text-anchor="middle" font-size="18">📄</text>
  <text x="383" y="64" text-anchor="middle" font-size="10" fill="rgba(255,255,255,0.5)">Articles &amp; Docs</text>

  <rect x="466" y="22" width="130" height="52" rx="12" fill="rgba(167,139,250,0.08)" stroke="rgba(167,139,250,0.18)" stroke-width="1"/>
  <text x="531" y="44" text-anchor="middle" font-size="18">🌐</text>
  <text x="531" y="64" text-anchor="middle" font-size="10" fill="rgba(255,255,255,0.5)">Multi-Language</text>

  <rect x="614" y="22" width="130" height="52" rx="12" fill="rgba(167,139,250,0.08)" stroke="rgba(167,139,250,0.18)" stroke-width="1"/>
  <text x="679" y="44" text-anchor="middle" font-size="18">⚡</text>
  <text x="679" y="64" text-anchor="middle" font-size="10" fill="rgba(255,255,255,0.5)">Instant Results</text>

  <rect x="762" y="22" width="130" height="52" rx="12" fill="rgba(167,139,250,0.08)" stroke="rgba(167,139,250,0.18)" stroke-width="1"/>
  <text x="827" y="44" text-anchor="middle" font-size="18">⬇</text>
  <text x="827" y="64" text-anchor="middle" font-size="10" fill="rgba(255,255,255,0.5)">Export Anywhere</text>

  <text x="600" y="130" text-anchor="middle" font-size="40" font-weight="800" fill="url(#aG)" filter="url(#gF)">AI Summarizer</text>
  <text x="600" y="164" text-anchor="middle" font-size="17" fill="rgba(255,255,255,0.5)">Turn any long text into a clear, accurate summary in seconds</text>

  <!-- Laptop -->
  <rect x="72" y="190" width="1056" height="430" rx="20" fill="url(#lapG)" stroke="rgba(167,139,250,0.2)" stroke-width="1.5" filter="url(#sh)"/>
  <rect x="72" y="190" width="1056" height="34" rx="20" fill="rgba(167,139,250,0.07)"/>
  <circle cx="96" cy="207" r="6" fill="rgba(239,68,68,0.5)"/>
  <circle cx="116" cy="207" r="6" fill="rgba(251,191,36,0.5)"/>
  <circle cx="136" cy="207" r="6" fill="rgba(34,197,94,0.5)"/>
  <text x="600" y="212" text-anchor="middle" font-size="12" fill="rgba(255,255,255,0.22)">✦ AI Summarizer — toolnestai.net</text>
  <rect x="964" y="196" width="144" height="22" rx="11" fill="rgba(167,139,250,0.12)" stroke="rgba(167,139,250,0.28)" stroke-width="1"/>
  <text x="1036" y="211" text-anchor="middle" font-size="10" fill="#a78bfa">Powered by Advanced AI ✦</text>

  <!-- Left panel: Original Text -->
  <rect x="96" y="238" width="460" height="340" rx="14" fill="rgba(8,4,20,0.85)" stroke="rgba(167,139,250,0.16)" stroke-width="1"/>
  <rect x="114" y="254" width="118" height="24" rx="12" fill="rgba(167,139,250,0.22)" stroke="rgba(167,139,250,0.4)" stroke-width="1"/>
  <text x="173" y="270" text-anchor="middle" font-size="12" font-weight="600" fill="#c4b5fd">Original Text</text>
  <g>
    <rect x="114" y="292" width="426" height="10" rx="5" fill="rgba(80,80,100,0.48)"/>
    <rect x="114" y="310" width="388" height="10" rx="5" fill="rgba(80,80,100,0.42)"/>
    <rect x="114" y="328" width="410" height="10" rx="5" fill="rgba(80,80,100,0.44)"/>
    <rect x="114" y="346" width="356" height="10" rx="5" fill="rgba(80,80,100,0.38)"/>
    <rect x="114" y="376" width="426" height="10" rx="5" fill="rgba(80,80,100,0.4)"/>
    <rect x="114" y="394" width="316" height="10" rx="5" fill="rgba(80,80,100,0.35)"/>
    <rect x="114" y="412" width="398" height="10" rx="5" fill="rgba(80,80,100,0.38)"/>
    <rect x="114" y="430" width="372" height="10" rx="5" fill="rgba(80,80,100,0.34)"/>
    <rect x="114" y="460" width="426" height="10" rx="5" fill="rgba(80,80,100,0.36)"/>
    <rect x="114" y="478" width="340" height="10" rx="5" fill="rgba(80,80,100,0.3)"/>
    <rect x="114" y="496" width="405" height="10" rx="5" fill="rgba(80,80,100,0.32)"/>
    <rect x="114" y="514" width="330" height="10" rx="5" fill="rgba(80,80,100,0.28)"/>
  </g>
  <text x="114" y="562" font-size="12" fill="rgba(255,255,255,0.22)">1,248 Words</text>

  <!-- Arrow orb -->
  <circle cx="598" cy="410" r="54" fill="rgba(109,40,217,0.12)" stroke="rgba(167,139,250,0.18)" stroke-width="1" stroke-dasharray="5,5"/>
  <circle cx="598" cy="410" r="40" fill="url(#orbG)" filter="url(#glow)"/>
  <text x="598" y="420" text-anchor="middle" font-size="26" fill="white">→</text>

  <!-- Right panel: AI Summary -->
  <rect x="648" y="238" width="462" height="340" rx="14" fill="rgba(8,4,20,0.85)" stroke="rgba(96,165,250,0.18)" stroke-width="1"/>
  <rect x="664" y="254" width="106" height="24" rx="12" fill="rgba(124,58,237,0.35)" stroke="rgba(124,58,237,0.5)" stroke-width="1"/>
  <text x="717" y="270" text-anchor="middle" font-size="12" font-weight="600" fill="#c4b5fd">AI Summary</text>
  <g>
    <circle cx="676" cy="302" r="5" fill="url(#aG)"/>
    <rect x="688" y="296" width="406" height="11" rx="5.5" fill="url(#hL)"/>
    <circle cx="676" cy="325" r="5" fill="url(#aG)"/>
    <rect x="688" y="319" width="372" height="11" rx="5.5" fill="url(#hL2)"/>
    <circle cx="676" cy="348" r="5" fill="url(#aG)"/>
    <rect x="688" y="342" width="390" height="11" rx="5.5" fill="url(#hL)"/>
    <circle cx="676" cy="371" r="5" fill="url(#aG)"/>
    <rect x="688" y="365" width="350" height="11" rx="5.5" fill="url(#hL2)"/>
    <circle cx="676" cy="394" r="5" fill="url(#aG)"/>
    <rect x="688" y="388" width="406" height="11" rx="5.5" fill="url(#hL)"/>
    <circle cx="676" cy="428" r="4" fill="rgba(167,139,250,0.5)"/>
    <rect x="688" y="423" width="360" height="9" rx="4.5" fill="rgba(124,58,237,0.4)"/>
    <circle cx="676" cy="448" r="4" fill="rgba(167,139,250,0.5)"/>
    <rect x="688" y="443" width="385" height="9" rx="4.5" fill="rgba(96,165,250,0.35)"/>
    <circle cx="676" cy="468" r="4" fill="rgba(167,139,250,0.5)"/>
    <rect x="688" y="463" width="330" height="9" rx="4.5" fill="rgba(124,58,237,0.35)"/>
    <circle cx="676" cy="500" r="4" fill="rgba(96,165,250,0.4)"/>
    <rect x="688" y="495" width="395" height="9" rx="4.5" fill="rgba(96,165,250,0.3)"/>
    <circle cx="676" cy="520" r="4" fill="rgba(96,165,250,0.4)"/>
    <rect x="688" y="515" width="348" height="9" rx="4.5" fill="rgba(96,165,250,0.28)"/>
  </g>
  <text x="664" y="562" font-size="12" fill="rgba(255,255,255,0.22)">5 Key Points</text>
  <rect x="1062" y="550" width="26" height="26" rx="7" fill="rgba(167,139,250,0.12)" stroke="rgba(167,139,250,0.2)" stroke-width="1"/>
  <text x="1075" y="567" text-anchor="middle" font-size="13" fill="#a78bfa">⎘</text>

  <!-- Bottom row -->
  <text x="96" y="598" font-size="12" fill="rgba(255,255,255,0.35)">Summary Length</text>
  <rect x="96" y="606" width="62" height="30" rx="10" fill="url(#bG)"/>
  <text x="127" y="625" text-anchor="middle" font-size="12" font-weight="600" fill="#fff">Short</text>
  <rect x="166" y="606" width="72" height="30" rx="10" fill="rgba(167,139,250,0.1)" stroke="rgba(167,139,250,0.25)" stroke-width="1"/>
  <text x="202" y="625" text-anchor="middle" font-size="12" fill="rgba(255,255,255,0.5)">Medium</text>
  <rect x="246" y="606" width="58" height="30" rx="10" fill="rgba(167,139,250,0.07)" stroke="rgba(167,139,250,0.18)" stroke-width="1"/>
  <text x="275" y="625" text-anchor="middle" font-size="12" fill="rgba(255,255,255,0.45)">Long</text>
  <rect x="312" y="606" width="100" height="30" rx="10" fill="rgba(167,139,250,0.07)" stroke="rgba(167,139,250,0.18)" stroke-width="1"/>
  <text x="362" y="625" text-anchor="middle" font-size="12" fill="rgba(255,255,255,0.4)">Bullet Points</text>
  <rect x="800" y="602" width="230" height="38" rx="19" fill="url(#bG)" filter="url(#sh)"/>
  <text x="915" y="625" text-anchor="middle" font-size="14" font-weight="700" fill="#fff">Summarize Now ✦</text>
  <rect x="1044" y="602" width="72" height="38" rx="19" fill="rgba(167,139,250,0.1)" stroke="rgba(167,139,250,0.25)" stroke-width="1"/>
  <text x="1080" y="625" text-anchor="middle" font-size="12" fill="#a78bfa">⎘ Copy</text>
</svg>
