<svg viewBox="0 0 900 1200" xmlns="http://www.w3.org/2000/svg" font-family="'Segoe UI',system-ui,sans-serif">
  <defs>
    <radialGradient id="bg" cx="50%" cy="40%" r="70%"><stop offset="0%" stop-color="#0a0618"/><stop offset="100%" stop-color="#07070f"/></radialGradient>
    <radialGradient id="g1" cx="50%" cy="20%" r="50%"><stop offset="0%" stop-color="#5b21b6" stop-opacity="0.28"/><stop offset="100%" stop-color="#5b21b6" stop-opacity="0"/></radialGradient>
    <radialGradient id="g2" cx="50%" cy="80%" r="50%"><stop offset="0%" stop-color="#2563eb" stop-opacity="0.18"/><stop offset="100%" stop-color="#2563eb" stop-opacity="0"/></radialGradient>
    <linearGradient id="aG" x1="0%" y1="0%" x2="100%" y2="0%"><stop offset="0%" stop-color="#a78bfa"/><stop offset="100%" stop-color="#60a5fa"/></linearGradient>
    <linearGradient id="bG" x1="0%" y1="0%" x2="100%" y2="0%"><stop offset="0%" stop-color="#7c3aed"/><stop offset="100%" stop-color="#4f46e5"/></linearGradient>
    <linearGradient id="pG" x1="0%" y1="0%" x2="100%" y2="100%"><stop offset="0%" stop-color="#130b2e" stop-opacity="0.97"/><stop offset="100%" stop-color="#0c0820" stop-opacity="0.97"/></linearGradient>
    <filter id="sh"><feDropShadow dx="0" dy="6" stdDeviation="14" flood-color="#5b21b6" flood-opacity="0.3"/></filter>
    <filter id="gF"><feGaussianBlur stdDeviation="3" result="b"/><feMerge><feMergeNode in="b"/><feMergeNode in="SourceGraphic"/></feMerge></filter>
  </defs>
  <rect width="900" height="1200" fill="url(#bg)"/>
  <ellipse cx="450" cy="280" rx="500" ry="380" fill="url(#g1)"/>
  <ellipse cx="450" cy="920" rx="500" ry="380" fill="url(#g2)"/>

  <!-- Header -->
  <rect x="275" y="28" width="350" height="38" rx="19" fill="rgba(167,139,250,0.1)" stroke="rgba(167,139,250,0.25)" stroke-width="1"/>
  <text x="450" y="52" text-anchor="middle" font-size="14" font-weight="600" fill="#a78bfa">✦ ToolNest AI — 2026 Guide</text>
  <text x="450" y="112" text-anchor="middle" font-size="34" font-weight="800" fill="url(#aG)" filter="url(#gF)">AI Summarizer</text>
  <text x="450" y="144" text-anchor="middle" font-size="17" fill="rgba(255,255,255,0.48)">The Complete 2026 Cheat Sheet</text>
  <line x1="80" y1="164" x2="820" y2="164" stroke="rgba(167,139,250,0.1)" stroke-width="1"/>

  <!-- STAT CARDS -->
  <rect x="55" y="180" width="245" height="118" rx="14" fill="url(#pG)" stroke="rgba(239,68,68,0.2)" stroke-width="1" filter="url(#sh)"/>
  <text x="177" y="232" text-anchor="middle" font-size="38" font-weight="800" fill="#f87171">90%</text>
  <text x="177" y="258" text-anchor="middle" font-size="12" fill="rgba(255,255,255,0.45)">shorter — average AI</text>
  <text x="177" y="274" text-anchor="middle" font-size="12" fill="rgba(255,255,255,0.45)">summary vs original</text>
  <rect x="55" y="294" width="245" height="4" rx="2" fill="rgba(239,68,68,0.4)"/>

  <rect x="327" y="180" width="246" height="118" rx="14" fill="url(#pG)" stroke="rgba(96,165,250,0.15)" stroke-width="1" filter="url(#sh)"/>
  <text x="450" y="232" text-anchor="middle" font-size="38" font-weight="800" fill="#60a5fa">&lt;10s</text>
  <text x="450" y="258" text-anchor="middle" font-size="12" fill="rgba(255,255,255,0.45)">to summarize any</text>
  <text x="450" y="274" text-anchor="middle" font-size="12" fill="rgba(255,255,255,0.45)">article or document</text>
  <rect x="327" y="294" width="246" height="4" rx="2" fill="rgba(96,165,250,0.4)"/>

  <rect x="600" y="180" width="245" height="118" rx="14" fill="url(#pG)" stroke="rgba(34,197,94,0.15)" stroke-width="1" filter="url(#sh)"/>
  <text x="722" y="232" text-anchor="middle" font-size="38" font-weight="800" fill="#22c55e">100+</text>
  <text x="722" y="258" text-anchor="middle" font-size="12" fill="rgba(255,255,255,0.45)">languages supported</text>
  <text x="722" y="274" text-anchor="middle" font-size="12" fill="rgba(255,255,255,0.45)">free, no sign-up</text>
  <rect x="600" y="294" width="245" height="4" rx="2" fill="rgba(34,197,94,0.4)"/>

  <!-- STEP BY STEP -->
  <text x="450" y="358" text-anchor="middle" font-size="20" font-weight="700" fill="#f0e8ff">Summarize Any Text in 4 Steps</text>
  <line x1="150" y1="374" x2="750" y2="374" stroke="rgba(167,139,250,0.08)" stroke-width="1"/>

  <rect x="55" y="388" width="790" height="54" rx="10" fill="url(#pG)" stroke="rgba(167,139,250,0.1)" stroke-width="1" filter="url(#sh)"/>
  <circle cx="92" cy="415" r="18" fill="url(#bG)"/>
  <text x="92" y="420" text-anchor="middle" font-size="14" font-weight="800" fill="#fff">1</text>
  <text x="122" y="410" font-size="13" font-weight="600" fill="rgba(255,255,255,0.8)">Paste your text</text>
  <text x="122" y="428" font-size="12" fill="rgba(255,255,255,0.42)">Articles, reports, emails, PDFs, research papers — paste any content</text>

  <rect x="55" y="450" width="790" height="54" rx="10" fill="url(#pG)" stroke="rgba(96,165,250,0.1)" stroke-width="1" filter="url(#sh)"/>
  <circle cx="92" cy="477" r="18" fill="rgba(96,165,250,0.25)" stroke="rgba(96,165,250,0.5)" stroke-width="1.5"/>
  <text x="92" y="482" text-anchor="middle" font-size="14" font-weight="800" fill="#60a5fa">2</text>
  <text x="122" y="472" font-size="13" font-weight="600" fill="rgba(255,255,255,0.8)">Choose summary length</text>
  <text x="122" y="490" font-size="12" fill="rgba(255,255,255,0.42)">Short · Medium · Long · Bullet Points — pick the format that fits your need</text>

  <rect x="55" y="512" width="790" height="54" rx="10" fill="url(#pG)" stroke="rgba(167,139,250,0.1)" stroke-width="1" filter="url(#sh)"/>
  <circle cx="92" cy="539" r="18" fill="rgba(167,139,250,0.18)" stroke="rgba(167,139,250,0.4)" stroke-width="1.5"/>
  <text x="92" y="544" text-anchor="middle" font-size="14" font-weight="800" fill="#a78bfa">3</text>
  <text x="122" y="534" font-size="13" font-weight="600" fill="rgba(255,255,255,0.8)">Click Summarize Now</text>
  <text x="122" y="552" font-size="12" fill="rgba(255,255,255,0.42)">AI extracts key points and generates a clean, accurate summary instantly</text>

  <rect x="55" y="574" width="790" height="54" rx="10" fill="url(#pG)" stroke="rgba(34,197,94,0.1)" stroke-width="1" filter="url(#sh)"/>
  <circle cx="92" cy="601" r="18" fill="rgba(34,197,94,0.18)" stroke="rgba(34,197,94,0.4)" stroke-width="1.5"/>
  <text x="92" y="606" text-anchor="middle" font-size="14" font-weight="800" fill="#22c55e">4</text>
  <text x="122" y="596" font-size="13" font-weight="600" fill="rgba(255,255,255,0.8)">Copy and use</text>
  <text x="122" y="614" font-size="12" fill="rgba(255,255,255,0.42)">One-click copy — paste into notes, emails, presentations or docs</text>

  <!-- SUMMARY FORMATS -->
  <text x="450" y="678" text-anchor="middle" font-size="20" font-weight="700" fill="#f0e8ff">4 Summary Formats — When to Use Each</text>
  <line x1="150" y1="694" x2="750" y2="694" stroke="rgba(167,139,250,0.08)" stroke-width="1"/>

  <rect x="55" y="706" width="380" height="64" rx="10" fill="url(#pG)" stroke="rgba(124,58,237,0.2)" stroke-width="1"/>
  <rect x="55" y="706" width="5" rx="2.5" height="64" fill="url(#bG)"/>
  <text x="80" y="730" font-size="14" font-weight="700" fill="#a78bfa">Short</text>
  <text x="80" y="750" font-size="11" fill="rgba(255,255,255,0.45)">2–3 sentence overview</text>
  <text x="80" y="764" font-size="11" fill="rgba(255,255,255,0.45)">Best for: quick decisions, email previews</text>

  <rect x="465" y="706" width="380" height="64" rx="10" fill="url(#pG)" stroke="rgba(96,165,250,0.16)" stroke-width="1"/>
  <rect x="465" y="706" width="5" rx="2.5" height="64" fill="rgba(96,165,250,0.7)"/>
  <text x="490" y="730" font-size="14" font-weight="700" fill="#60a5fa">Medium</text>
  <text x="490" y="750" font-size="11" fill="rgba(255,255,255,0.45)">1 balanced paragraph</text>
  <text x="490" y="764" font-size="11" fill="rgba(255,255,255,0.45)">Best for: research, meeting prep</text>

  <rect x="55" y="778" width="380" height="64" rx="10" fill="url(#pG)" stroke="rgba(34,197,94,0.16)" stroke-width="1"/>
  <rect x="55" y="778" width="5" rx="2.5" height="64" fill="rgba(34,197,94,0.7)"/>
  <text x="80" y="802" font-size="14" font-weight="700" fill="#22c55e">Long</text>
  <text x="80" y="822" font-size="11" fill="rgba(255,255,255,0.45)">Detailed multi-paragraph summary</text>
  <text x="80" y="836" font-size="11" fill="rgba(255,255,255,0.45)">Best for: academic review, reports</text>

  <rect x="465" y="778" width="380" height="64" rx="10" fill="url(#pG)" stroke="rgba(251,191,36,0.16)" stroke-width="1"/>
  <rect x="465" y="778" width="5" rx="2.5" height="64" fill="rgba(251,191,36,0.7)"/>
  <text x="490" y="802" font-size="14" font-weight="700" fill="#fbbf24">Bullet Points</text>
  <text x="490" y="822" font-size="11" fill="rgba(255,255,255,0.45)">Key points as scannable list</text>
  <text x="490" y="836" font-size="11" fill="rgba(255,255,255,0.45)">Best for: presentations, study notes</text>

  <!-- TIPS -->
  <text x="450" y="892" text-anchor="middle" font-size="20" font-weight="700" fill="#f0e8ff">5 Tips for Better Summaries</text>
  <line x1="150" y1="908" x2="750" y2="908" stroke="rgba(167,139,250,0.08)" stroke-width="1"/>

  <g font-size="12">
    <rect x="55" y="918" width="790" height="32" rx="8" fill="rgba(167,139,250,0.07)" stroke="rgba(167,139,250,0.12)" stroke-width="1"/>
    <text x="75" y="939" fill="#a78bfa" font-weight="600">✦</text>
    <text x="95" y="939" fill="rgba(255,255,255,0.6)">Paste complete articles — partial text produces partial summaries</text>

    <rect x="55" y="956" width="790" height="32" rx="8" fill="rgba(96,165,250,0.05)" stroke="rgba(96,165,250,0.1)" stroke-width="1"/>
    <text x="75" y="977" fill="#60a5fa" font-weight="600">✦</text>
    <text x="95" y="977" fill="rgba(255,255,255,0.6)">Use Bullet Points for presentations — they're scannable and shareable</text>

    <rect x="55" y="994" width="790" height="32" rx="8" fill="rgba(167,139,250,0.05)" stroke="rgba(167,139,250,0.1)" stroke-width="1"/>
    <text x="75" y="1015" fill="#c4b5fd" font-weight="600">✦</text>
    <text x="95" y="1015" fill="rgba(255,255,255,0.6)">Always read the summary before sharing — AI is accurate but not infallible</text>

    <rect x="55" y="1032" width="790" height="32" rx="8" fill="rgba(34,197,94,0.05)" stroke="rgba(34,197,94,0.1)" stroke-width="1"/>
    <text x="75" y="1053" fill="#22c55e" font-weight="600">✦</text>
    <text x="95" y="1053" fill="rgba(255,255,255,0.6)">Use Short for triage — decide what deserves a full read, what doesn't</text>

    <rect x="55" y="1070" width="790" height="32" rx="8" fill="rgba(251,191,36,0.05)" stroke="rgba(251,191,36,0.1)" stroke-width="1"/>
    <text x="75" y="1091" fill="#fbbf24" font-weight="600">✦</text>
    <text x="95" y="1091" fill="rgba(255,255,255,0.6)">Combine with AI Grammar Checker for polished summaries you can publish</text>
  </g>

  <!-- CTA -->
  <rect x="175" y="1128" width="550" height="52" rx="26" fill="url(#bG)" filter="url(#sh)"/>
  <text x="450" y="1160" text-anchor="middle" font-size="16" font-weight="700" fill="#fff">✦ Summarize Your Text Free Now</text>
  <text x="450" y="1190" text-anchor="middle" font-size="12" fill="rgba(255,255,255,0.2)">toolnestai.net · AI Summarizer · Free · No Sign-Up</text>
</svg>
