<svg viewBox="0 0 1200 675" xmlns="http://www.w3.org/2000/svg" font-family="'Segoe UI',system-ui,sans-serif">
  <defs>
    <radialGradient id="bg" cx="50%" cy="50%" r="80%"><stop offset="0%" stop-color="#0a0118"/><stop offset="100%" stop-color="#05030d"/></radialGradient>
    <radialGradient id="gL" cx="10%" cy="45%" r="55%"><stop offset="0%" stop-color="#5b21b6" stop-opacity="0.36"/><stop offset="100%" stop-color="#5b21b6" stop-opacity="0"/></radialGradient>
    <radialGradient id="gR" cx="88%" cy="55%" r="50%"><stop offset="0%" stop-color="#2563eb" stop-opacity="0.2"/><stop offset="100%" stop-color="#2563eb" stop-opacity="0"/></radialGradient>
    <radialGradient id="gRob" cx="90%" cy="82%" r="28%"><stop offset="0%" stop-color="#7c3aed" stop-opacity="0.45"/><stop offset="100%" stop-color="#7c3aed" stop-opacity="0"/></radialGradient>
    <linearGradient id="aG" x1="0%" y1="0%" x2="100%" y2="100%"><stop offset="0%" stop-color="#a78bfa"/><stop offset="100%" stop-color="#c084fc"/></linearGradient>
    <linearGradient id="aGh" x1="0%" y1="0%" x2="100%" y2="0%"><stop offset="0%" stop-color="#a78bfa"/><stop offset="100%" stop-color="#60a5fa"/></linearGradient>
    <linearGradient id="bG" x1="0%" y1="0%" x2="100%" y2="0%"><stop offset="0%" stop-color="#7c3aed"/><stop offset="100%" stop-color="#4f46e5"/></linearGradient>
    <linearGradient id="lapG" x1="0%" y1="0%" x2="100%" y2="100%"><stop offset="0%" stop-color="#1a1040"/><stop offset="100%" stop-color="#0d0824"/></linearGradient>
    <linearGradient id="robG" x1="0%" y1="0%" x2="100%" y2="100%"><stop offset="0%" stop-color="#7c3aed"/><stop offset="100%" stop-color="#4338ca"/></linearGradient>
    <linearGradient id="robFG" x1="0%" y1="0%" x2="100%" y2="100%"><stop offset="0%" stop-color="#1e1060"/><stop offset="100%" stop-color="#110a3a"/></linearGradient>
    <filter id="sh"><feDropShadow dx="0" dy="6" stdDeviation="16" flood-color="#5b21b6" flood-opacity="0.35"/></filter>
    <filter id="shSm"><feDropShadow dx="0" dy="3" stdDeviation="8" flood-color="#5b21b6" flood-opacity="0.3"/></filter>
    <filter id="glow"><feGaussianBlur stdDeviation="3" result="b"/><feMerge><feMergeNode in="b"/><feMergeNode in="SourceGraphic"/></feMerge></filter>
    <filter id="neon"><feGaussianBlur stdDeviation="5" result="b"/><feMerge><feMergeNode in="b"/><feMergeNode in="SourceGraphic"/></feMerge></filter>
    <filter id="robGlow"><feGaussianBlur stdDeviation="6" result="b"/><feMerge><feMergeNode in="b"/><feMergeNode in="SourceGraphic"/></feMerge></filter>
  </defs>
  <rect width="1200" height="675" fill="url(#bg)"/>
  <ellipse cx="130" cy="337" rx="480" ry="420" fill="url(#gL)"/>
  <ellipse cx="1060" cy="337" rx="460" ry="400" fill="url(#gR)"/>
  <ellipse cx="1080" cy="560" rx="270" ry="200" fill="url(#gRob)"/>

  <!-- Top icon pills -->
  <g text-anchor="middle" font-size="9" fill="rgba(255,255,255,0.38)">
    <rect x="398" y="14" width="108" height="52" rx="10" fill="rgba(167,139,250,0.07)" stroke="rgba(167,139,250,0.2)" stroke-width="1"/>
    <text x="452" y="36" font-size="16">👤</text><text x="452" y="56">Unique &amp; Creative</text>
    <rect x="514" y="14" width="108" height="52" rx="10" fill="rgba(167,139,250,0.07)" stroke="rgba(167,139,250,0.2)" stroke-width="1"/>
    <text x="568" y="36" font-size="16">✅</text><text x="568" y="56">Availability Check</text>
    <rect x="630" y="14" width="108" height="52" rx="10" fill="rgba(167,139,250,0.07)" stroke="rgba(167,139,250,0.2)" stroke-width="1"/>
    <text x="684" y="36" font-size="16">⚡</text><text x="684" y="56">Instant Results</text>
    <rect x="746" y="14" width="118" height="52" rx="10" fill="rgba(167,139,250,0.07)" stroke="rgba(167,139,250,0.2)" stroke-width="1"/>
    <text x="805" y="36" font-size="16">🎮</text><text x="805" y="56">Gamers &amp; Streamers</text>
    <rect x="872" y="14" width="108" height="52" rx="10" fill="rgba(167,139,250,0.07)" stroke="rgba(167,139,250,0.2)" stroke-width="1"/>
    <text x="926" y="36" font-size="16">🌐</text><text x="926" y="56">Multi-Platform</text>
    <rect x="988" y="14" width="108" height="52" rx="10" fill="rgba(167,139,250,0.07)" stroke="rgba(167,139,250,0.2)" stroke-width="1"/>
    <text x="1042" y="36" font-size="16">✦</text><text x="1042" y="56">AI-Powered</text>
  </g>

  <!-- Logo -->
  <polygon points="28,92 38,77 52,77 62,92 52,107 38,107" fill="none" stroke="url(#aGh)" stroke-width="2.5"/>
  <polygon points="32,92 40,81 50,81 58,92 50,103 40,103" fill="rgba(124,58,237,0.25)"/>
  <text x="68" y="89" font-size="14" font-weight="700" fill="rgba(255,255,255,0.9)">ToolNest AI</text>
  <text x="68" y="105" font-size="9" fill="rgba(255,255,255,0.38)">All-in-One AI &amp; Online Tools</text>

  <!-- Headline -->
  <text x="28" y="172" font-size="50" font-weight="900" fill="url(#aG)" filter="url(#glow)" letter-spacing="-1.5">AI Username</text>
  <text x="28" y="232" font-size="50" font-weight="900" fill="url(#aG)" filter="url(#glow)" letter-spacing="-1.5">Generator</text>
  <text x="28" y="266" font-size="15" font-weight="700" fill="rgba(255,255,255,0.85)">Create Unique Usernames for Any Platform</text>
  <text x="28" y="286" font-size="10" fill="rgba(255,255,255,0.42)">Generate creative, available and memorable usernames</text>
  <text x="28" y="300" font-size="10" fill="rgba(255,255,255,0.42)">with the power of AI. Perfect for gaming, social media,</text>
  <text x="28" y="314" font-size="10" fill="rgba(255,255,255,0.42)">streaming and every platform.</text>

  <!-- Bullets -->
  <g font-size="10">
    <rect x="28" y="330" width="20" height="20" rx="5" fill="rgba(124,58,237,0.22)" stroke="rgba(167,139,250,0.3)" stroke-width="1"/>
    <text x="38" y="344" text-anchor="middle" font-size="11">✦</text>
    <text x="54" y="342" font-weight="700" fill="rgba(255,255,255,0.85)">AI-Powered Suggestions</text>
    <text x="54" y="355" font-size="9" fill="rgba(255,255,255,0.38)">Get unlimited username ideas based on your style.</text>
    <rect x="28" y="367" width="20" height="20" rx="5" fill="rgba(124,58,237,0.22)" stroke="rgba(167,139,250,0.3)" stroke-width="1"/>
    <text x="38" y="381" text-anchor="middle" font-size="10">✅</text>
    <text x="54" y="379" font-weight="700" fill="rgba(255,255,255,0.85)">Availability Checker</text>
    <text x="54" y="392" font-size="9" fill="rgba(255,255,255,0.38)">Check across multiple platforms instantly.</text>
    <rect x="28" y="404" width="20" height="20" rx="5" fill="rgba(124,58,237,0.22)" stroke="rgba(167,139,250,0.3)" stroke-width="1"/>
    <text x="38" y="418" text-anchor="middle" font-size="10">🎮</text>
    <text x="54" y="416" font-weight="700" fill="rgba(255,255,255,0.85)">Perfect for Gaming</text>
    <text x="54" y="429" font-size="9" fill="rgba(255,255,255,0.38)">Find the perfect gaming nickname that stands out.</text>
    <rect x="28" y="441" width="20" height="20" rx="5" fill="rgba(37,99,235,0.15)" stroke="rgba(96,165,250,0.25)" stroke-width="1"/>
    <text x="38" y="455" text-anchor="middle" font-size="10">🌐</text>
    <text x="54" y="453" font-weight="700" fill="rgba(255,255,255,0.85)">Works Everywhere</text>
    <text x="54" y="466" font-size="9" fill="rgba(255,255,255,0.38)">Social media, forums, apps and more.</text>
  </g>

  <!-- Laptop frame -->
  <rect x="390" y="78" width="762" height="518" rx="18" fill="url(#lapG)" stroke="rgba(124,58,237,0.3)" stroke-width="1.5" filter="url(#sh)"/>
  <rect x="402" y="90" width="738" height="494" rx="12" fill="#060414"/>
  <rect x="348" y="594" width="864" height="16" rx="5" fill="rgba(22,12,52,0.7)" stroke="rgba(124,58,237,0.2)" stroke-width="1"/>
  <ellipse cx="780" cy="612" rx="368" ry="11" fill="rgba(124,58,237,0.22)" filter="url(#neon)"/>

  <!-- Chrome bar -->
  <rect x="402" y="90" width="738" height="34" rx="12" fill="rgba(124,58,237,0.14)"/>
  <rect x="402" y="114" width="738" height="10" fill="rgba(124,58,237,0.14)"/>
  <circle cx="420" cy="107" r="5" fill="rgba(255,80,80,0.45)"/>
  <circle cx="436" cy="107" r="5" fill="rgba(255,193,7,0.45)"/>
  <circle cx="452" cy="107" r="5" fill="rgba(34,197,94,0.45)"/>
  <text x="565" y="111" font-size="12" font-weight="700" fill="rgba(255,255,255,0.6)">✦ AI Username Generator</text>
  <rect x="1068" y="97" width="62" height="18" rx="5" fill="rgba(124,58,237,0.22)" stroke="rgba(167,139,250,0.3)" stroke-width="1"/>
  <text x="1099" y="109" text-anchor="middle" font-size="7" fill="#a78bfa">Advanced AI ✦</text>

  <!-- Form panel -->
  <text x="416" y="144" font-size="9.5" font-weight="700" fill="rgba(255,255,255,0.6)">Your Preferences</text>
  <text x="416" y="160" font-size="8.5" fill="rgba(255,255,255,0.38)">Username Style</text>
  <rect x="416" y="164" width="192" height="22" rx="5" fill="rgba(255,255,255,0.04)" stroke="rgba(255,255,255,0.09)" stroke-width="1"/>
  <text x="424" y="179" font-size="8.5" fill="rgba(255,255,255,0.55)">Cool &amp; Modern</text><text x="598" y="179" font-size="8.5" fill="rgba(255,255,255,0.3)">▾</text>
  <text x="416" y="200" font-size="8.5" fill="rgba(255,255,255,0.38)">Platform</text>
  <rect x="416" y="204" width="192" height="22" rx="5" fill="rgba(255,255,255,0.04)" stroke="rgba(255,255,255,0.09)" stroke-width="1"/>
  <text x="424" y="219" font-size="8.5" fill="rgba(255,255,255,0.55)">All Platforms</text><text x="598" y="219" font-size="8.5" fill="rgba(255,255,255,0.3)">▾</text>
  <text x="416" y="240" font-size="8.5" fill="rgba(255,255,255,0.38)">Keywords (Optional)</text>
  <rect x="416" y="244" width="192" height="22" rx="5" fill="rgba(255,255,255,0.04)" stroke="rgba(255,255,255,0.09)" stroke-width="1"/>
  <text x="424" y="259" font-size="8.5" fill="rgba(255,255,255,0.45)">night, wolf, gaming</text>
  <text x="416" y="280" font-size="8.5" fill="rgba(255,255,255,0.38)">Length</text>
  <rect x="416" y="284" width="192" height="22" rx="5" fill="rgba(255,255,255,0.04)" stroke="rgba(255,255,255,0.09)" stroke-width="1"/>
  <text x="424" y="299" font-size="8.5" fill="rgba(255,255,255,0.55)">Medium (6-12 chars)</text><text x="598" y="299" font-size="8.5" fill="rgba(255,255,255,0.3)">▾</text>
  <text x="416" y="320" font-size="8.5" fill="rgba(255,255,255,0.38)">Numbers</text>
  <rect x="416" y="324" width="192" height="22" rx="5" fill="rgba(255,255,255,0.04)" stroke="rgba(255,255,255,0.09)" stroke-width="1"/>
  <text x="424" y="339" font-size="8.5" fill="rgba(255,255,255,0.55)">Allow Numbers</text><text x="598" y="339" font-size="8.5" fill="rgba(255,255,255,0.3)">▾</text>
  <text x="416" y="360" font-size="8.5" fill="rgba(255,255,255,0.38)">Language</text>
  <rect x="416" y="364" width="192" height="22" rx="5" fill="rgba(255,255,255,0.04)" stroke="rgba(255,255,255,0.09)" stroke-width="1"/>
  <text x="424" y="379" font-size="8.5" fill="rgba(255,255,255,0.55)">English</text><text x="598" y="379" font-size="8.5" fill="rgba(255,255,255,0.3)">▾</text>
  <rect x="416" y="400" width="192" height="32" rx="10" fill="url(#bG)" filter="url(#shSm)"/>
  <text x="512" y="420" text-anchor="middle" font-size="11" font-weight="700" fill="#fff">✦ Generate Usernames</text>

  <!-- Divider -->
  <line x1="622" y1="132" x2="622" y2="568" stroke="rgba(255,255,255,0.05)" stroke-width="1"/>

  <!-- Generated usernames -->
  <text x="634" y="144" font-size="9.5" font-weight="700" fill="rgba(255,255,255,0.6)">Generated Usernames</text>
  <g font-size="8.5">
    <rect x="630" y="152" width="248" height="28" rx="5" fill="rgba(255,255,255,0.03)"/>
    <text x="640" y="170" font-size="11" font-weight="600" fill="rgba(255,255,255,0.88)">NightWolf_7</text>
    <text x="728" y="170" fill="rgba(52,211,153,0.85)">Available</text>
    <text x="780" y="170">📷</text><text x="793" y="170">♪</text><text x="806" y="170">🎮</text><text x="820" y="170">💬</text><text x="834" y="170">🐦</text><text x="848" y="170">▶</text><text x="861" y="170" fill="rgba(167,139,250,0.7)">♡</text>
    <rect x="630" y="186" width="248" height="28" rx="5" fill="rgba(255,255,255,0.015)"/>
    <text x="640" y="204" font-size="11" font-weight="600" fill="rgba(255,255,255,0.8)">ShadowNite</text>
    <text x="728" y="204" fill="rgba(52,211,153,0.85)">Available</text>
    <text x="780" y="204">📷</text><text x="793" y="204">♪</text><text x="806" y="204">🎮</text><text x="820" y="204">💬</text><text x="834" y="204">🐦</text><text x="848" y="204">▶</text><text x="861" y="204" fill="rgba(255,255,255,0.25)">♡</text>
    <rect x="630" y="220" width="248" height="28" rx="5" fill="rgba(255,255,255,0.03)"/>
    <text x="640" y="238" font-size="11" font-weight="600" fill="rgba(255,255,255,0.88)">WolfxLegend</text>
    <text x="728" y="238" fill="rgba(52,211,153,0.85)">Available</text>
    <text x="780" y="238">📷</text><text x="793" y="238">♪</text><text x="806" y="238">🎮</text><text x="820" y="238">💬</text><text x="834" y="238">🐦</text><text x="848" y="238">▶</text><text x="861" y="238" fill="rgba(167,139,250,0.7)">♡</text>
    <rect x="630" y="254" width="248" height="28" rx="5" fill="rgba(255,255,255,0.015)"/>
    <text x="640" y="272" font-size="11" font-weight="600" fill="rgba(255,255,255,0.8)">NiteRider_07</text>
    <text x="728" y="272" fill="rgba(52,211,153,0.85)">Available</text>
    <text x="780" y="272">📷</text><text x="793" y="272">♪</text><text x="806" y="272">🎮</text><text x="820" y="272">💬</text><text x="834" y="272">🐦</text><text x="848" y="272">▶</text><text x="861" y="272" fill="rgba(255,255,255,0.25)">♡</text>
    <rect x="630" y="288" width="248" height="28" rx="5" fill="rgba(255,255,255,0.03)"/>
    <text x="640" y="306" font-size="11" font-weight="600" fill="rgba(255,255,255,0.88)">VortexWolf</text>
    <text x="728" y="306" fill="rgba(52,211,153,0.85)">Available</text>
    <text x="780" y="306">📷</text><text x="793" y="306">♪</text><text x="806" y="306">🎮</text><text x="820" y="306">💬</text><text x="834" y="306">🐦</text><text x="848" y="306">▶</text><text x="861" y="306" fill="rgba(255,255,255,0.25)">♡</text>
    <rect x="630" y="322" width="248" height="28" rx="5" fill="rgba(255,255,255,0.015)"/>
    <text x="640" y="340" font-size="11" font-weight="600" fill="rgba(255,255,255,0.8)">LunarStrike</text>
    <text x="728" y="340" fill="rgba(52,211,153,0.85)">Available</text>
    <text x="780" y="340">📷</text><text x="793" y="340">♪</text><text x="806" y="340">🎮</text><text x="820" y="340">💬</text><text x="834" y="340">🐦</text><text x="848" y="340">▶</text><text x="861" y="340" fill="rgba(255,255,255,0.25)">♡</text>
    <rect x="630" y="356" width="248" height="28" rx="5" fill="rgba(255,255,255,0.03)"/>
    <text x="640" y="374" font-size="11" font-weight="600" fill="rgba(255,255,255,0.88)">DarkNebula</text>
    <text x="728" y="374" fill="rgba(52,211,153,0.85)">Available</text>
    <text x="780" y="374">📷</text><text x="793" y="374">♪</text><text x="806" y="374">🎮</text><text x="820" y="374">💬</text><text x="834" y="374">🐦</text><text x="848" y="374">▶</text><text x="861" y="374" fill="rgba(255,255,255,0.25)">♡</text>
    <rect x="630" y="390" width="248" height="28" rx="5" fill="rgba(255,255,255,0.015)"/>
    <text x="640" y="408" font-size="11" font-weight="600" fill="rgba(255,255,255,0.8)">AlphaNightX</text>
    <text x="728" y="408" fill="rgba(52,211,153,0.85)">Available</text>
    <text x="780" y="408">📷</text><text x="793" y="408">♪</text><text x="806" y="408">🎮</text><text x="820" y="408">💬</text><text x="834" y="408">🐦</text><text x="848" y="408">▶</text><text x="861" y="408" fill="rgba(167,139,250,0.7)">♡</text>
  </g>
  <rect x="706" y="432" width="138" height="24" rx="7" fill="rgba(255,255,255,0.05)" stroke="rgba(255,255,255,0.09)" stroke-width="1"/>
  <text x="775" y="448" text-anchor="middle" font-size="8.5" fill="rgba(255,255,255,0.45)">↺ Generate More</text>

  <!-- Right sidebar -->
  <line x1="890" y1="132" x2="890" y2="568" stroke="rgba(255,255,255,0.05)" stroke-width="1"/>
  <rect x="898" y="136" width="76" height="20" rx="6" fill="rgba(255,255,255,0.06)" stroke="rgba(255,255,255,0.1)" stroke-width="1"/>
  <text x="936" y="149" text-anchor="middle" font-size="8" fill="rgba(255,255,255,0.5)">📋 Copy All</text>
  <text x="898" y="172" font-size="9" font-weight="700" fill="rgba(255,255,255,0.6)">Username Tips</text>
  <g font-size="8" fill="rgba(255,255,255,0.42)">
    <text x="898" y="188">✔ Keep it short and easy</text>
    <text x="898" y="200">   to remember</text>
    <text x="898" y="214">✔ Avoid complicated spellings</text>
    <text x="898" y="227">✔ Use numbers wisely</text>
    <text x="898" y="240">✔ Make it unique</text>
    <text x="898" y="253">✔ Check availability before using</text>
  </g>
  <text x="898" y="276" font-size="9" font-weight="700" fill="rgba(255,255,255,0.6)">Platforms</text>
  <g font-size="13" fill="rgba(255,255,255,0.55)">
    <text x="898" y="295">📷</text><text x="920" y="295">♪</text><text x="942" y="295">💬</text><text x="964" y="295">🐦</text>
    <text x="898" y="314">▶</text><text x="920" y="314">📺</text><text x="942" y="314">🎮</text><text x="964" y="314">···</text>
  </g>
  <text x="898" y="336" font-size="9" font-weight="700" fill="rgba(255,255,255,0.6)">Favorites</text>
  <g font-size="8.5" fill="rgba(255,255,255,0.5)">
    <text x="898" y="352">♥ NightWolf_7</text>
    <text x="898" y="367">♥ WolfxLegend</text>
    <text x="898" y="382">♥ AlphaNightX</text>
  </g>

  <!-- Robot -->
  <ellipse cx="1140" cy="612" rx="70" ry="13" fill="rgba(124,58,237,0.5)" filter="url(#neon)"/>
  <ellipse cx="1140" cy="604" rx="54" ry="10" fill="rgba(124,58,237,0.28)" stroke="rgba(167,139,250,0.28)" stroke-width="1"/>
  <rect x="1106" y="492" width="68" height="100" rx="22" fill="url(#robG)" filter="url(#robGlow)"/>
  <rect x="1114" y="504" width="52" height="38" rx="10" fill="url(#robFG)" stroke="rgba(167,139,250,0.35)" stroke-width="1.5"/>
  <text x="1140" y="517" text-anchor="middle" font-size="8" fill="rgba(167,139,250,0.55)">A I</text>
  <text x="1140" y="537" text-anchor="middle" font-size="18" font-weight="900" fill="url(#aGh)" filter="url(#glow)">AI</text>
  <rect x="1088" y="500" width="18" height="54" rx="9" fill="url(#robG)"/>
  <rect x="1174" y="500" width="18" height="54" rx="9" fill="url(#robG)"/>
  <circle cx="1085" cy="562" r="9" fill="rgba(96,165,250,0.45)" filter="url(#neon)"/>
  <circle cx="1193" cy="562" r="9" fill="rgba(167,139,250,0.45)" filter="url(#neon)"/>
  <circle cx="1140" cy="560" r="6" fill="rgba(96,165,250,0.7)" filter="url(#neon)"/>
  <circle cx="1140" cy="560" r="3" fill="#60a5fa"/>
  <rect x="1132" y="474" width="16" height="20" rx="6" fill="url(#robG)"/>
  <rect x="1096" y="400" width="88" height="76" rx="24" fill="url(#robG)" filter="url(#robGlow)"/>
  <rect x="1104" y="410" width="72" height="56" rx="14" fill="url(#robFG)" stroke="rgba(167,139,250,0.45)" stroke-width="1.5"/>
  <circle cx="1124" cy="436" r="10" fill="rgba(124,58,237,0.45)" stroke="rgba(167,139,250,0.55)" stroke-width="1.5"/>
  <circle cx="1156" cy="436" r="10" fill="rgba(124,58,237,0.45)" stroke="rgba(167,139,250,0.55)" stroke-width="1.5"/>
  <circle cx="1124" cy="435" r="5.5" fill="url(#aGh)" filter="url(#glow)"/>
  <circle cx="1156" cy="435" r="5.5" fill="url(#aGh)" filter="url(#glow)"/>
  <circle cx="1125" cy="434" r="2.5" fill="#fff"/>
  <circle cx="1157" cy="434" r="2.5" fill="#fff"/>
  <path d="M 1118 454 Q 1140 466 1162 454" stroke="url(#aGh)" stroke-width="2.5" fill="none" stroke-linecap="round"/>
  <line x1="1140" y1="400" x2="1140" y2="378" stroke="rgba(167,139,250,0.55)" stroke-width="2.5"/>
  <circle cx="1140" cy="372" r="7" fill="url(#bG)" filter="url(#neon)"/>
  <circle cx="1140" cy="372" r="3.5" fill="rgba(167,139,250,0.9)"/>
  <circle cx="1094" cy="436" r="9" fill="url(#robG)" stroke="rgba(167,139,250,0.3)" stroke-width="1"/>
  <circle cx="1186" cy="436" r="9" fill="url(#robG)" stroke="rgba(167,139,250,0.3)" stroke-width="1"/>

  <!-- Bottom bar -->
  <rect x="0" y="638" width="1200" height="37" fill="rgba(124,58,237,0.06)"/>
  <line x1="0" y1="638" x2="1200" y2="638" stroke="rgba(167,139,250,0.1)" stroke-width="1"/>
  <g text-anchor="middle" font-size="8" fill="rgba(255,255,255,0.32)">
    <text x="72" y="653">📷 Instagram</text><text x="72" y="665" font-size="7">Trendy &amp; aesthetic</text>
    <line x1="144" y1="640" x2="144" y2="670" stroke="rgba(255,255,255,0.05)" stroke-width="1"/>
    <text x="230" y="653">♪ TikTok</text><text x="230" y="665" font-size="7">Short, catchy names</text>
    <line x1="316" y1="640" x2="316" y2="670" stroke="rgba(255,255,255,0.05)" stroke-width="1"/>
    <text x="420" y="653">▶ YouTube</text><text x="420" y="665" font-size="7">Memorable creator names</text>
    <line x1="524" y1="640" x2="524" y2="670" stroke="rgba(255,255,255,0.05)" stroke-width="1"/>
    <text x="624" y="653">💬 Discord</text><text x="624" y="665" font-size="7">Unique community names</text>
    <line x1="724" y1="640" x2="724" y2="670" stroke="rgba(255,255,255,0.05)" stroke-width="1"/>
    <text x="824" y="653">📺 Twitch</text><text x="824" y="665" font-size="7">Epic streamer usernames</text>
    <line x1="924" y1="640" x2="924" y2="670" stroke="rgba(255,255,255,0.05)" stroke-width="1"/>
    <text x="1024" y="653">✖ X (Twitter)</text><text x="1024" y="665" font-size="7">Professional handles</text>
    <line x1="1124" y1="640" x2="1124" y2="670" stroke="rgba(255,255,255,0.05)" stroke-width="1"/>
    <text x="1162" y="653">🎮 Gaming</text><text x="1162" y="665" font-size="7">Epic gamer tags</text>
  </g>
</svg>
