<svg viewBox="0 0 1200 630" xmlns="http://www.w3.org/2000/svg" font-family="'Segoe UI',system-ui,sans-serif">
  <defs>
    <radialGradient id="bg" cx="30%" cy="40%" r="80%"><stop offset="0%" stop-color="#0a0118"/><stop offset="100%" stop-color="#05030d"/></radialGradient>
    <radialGradient id="gL" cx="15%" cy="50%" r="55%"><stop offset="0%" stop-color="#5b21b6" stop-opacity="0.45"/><stop offset="100%" stop-color="#5b21b6" stop-opacity="0"/></radialGradient>
    <radialGradient id="gR" cx="85%" cy="50%" r="55%"><stop offset="0%" stop-color="#0e7490" stop-opacity="0.28"/><stop offset="100%" stop-color="#0e7490" stop-opacity="0"/></radialGradient>
    <linearGradient id="aG" x1="0%" y1="0%" x2="100%" y2="0%"><stop offset="0%" stop-color="#a78bfa"/><stop offset="100%" stop-color="#60a5fa"/></linearGradient>
    <linearGradient id="bG" x1="0%" y1="0%" x2="100%" y2="0%"><stop offset="0%" stop-color="#7c3aed"/><stop offset="100%" stop-color="#4f46e5"/></linearGradient>
    <filter id="sh"><feDropShadow dx="0" dy="8" stdDeviation="18" flood-color="#5b21b6" flood-opacity="0.45"/></filter>
    <filter id="glow"><feGaussianBlur stdDeviation="4" result="b"/><feMerge><feMergeNode in="b"/><feMergeNode in="SourceGraphic"/></feMerge></filter>
  </defs>
  <rect width="1200" height="630" fill="url(#bg)"/>
  <ellipse cx="180" cy="315" rx="600" ry="500" fill="url(#gL)"/>
  <ellipse cx="1020" cy="315" rx="600" ry="500" fill="url(#gR)"/>
  <text x="60" y="70" font-size="14" font-weight="700" fill="url(#aG)" filter="url(#glow)">ToolNest AI</text>
  <text x="60" y="106" font-size="13" fill="rgba(255,255,255,0.35)">Image Tools - Remove Background</text>
  <text x="60" y="185" font-size="52" font-weight="900" fill="url(#aG)" filter="url(#glow)">Remove</text>
  <text x="60" y="247" font-size="52" font-weight="900" fill="url(#aG)" filter="url(#glow)">Background</text>
  <text x="60" y="300" font-size="18" fill="rgba(255,255,255,0.6)">AI removes any background instantly</text>
  <text x="60" y="328" font-size="18" fill="rgba(255,255,255,0.6)">Free, private, no upload required</text>
  <text x="60" y="560" font-size="14" fill="rgba(255,255,255,0.25)">toolnestai.net/image-tools/remove-background</text>
  <rect x="630" y="100" width="510" height="410" rx="16" fill="rgba(20,10,60,0.7)" stroke="rgba(124,58,237,0.3)" stroke-width="1.5" filter="url(#sh)"/>
  <!-- Before label -->
  <text x="730" y="140" text-anchor="middle" font-size="10" fill="rgba(255,255,255,0.35)">BEFORE</text>
  <!-- Person with blue rectangle bg -->
  <rect x="648" y="108" width="174" height="180" rx="8" fill="rgba(14,116,144,0.25)"/>
  <circle cx="735" cy="175" r="30" fill="rgba(167,139,250,0.4)"/>
  <rect x="705" y="207" width="60" height="70" rx="8" fill="rgba(167,139,250,0.35)"/>
  <!-- Arrow -->
  <text x="845" y="205" text-anchor="middle" font-size="22" fill="rgba(255,255,255,0.3)">→</text>
  <!-- After: transparent bg (checkerboard) + person -->
  <text x="980" y="140" text-anchor="middle" font-size="10" fill="rgba(52,211,153,0.6)">AFTER (PNG)</text>
  <rect x="868" y="108" width="254" height="180" rx="8" fill="rgba(0,0,0,0)"/>
  <g fill="rgba(255,255,255,0.07)">
    <rect x="874" y="114" width="18" height="18"/><rect x="910" y="114" width="18" height="18"/><rect x="946" y="114" width="18" height="18"/><rect x="982" y="114" width="18" height="18"/><rect x="1018" y="114" width="18" height="18"/><rect x="1054" y="114" width="18" height="18"/><rect x="1090" y="114" width="18" height="18"/>
    <rect x="892" y="132" width="18" height="18"/><rect x="928" y="132" width="18" height="18"/><rect x="964" y="132" width="18" height="18"/><rect x="1000" y="132" width="18" height="18"/><rect x="1036" y="132" width="18" height="18"/><rect x="1072" y="132" width="18" height="18"/>
    <rect x="874" y="250" width="18" height="18"/><rect x="910" y="250" width="18" height="18"/><rect x="946" y="250" width="18" height="18"/><rect x="982" y="250" width="18" height="18"/><rect x="1018" y="250" width="18" height="18"/><rect x="1054" y="250" width="18" height="18"/>
    <rect x="892" y="268" width="18" height="18"/><rect x="928" y="268" width="18" height="18"/><rect x="964" y="268" width="18" height="18"/><rect x="1000" y="268" width="18" height="18"/>
  </g>
  <circle cx="995" cy="175" r="30" fill="rgba(167,139,250,0.7)"/>
  <rect x="965" y="207" width="60" height="70" rx="8" fill="rgba(167,139,250,0.6)"/>
  <!-- Stat cards -->
  <rect x="648" y="310" width="122" height="64" rx="8" fill="rgba(52,211,153,0.1)" stroke="rgba(52,211,153,0.22)" stroke-width="1"/>
  <text x="709" y="336" text-anchor="middle" font-size="12" font-weight="900" fill="#6ee7b7">Free</text>
  <text x="709" y="356" text-anchor="middle" font-size="8.5" fill="rgba(255,255,255,0.4)">no account needed</text>
  <rect x="782" y="310" width="122" height="64" rx="8" fill="rgba(167,139,250,0.1)" stroke="rgba(167,139,250,0.22)" stroke-width="1"/>
  <text x="843" y="336" text-anchor="middle" font-size="12" font-weight="900" fill="#a78bfa">Private</text>
  <text x="843" y="356" text-anchor="middle" font-size="8.5" fill="rgba(255,255,255,0.4)">no server upload</text>
  <rect x="916" y="310" width="122" height="64" rx="8" fill="rgba(103,232,249,0.1)" stroke="rgba(103,232,249,0.22)" stroke-width="1"/>
  <text x="977" y="336" text-anchor="middle" font-size="12" font-weight="900" fill="#67e8f9">AI</text>
  <text x="977" y="356" text-anchor="middle" font-size="8.5" fill="rgba(255,255,255,0.4)">powered segmentation</text>
  <rect x="648" y="385" width="506" height="42" rx="8" fill="url(#bG)" filter="url(#sh)"/>
  <text x="901" y="411" text-anchor="middle" font-size="13" font-weight="900" fill="#fff">Remove Background Free</text>
</svg>
